<svg width="54" height="34" viewBox="0 0 54 34" fill="none" xmlns="http://www.w3.org/2000/svg">
<g clip-path="url(#clip0_711_24936)">
<rect x="2" y="2" width="50" height="30" rx="15" fill="url(#paint0_linear_711_24936)"/>
<rect x="9" y="2" width="40" height="13" rx="6.5" fill="url(#paint1_linear_711_24936)"/>
<g filter="url(#filter0_f_711_24936)">
<rect x="10" y="7" width="4" height="3" rx="1.5" fill="white"/>
</g>
<rect x="46" y="5" width="3" height="5" rx="1.5" fill="white"/>
<rect x="46" y="10" width="1" height="3" rx="0.5" fill="url(#paint2_linear_711_24936)"/>
<path d="M34.625 16.5V12.5417H21.9583C21.5384 12.5417 21.1357 12.3749 20.8387 12.0779C20.5418 11.781 20.375 11.3783 20.375 10.9583C20.375 10.5384 20.5418 10.1357 20.8387 9.83875C21.1357 9.54181 21.5384 9.375 21.9583 9.375H33.0417V12.5417" stroke="#242424" stroke-width="1.58333" stroke-linecap="round" stroke-linejoin="round"/>
<path d="M20.375 10.959V22.0423C20.375 22.4622 20.5418 22.865 20.8387 23.1619C21.1357 23.4588 21.5384 23.6257 21.9583 23.6257H34.625V19.6673" stroke="#242424" stroke-width="1.58333" stroke-linecap="round" stroke-linejoin="round"/>
<path d="M32.2503 16.5C31.8304 16.5 31.4277 16.6668 31.1307 16.9637C30.8338 17.2607 30.667 17.6634 30.667 18.0833C30.667 18.5033 30.8338 18.906 31.1307 19.2029C31.4277 19.4999 31.8304 19.6667 32.2503 19.6667H35.417V16.5H32.2503Z" stroke="#242424" stroke-width="1.58333" stroke-linecap="round" stroke-linejoin="round"/>
</g>
<rect x="1" y="1" width="52" height="32" rx="16" stroke="#CF47FF" stroke-width="2"/>
<defs>
<filter id="filter0_f_711_24936" x="5.8076" y="2.8076" width="12.3848" height="11.3848" filterUnits="userSpaceOnUse" color-interpolation-filters="sRGB">
<feFlood flood-opacity="0" result="BackgroundImageFix"/>
<feBlend mode="normal" in="SourceGraphic" in2="BackgroundImageFix" result="shape"/>
<feGaussianBlur stdDeviation="2.0962" result="effect1_foregroundBlur_711_24936"/>
</filter>
<linearGradient id="paint0_linear_711_24936" x1="27" y1="2" x2="27" y2="32" gradientUnits="userSpaceOnUse">
<stop stop-color="white"/>
<stop offset="1" stop-color="#808080"/>
</linearGradient>
<linearGradient id="paint1_linear_711_24936" x1="27.4524" y1="-14.6111" x2="27.4524" y2="30.3214" gradientUnits="userSpaceOnUse">
<stop stop-color="white" stop-opacity="0.94"/>
<stop offset="1" stop-color="white" stop-opacity="0"/>
</linearGradient>
<linearGradient id="paint2_linear_711_24936" x1="46.5" y1="8.92857" x2="46.5" y2="14.5" gradientUnits="userSpaceOnUse">
<stop stop-color="white"/>
<stop offset="1" stop-color="white" stop-opacity="0"/>
</linearGradient>
<clipPath id="clip0_711_24936">
<rect x="2" y="2" width="50" height="30" rx="15" fill="white"/>
</clipPath>
</defs>
</svg>
