<svg width="114" height="48" viewBox="0 0 114 48" fill="none" xmlns="http://www.w3.org/2000/svg">
<g clip-path="url(#clip0_851_28008)">
<rect x="2" y="2" width="110" height="44" rx="22" fill="url(#paint0_linear_851_28008)"/>
<g filter="url(#filter0_i_851_28008)">
<rect y="1" width="113" height="44" rx="22" fill="url(#paint1_radial_851_28008)"/>
</g>
<path d="M42.3005 30L41.1485 27.248H35.2605L34.0925 30H32.2685L37.4045 18.16H38.9885L44.1085 30H42.3005ZM35.8525 25.84H40.5565L38.2045 20.256L35.8525 25.84ZM49.1697 30.16C46.5137 30.16 44.7377 28.384 44.7377 25.728C44.7377 23.072 46.5297 21.296 49.2177 21.296C50.3377 21.296 51.2817 21.648 52.0657 22.256L51.1377 23.376C50.5937 22.928 50.0017 22.704 49.2337 22.704C47.5537 22.704 46.4337 23.92 46.4337 25.728C46.4337 27.536 47.5537 28.752 49.2497 28.752C50.0977 28.752 50.8497 28.48 51.3937 27.904L52.3377 29.008C51.5377 29.776 50.4177 30.16 49.1697 30.16ZM57.41 28.752C57.954 28.752 58.482 28.672 59.01 28.464V29.776C58.402 30.048 57.682 30.16 56.898 30.16C55.426 30.16 54.434 29.152 54.434 27.648V22.8H52.978V21.456H54.434V18.96H56.066V21.456H58.882V22.8H56.066V27.312C56.066 28.176 56.61 28.752 57.41 28.752ZM61.3321 19.68C60.7401 19.68 60.3081 19.248 60.3081 18.656C60.3081 18.064 60.7401 17.632 61.3321 17.632C61.9081 17.632 62.3401 18.064 62.3401 18.656C62.3401 19.248 61.9081 19.68 61.3321 19.68ZM60.5161 30V21.456H62.1481V30H60.5161ZM67.2182 30L63.5062 21.456H65.2982L68.0342 28.128L70.7862 21.456H72.5622L68.8662 30H67.2182ZM81.4632 25.616C81.4632 25.824 81.4632 26.128 81.4312 26.32H74.9192C75.0792 27.872 75.8952 28.864 77.3832 28.864C78.4072 28.864 79.2392 28.384 79.8312 27.616L81.0792 28.288C80.2792 29.472 78.9672 30.16 77.3992 30.16C74.8872 30.16 73.1912 28.4 73.1912 25.76C73.1912 23.088 74.8392 21.296 77.3352 21.296C79.8152 21.296 81.4632 23.024 81.4632 25.616ZM77.3352 22.592C75.9272 22.592 75.0632 23.584 74.9192 25.2H79.7832C79.6392 23.568 78.7432 22.592 77.3352 22.592Z" fill="white"/>
<g filter="url(#filter1_d_851_28008)">
<mask id="mask0_851_28008" style="mask-type:alpha" maskUnits="userSpaceOnUse" x="0" y="42" width="113" height="5">
<rect x="0.796875" y="42.0742" width="111.205" height="4.41606" fill="url(#paint2_linear_851_28008)"/>
</mask>
<g mask="url(#mask0_851_28008)">
<rect x="-67.8516" y="39.668" width="248.504" height="9.23359" fill="url(#paint3_radial_851_28008)"/>
</g>
</g>
<rect x="12" y="5" width="89" height="17" rx="8.5" fill="url(#paint4_linear_851_28008)"/>
</g>
<rect x="2" y="2" width="110" height="44" rx="22" stroke="white" stroke-width="3"/>
<defs>
<filter id="filter0_i_851_28008" x="0" y="1" width="113" height="44" filterUnits="userSpaceOnUse" color-interpolation-filters="sRGB">
<feFlood flood-opacity="0" result="BackgroundImageFix"/>
<feBlend mode="normal" in="SourceGraphic" in2="BackgroundImageFix" result="shape"/>
<feColorMatrix in="SourceAlpha" type="matrix" values="0 0 0 0 0 0 0 0 0 0 0 0 0 0 0 0 0 0 127 0" result="hardAlpha"/>
<feMorphology radius="4.81752" operator="erode" in="SourceAlpha" result="effect1_innerShadow_851_28008"/>
<feOffset/>
<feGaussianBlur stdDeviation="1.40511"/>
<feComposite in2="hardAlpha" operator="arithmetic" k2="-1" k3="1"/>
<feColorMatrix type="matrix" values="0 0 0 0 0 0 0 0 0 0 0 0 0 0 0 0 0 0 0.11 0"/>
<feBlend mode="normal" in2="shape" result="effect1_innerShadow_851_28008"/>
</filter>
<filter id="filter1_d_851_28008" x="-0.808967" y="42.0742" width="114.416" height="7.6277" filterUnits="userSpaceOnUse" color-interpolation-filters="sRGB">
<feFlood flood-opacity="0" result="BackgroundImageFix"/>
<feColorMatrix in="SourceAlpha" type="matrix" values="0 0 0 0 0 0 0 0 0 0 0 0 0 0 0 0 0 0 127 0" result="hardAlpha"/>
<feOffset dy="1.60584"/>
<feGaussianBlur stdDeviation="0.802921"/>
<feComposite in2="hardAlpha" operator="out"/>
<feColorMatrix type="matrix" values="0 0 0 0 0 0 0 0 0 0 0 0 0 0 0 0 0 0 0.25 0"/>
<feBlend mode="normal" in2="BackgroundImageFix" result="effect1_dropShadow_851_28008"/>
<feBlend mode="normal" in="SourceGraphic" in2="effect1_dropShadow_851_28008" result="shape"/>
</filter>
<linearGradient id="paint0_linear_851_28008" x1="57" y1="2" x2="57" y2="46" gradientUnits="userSpaceOnUse">
<stop offset="0.0625" stop-color="white"/>
<stop offset="1" stop-color="#949494"/>
</linearGradient>
<radialGradient id="paint1_radial_851_28008" cx="0" cy="0" r="1" gradientUnits="userSpaceOnUse" gradientTransform="translate(56.5 23) rotate(90) scale(22 56.5)">
<stop offset="0.19" stop-color="#E101FF"/>
<stop offset="1" stop-color="#9301FF"/>
</radialGradient>
<linearGradient id="paint2_linear_851_28008" x1="56.3991" y1="42.0742" x2="56.3991" y2="46.4903" gradientUnits="userSpaceOnUse">
<stop stop-color="#E101FF" stop-opacity="0"/>
<stop offset="0.68" stop-color="#9301FF"/>
<stop offset="1" stop-color="#9301FF" stop-opacity="0"/>
</linearGradient>
<radialGradient id="paint3_radial_851_28008" cx="0" cy="0" r="1" gradientUnits="userSpaceOnUse" gradientTransform="translate(56.4004 44.2848) rotate(90) scale(4.6168 124.252)">
<stop stop-color="#E101FF"/>
<stop offset="0.86" stop-color="#7700CF"/>
</radialGradient>
<linearGradient id="paint4_linear_851_28008" x1="53.0566" y1="5" x2="53.0566" y2="25.9464" gradientUnits="userSpaceOnUse">
<stop stop-color="white" stop-opacity="0.43"/>
<stop offset="1" stop-color="white" stop-opacity="0"/>
</linearGradient>
<clipPath id="clip0_851_28008">
<rect x="2" y="2" width="110" height="44" rx="22" fill="white"/>
</clipPath>
</defs>
</svg>
