<svg width="88" height="100" viewBox="0 0 88 100" fill="none" xmlns="http://www.w3.org/2000/svg">
<g clip-path="url(#clip0_502_35290)">
<path d="M20.2858 75.7581C23.038 71.4755 26.0655 67.3268 27.1511 61.9921C28.4609 63.327 28.8483 64.9646 29.2866 66.4633C29.7351 67.9967 30.2499 67.8578 31.3711 67.168C34.4343 65.2773 36.4322 62.5628 37.7522 59.3818C39.3322 55.5606 40.1834 51.541 40.6217 47.4419C40.6778 46.9109 40.2904 46.1715 40.9479 45.8887C41.5391 45.6306 42.0284 46.1715 42.482 46.5387C46.1007 49.4865 49.7244 52.4293 53.3431 55.377C55.8915 58.0171 58.4347 60.6621 60.9831 63.3022C61.4367 63.987 61.8546 64.7016 62.349 65.3616C66.931 71.4457 68.6486 77.9367 65.6364 85.2465C63.2409 91.0576 59.0718 95.4793 54.337 99.5088C52.3289 100.377 50.229 99.8066 48.175 99.876C48.5573 98.6007 49.7397 97.9605 50.5858 97.0623C54.1229 93.2957 54.5306 89.0974 51.5287 84.9785C49.067 81.604 45.8662 78.949 42.3291 76.3983C41.8296 78.9987 41.5697 81.4502 40.1681 83.5841C38.6849 85.847 38.0275 85.9313 36.3048 83.8272C35.948 85.5393 34.8777 86.8296 34.1285 88.2836C32.2835 91.8814 32.681 94.3329 35.5097 97.2806C36.371 98.1739 37.6044 98.6999 38.1651 99.876C35.9327 99.8215 33.6647 100.343 31.4731 99.5088C27.3396 95.8911 22.6201 92.7995 20.2348 87.6236C18.8434 83.6635 19.0575 79.7083 20.2858 75.7581Z" fill="#F58528"/>
<path d="M38.1642 99.8762C37.6036 98.7001 36.3702 98.174 35.5088 97.2808C32.6801 94.338 32.2826 91.8815 34.1276 88.2837C34.8717 86.8297 35.9471 85.5345 36.3039 83.8273C38.0266 85.9315 38.6841 85.8471 40.1672 83.5842C41.5637 81.4503 41.8288 78.9988 42.3282 76.3984C45.8705 78.9492 49.0712 81.6091 51.5278 84.9787C54.5298 89.0976 54.1221 93.2959 50.5849 97.0624C49.7389 97.9606 48.5564 98.5958 48.1742 99.8762C44.8358 99.8762 41.5026 99.8762 38.1642 99.8762Z" fill="#FFCE31"/>
<path d="M86.6405 48.3549C86.5793 48.0522 86.5131 47.7445 86.4519 47.4418C85.6772 47.3078 85.193 47.0746 86.0849 46.3898C86.0289 46.0771 85.9728 45.7645 85.9168 45.4518C85.7791 45.2285 85.6466 45.0002 85.509 44.7769C85.4529 44.3402 85.402 43.8986 85.3459 43.4619C85.2287 43.2485 85.1064 43.0351 84.9891 42.8217C84.5559 40.7077 83.613 38.802 82.451 36.9858C79.816 31.0456 75.8252 26.0384 71.1261 20.8377C71.7886 26.6835 70.6317 31.3731 67.0436 36.0528C65.1935 25.9739 60.0611 18.2323 53.9042 11.0218C50.6271 6.4364 43.2878 0.501216 40.3062 0C40.7343 2.5954 40.8006 5.19081 40.2858 7.8011C39.2614 12.9869 37.1819 17.8155 35.0973 22.649C35.449 22.9219 35.2655 23.0261 34.9699 23.1006C34.9699 23.0907 34.9699 23.0807 34.9699 23.0708C30.9894 29.9787 26.6419 36.5888 19.4249 41.0302C19.0376 37.8691 17.4423 35.4176 16.1172 32.8669C15.949 32.5443 15.5463 32.1721 15.2099 32.1324C14.634 32.0629 14.6901 32.6187 14.6544 33.0157C14.4047 35.8146 12.998 38.1768 11.5913 40.5191C7.95221 46.5684 3.86973 52.2803 1.55072 59.1335C-0.854929 66.2349 -0.477771 72.6862 2.81981 79.207C3.36006 79.4005 3.40593 79.8372 3.39064 80.3037C3.34477 80.4575 3.39064 80.5816 3.52315 80.6759C3.65567 80.8645 3.78818 81.053 3.9207 81.2416C3.89012 81.4203 3.94618 81.5692 4.08889 81.6833C4.20612 81.8471 4.32334 82.0059 4.44566 82.1696V82.1597C4.58327 82.3483 4.72598 82.5418 4.86359 82.7304C4.89927 82.7205 4.92985 82.7105 4.96043 82.7056C4.92475 82.7155 4.89417 82.7254 4.86359 82.7304C4.86359 82.7304 4.8483 82.7304 4.84321 82.7353C6.53022 85.7774 8.81355 88.348 11.4435 90.6407C16.7186 96.5957 22.6053 101.241 31.4736 99.5137C27.3401 95.896 22.6206 92.8043 20.2353 87.6234C18.8439 83.6633 19.058 79.7082 20.2863 75.758C23.0385 71.4754 26.066 67.3267 27.1516 61.992C28.4614 63.3269 28.8488 64.9645 29.2871 66.4632C29.7356 67.9966 30.2504 67.8577 31.3716 67.1679C34.4348 65.2772 36.4327 62.5626 37.7527 59.3817C39.3327 55.5605 40.1839 51.5409 40.6222 47.4418C40.6782 46.9108 40.2909 46.1714 40.9484 45.8885C41.5396 45.6305 42.0289 46.1714 42.4825 46.5386C46.1012 49.4864 49.7249 52.4292 53.3436 55.3769C55.892 58.017 58.4352 60.662 60.9836 63.3021C61.4372 63.9869 61.8551 64.7015 62.3495 65.3615C66.9315 71.4456 68.6491 77.9366 65.6369 85.2464C63.2414 91.0575 59.0723 95.4791 54.3375 99.5087C56.8705 99.5434 59.4087 99.5534 61.9418 99.6278C63.0325 99.6576 63.9295 99.3003 64.6889 98.5906C71.7275 92.0599 78.8272 85.5789 83.0983 76.8299C87.5426 67.7237 89.5303 58.3246 86.6354 48.35L86.6405 48.3549ZM5.41404 82.5865C6.1021 82.388 6.74938 82.1101 7.37118 81.7875C6.74938 82.1051 6.1021 82.383 5.41404 82.5865ZM59.6482 51.258C61.4729 50.1216 63.3077 49.005 65.1476 47.8934C63.3077 49.005 61.4678 50.1166 59.6482 51.258Z" fill="url(#paint0_linear_502_35290)"/>
</g>
<defs>
<linearGradient id="paint0_linear_502_35290" x1="27.8192" y1="3.25542" x2="53.5758" y2="101.981" gradientUnits="userSpaceOnUse">
<stop stop-color="#FEDF63"/>
<stop offset="1" stop-color="#DF1F26"/>
</linearGradient>
<clipPath id="clip0_502_35290">
<rect width="88" height="100" fill="white"/>
</clipPath>
</defs>
</svg>
