<svg width="267" height="79" viewBox="0 0 267 79" fill="none" xmlns="http://www.w3.org/2000/svg">
<path d="M79.6887 17.8857L79.6887 34.8946L89.4549 44.2066L94.1236 38.6799L94.1236 48.32L98.2117 48.32L98.1865 38.3519L103.637 44.2066L112.647 34.8441L112.647 17.9866L96.1172 0.851562L79.6887 17.8857ZM84.5087 18.8699L94.1236 8.90177L94.1236 28.8885L84.5087 18.8699ZM98.1865 8.97747L107.776 18.9204L98.2118 28.8885L98.1865 8.97747ZM99.4231 33.5823L108.584 24.0684L108.584 33.1028L103.663 38.1752L99.4231 33.5823ZM83.7517 33.0524L83.7517 24.0685L92.9879 33.658L89.1269 38.1752L83.7517 33.0524Z" fill="url(#paint0_linear_689_2653)"/>
<g clip-path="url(#clip0_689_2653)">
<path d="M148.636 7.73001C148.636 6.0033 147.194 4.60352 145.415 4.60352C143.636 4.60352 142.194 6.0033 142.194 7.73001C142.194 8.75399 142.701 9.66128 143.483 10.231V22.7371C143.483 24.6591 144.857 26.2694 146.704 26.6929V29.6155C146.704 38.4217 154.059 45.5606 163.131 45.5606C172.204 45.5606 179.559 38.4217 179.559 29.6155V26.6929C181.406 26.2694 182.78 24.6591 182.78 22.7371V10.231C183.562 9.66128 184.068 8.75399 184.068 7.73001C184.068 6.0033 182.626 4.60352 180.847 4.60352C179.068 4.60352 177.626 6.0033 177.626 7.73001C177.626 8.57569 177.972 9.34176 178.532 9.90374L177.569 12.562C175.916 10.5693 173.382 9.29326 170.54 9.29326H155.723C152.88 9.29326 150.346 10.5693 148.694 12.562L147.73 9.90374C148.291 9.34176 148.636 8.57569 148.636 7.73001Z" fill="black"/>
<path d="M178.914 7.72991C178.914 6.69388 179.78 5.854 180.847 5.854C181.914 5.854 182.78 6.69388 182.78 7.72991C182.78 8.54668 182.242 9.24154 181.491 9.49906V22.7371C181.491 24.2912 180.193 25.5509 178.592 25.5509H177.626V16.1715L180.064 9.44549C179.387 9.15384 178.914 8.49543 178.914 7.72991Z" fill="#757575"/>
<path d="M147.348 7.72991C147.348 6.69388 146.482 5.854 145.415 5.854C144.348 5.854 143.482 6.69388 143.482 7.72991C143.482 8.54668 144.02 9.24154 144.771 9.49906V22.7371C144.771 24.2912 146.069 25.5509 147.67 25.5509H148.636V16.1715L146.198 9.44549C146.875 9.15385 147.348 8.49543 147.348 7.72991Z" fill="#757575"/>
<path d="M147.992 18.0476C147.992 13.9034 151.453 10.5439 155.723 10.5439H170.54C174.809 10.5439 178.27 13.9034 178.27 18.0476V29.6156C178.27 37.7312 171.492 44.3101 163.131 44.3101C154.77 44.3101 147.992 37.7312 147.992 29.6156V18.0476Z" fill="#CCCCCC"/>
<path d="M156.367 10.5439H169.896V20.5488H156.367V10.5439Z" fill="white"/>
<path d="M160.232 10.2314H163.658C164.968 10.2314 166.03 11.2929 166.03 12.6023V16.1718C166.03 17.7258 164.733 18.9856 163.131 18.9856C161.53 18.9856 160.232 17.7258 160.232 16.1718V10.2314Z" fill="#F03917"/>
<path d="M158.3 33.6797H167.963V36.1809H158.3V33.6797Z" fill="black"/>
<path d="M150.892 22.4243C150.892 21.3882 151.757 20.5483 152.824 20.5483H173.439C174.507 20.5483 175.372 21.3882 175.372 22.4243V27.4266C175.372 28.4627 174.507 29.3025 173.439 29.3025H152.824C151.757 29.3025 150.892 28.4627 150.892 27.4266V22.4243Z" fill="black"/>
<path d="M154.112 23.9877C154.112 22.9517 154.978 22.1118 156.045 22.1118C157.112 22.1118 157.978 22.9517 157.978 23.9877V25.8636C157.978 26.8997 157.112 27.7395 156.045 27.7395C154.978 27.7395 154.112 26.8997 154.112 25.8636V23.9877Z" fill="#30D2F8"/>
<path d="M168.285 23.9877C168.285 22.9517 169.15 22.1118 170.218 22.1118C171.285 22.1118 172.15 22.9517 172.15 23.9877V25.8636C172.15 26.8997 171.285 27.7395 170.218 27.7395C169.15 27.7395 168.285 26.8997 168.285 25.8636V23.9877Z" fill="#30D2F8"/>
<path d="M154.68 41.8085C150.645 39.1689 147.992 34.6928 147.992 29.6152V29.4966L154.756 34.9302V41.8085H154.68Z" fill="#757575"/>
<path d="M178.27 29.4971V29.6156C178.27 34.6933 175.617 39.1694 171.583 41.809H171.506V34.9307L178.27 29.4971Z" fill="#757575"/>
<path fill-rule="evenodd" clip-rule="evenodd" d="M156.422 8.40882C156.054 8.76649 155.944 9.3044 156.143 9.77171C156.342 10.239 156.812 10.5437 157.333 10.5437H161.553L160.298 14.2141C160.11 14.7643 160.336 15.3679 160.844 15.6724C161.352 15.9769 162.01 15.9024 162.432 15.4925L169.84 8.30154C170.209 7.94387 170.319 7.40597 170.12 6.93865C169.92 6.47133 169.45 6.16663 168.929 6.16663H164.709L165.965 2.49625C166.153 1.94606 165.927 1.34246 165.419 1.03797C164.91 0.733489 164.253 0.807954 163.831 1.21788L156.422 8.40882Z" fill="black"/>
<path d="M157.334 9.29299L164.742 2.10205L162.924 7.41709H168.93L161.521 14.608L163.339 9.29299H157.334Z" fill="#FFC93A"/>
</g>
<path d="M136.362 23.046V27.297H129.948V33.8631H124.786V27.297H118.371V23.046H124.786V16.442H129.948V23.046H136.362Z" fill="white"/>
<path d="M77.6266 62.2301C75.2363 62.2301 73.6292 60.6739 73.6292 58.3446C73.6292 56.0357 75.2261 54.4998 77.6164 54.4998C78.8471 54.4998 79.8439 54.9067 80.5864 55.7102L79.6812 56.6257C79.254 56.0764 78.5318 55.6899 77.6367 55.6899C76.1212 55.6899 75.1142 56.7579 75.1142 58.3548C75.1142 59.9721 76.1415 61.0401 77.6571 61.0401C78.6742 61.0401 79.376 60.5824 79.8541 59.85L80.8204 60.7146C80.0982 61.7012 78.9997 62.2301 77.6266 62.2301ZM84.2954 62.2301C82.5358 62.2301 81.3559 61.0909 81.3559 59.3821C81.3559 57.6835 82.5358 56.5443 84.2954 56.5443C86.0449 56.5443 87.2248 57.6835 87.2248 59.3821C87.2248 61.0909 86.0449 62.2301 84.2954 62.2301ZM84.2954 61.0401C85.1905 61.0401 85.7906 60.3789 85.7906 59.3821C85.7906 58.3853 85.1905 57.7242 84.2954 57.7242C83.3902 57.7242 82.7901 58.3853 82.7901 59.3821C82.7901 60.3789 83.3902 61.0401 84.2954 61.0401ZM88.3266 62.1284V54.1947H89.7099V62.1284H88.3266ZM91.1376 62.1284V54.1947H92.5209V62.1284H91.1376ZM96.1152 56.5443C97.5189 56.5443 98.4648 57.3885 98.4648 58.6803V62.1284H97.1323L97.1018 61.3452C96.7357 61.9148 96.105 62.2301 95.4337 62.2301C94.2945 62.2301 93.5317 61.5486 93.5317 60.5315C93.5317 59.4737 94.4674 58.782 95.8711 58.782C96.2474 58.782 96.6645 58.8227 97.0815 58.9041V58.8024C97.0815 58.07 96.5933 57.6326 95.7592 57.6326C95.2405 57.6326 94.8234 57.7852 94.4776 58.07L93.8775 57.2563C94.4674 56.7782 95.1591 56.5443 96.1152 56.5443ZM95.8304 61.2435C96.4712 61.2435 97.0713 60.7349 97.0815 59.8398C96.7255 59.7686 96.3593 59.728 96.044 59.728C95.393 59.728 94.976 60.0331 94.976 60.501C94.976 60.9485 95.271 61.2435 95.8304 61.2435ZM103.013 56.5443C104.488 56.5443 105.637 57.6937 105.637 59.4126C105.637 61.1011 104.488 62.2301 103.013 62.2301C102.169 62.2301 101.558 61.8843 101.172 61.3045L101.141 62.1284H99.8089V54.1947H101.192V57.4394C101.579 56.88 102.179 56.5443 103.013 56.5443ZM102.698 61.0401C103.593 61.0401 104.203 60.3789 104.203 59.3923C104.203 58.3955 103.593 57.7242 102.698 57.7242C101.792 57.7242 101.192 58.3955 101.192 59.3821C101.192 60.3789 101.792 61.0401 102.698 61.0401ZM109.347 62.2301C107.587 62.2301 106.407 61.0909 106.407 59.3821C106.407 57.6835 107.587 56.5443 109.347 56.5443C111.096 56.5443 112.276 57.6835 112.276 59.3821C112.276 61.0909 111.096 62.2301 109.347 62.2301ZM109.347 61.0401C110.242 61.0401 110.842 60.3789 110.842 59.3821C110.842 58.3853 110.242 57.7242 109.347 57.7242C108.441 57.7242 107.841 58.3853 107.841 59.3821C107.841 60.3789 108.441 61.0401 109.347 61.0401ZM114.72 57.3784C115.158 56.8393 115.849 56.5443 116.734 56.5443L116.643 57.8157C115.504 57.8157 114.751 58.365 114.751 59.1889V62.1284H113.368V56.646H114.7L114.72 57.3784ZM119.567 56.5443C120.971 56.5443 121.917 57.3885 121.917 58.6803V62.1284H120.584L120.554 61.3452C120.188 61.9148 119.557 62.2301 118.886 62.2301C117.746 62.2301 116.984 61.5486 116.984 60.5315C116.984 59.4737 117.919 58.782 119.323 58.782C119.699 58.782 120.116 58.8227 120.533 58.9041V58.8024C120.533 58.07 120.045 57.6326 119.211 57.6326C118.692 57.6326 118.275 57.7852 117.929 58.07L117.329 57.2563C117.919 56.7782 118.611 56.5443 119.567 56.5443ZM119.282 61.2435C119.923 61.2435 120.523 60.7349 120.533 59.8398C120.177 59.7686 119.811 59.728 119.496 59.728C118.845 59.728 118.428 60.0331 118.428 60.501C118.428 60.9485 118.723 61.2435 119.282 61.2435ZM125.724 61.0401C126.039 61.0401 126.354 60.9892 126.67 60.857V61.9758C126.253 62.1488 125.764 62.2301 125.276 62.2301C124.269 62.2301 123.588 61.5385 123.588 60.501V57.775H122.682V56.646H123.588V55.0389H124.971V56.646H126.588V57.775H124.971V60.2162C124.971 60.7146 125.276 61.0401 125.724 61.0401ZM128.293 55.7509C127.815 55.7509 127.47 55.4153 127.47 54.9372C127.47 54.4592 127.815 54.1133 128.293 54.1133C128.772 54.1133 129.107 54.4592 129.107 54.9372C129.107 55.4153 128.772 55.7509 128.293 55.7509ZM127.602 62.1284V56.646H128.985V62.1284H127.602ZM133.017 62.2301C131.257 62.2301 130.077 61.0909 130.077 59.3821C130.077 57.6835 131.257 56.5443 133.017 56.5443C134.766 56.5443 135.946 57.6835 135.946 59.3821C135.946 61.0909 134.766 62.2301 133.017 62.2301ZM133.017 61.0401C133.912 61.0401 134.512 60.3789 134.512 59.3821C134.512 58.3853 133.912 57.7242 133.017 57.7242C132.112 57.7242 131.512 58.3853 131.512 59.3821C131.512 60.3789 132.112 61.0401 133.017 61.0401ZM140.181 56.5443C141.493 56.5443 142.368 57.3987 142.368 58.6803V62.1284H140.984V58.9041C140.984 58.1921 140.476 57.7242 139.703 57.7242C138.93 57.7242 138.421 58.1921 138.421 58.9041V62.1284H137.038V56.646H138.37L138.391 57.3377C138.808 56.8189 139.449 56.5443 140.181 56.5443ZM149.42 56.5443C150.895 56.5443 152.044 57.6937 152.044 59.4126C152.044 61.1011 150.895 62.2301 149.42 62.2301C148.576 62.2301 147.966 61.8843 147.579 61.3045L147.549 62.1284H146.216V54.1947H147.599V57.4394C147.986 56.88 148.586 56.5443 149.42 56.5443ZM149.105 61.0401C150 61.0401 150.61 60.3789 150.61 59.3923C150.61 58.3955 150 57.7242 149.105 57.7242C148.2 57.7242 147.599 58.3955 147.599 59.3821C147.599 60.3789 148.2 61.0401 149.105 61.0401ZM158.297 59.3008C158.297 59.494 158.276 59.7178 158.256 59.8805H154.289C154.391 60.6536 154.798 61.1418 155.601 61.1418C156.161 61.1418 156.618 60.8875 156.944 60.4908L158.012 61.0299C157.524 61.7622 156.659 62.2301 155.621 62.2301C153.943 62.2301 152.824 61.1113 152.824 59.4228C152.824 57.6937 153.913 56.5443 155.56 56.5443C157.198 56.5443 158.297 57.6428 158.297 59.3008ZM155.56 57.6326C154.828 57.6326 154.401 58.1107 154.289 58.9448H156.842C156.74 58.1107 156.303 57.6326 155.56 57.6326ZM161.81 61.0401C162.126 61.0401 162.441 60.9892 162.756 60.857V61.9758C162.339 62.1488 161.851 62.2301 161.363 62.2301C160.356 62.2301 159.674 61.5385 159.674 60.501V57.775H158.769V56.646H159.674V55.0389H161.058V56.646H162.675V57.775H161.058V60.2162C161.058 60.7146 161.363 61.0401 161.81 61.0401ZM170.698 56.646H172.213L170.199 62.1284H168.816L167.616 58.3446L166.415 62.1284H165.032L163.018 56.646H164.534L165.815 60.5518L167.046 56.646H168.185L169.416 60.5518L170.698 56.646ZM178.043 59.3008C178.043 59.494 178.023 59.7178 178.003 59.8805H174.036C174.138 60.6536 174.544 61.1418 175.348 61.1418C175.907 61.1418 176.365 60.8875 176.691 60.4908L177.759 61.0299C177.27 61.7622 176.406 62.2301 175.368 62.2301C173.69 62.2301 172.571 61.1113 172.571 59.4228C172.571 57.6937 173.66 56.5443 175.307 56.5443C176.945 56.5443 178.043 57.6428 178.043 59.3008ZM175.307 57.6326C174.575 57.6326 174.148 58.1107 174.036 58.9448H176.589C176.487 58.1107 176.05 57.6326 175.307 57.6326ZM184.271 59.3008C184.271 59.494 184.251 59.7178 184.231 59.8805H180.264C180.366 60.6536 180.772 61.1418 181.576 61.1418C182.135 61.1418 182.593 60.8875 182.919 60.4908L183.987 61.0299C183.498 61.7622 182.634 62.2301 181.596 62.2301C179.918 62.2301 178.799 61.1113 178.799 59.4228C178.799 57.6937 179.888 56.5443 181.535 56.5443C183.173 56.5443 184.271 57.6428 184.271 59.3008ZM181.535 57.6326C180.803 57.6326 180.376 58.1107 180.264 58.9448H182.817C182.715 58.1107 182.278 57.6326 181.535 57.6326ZM188.475 56.5443C189.787 56.5443 190.662 57.3987 190.662 58.6803V62.1284H189.279V58.9041C189.279 58.1921 188.77 57.7242 187.997 57.7242C187.224 57.7242 186.716 58.1921 186.716 58.9041V62.1284H185.332V56.646H186.665L186.685 57.3377C187.102 56.8189 187.743 56.5443 188.475 56.5443ZM61.6446 73.9384H65.408V75.1284H60.2104V67.6016H65.3267V68.7916H61.6446V70.7242H65.0012V71.9041H61.6446V73.9384ZM70.6927 67.1947H72.076V75.1284H70.7435L70.713 74.3045C70.3265 74.8843 69.7162 75.2301 68.872 75.2301C67.3869 75.2301 66.2477 74.1011 66.2477 72.4126C66.2477 70.6937 67.3869 69.5443 68.872 69.5443C69.706 69.5443 70.3061 69.88 70.6927 70.4394V67.1947ZM69.1873 74.0401C70.0824 74.0401 70.6927 73.3789 70.6927 72.3821C70.6927 71.3955 70.0824 70.7242 69.1873 70.7242C68.282 70.7242 67.6819 71.3955 67.6819 72.3923C67.6819 73.3789 68.282 74.0401 69.1873 74.0401ZM78.6435 72.3008C78.6435 72.494 78.6232 72.7178 78.6029 72.8805H74.636C74.7377 73.6536 75.1446 74.1418 75.9481 74.1418C76.5075 74.1418 76.9653 73.8875 77.2907 73.4908L78.3587 74.0299C77.8705 74.7622 77.0059 75.2301 75.9685 75.2301C74.2902 75.2301 73.1713 74.1113 73.1713 72.4228C73.1713 70.6937 74.2597 69.5443 75.9074 69.5443C77.545 69.5443 78.6435 70.6428 78.6435 72.3008ZM75.9074 70.6326C75.1751 70.6326 74.7479 71.1107 74.636 71.9448H77.189C77.0873 71.1107 76.6499 70.6326 75.9074 70.6326ZM82.8474 69.5443C84.1596 69.5443 85.0343 70.3987 85.0343 71.6803V75.1284H83.651V71.9041C83.651 71.1921 83.1424 70.7242 82.3694 70.7242C81.5964 70.7242 81.0878 71.1921 81.0878 71.9041V75.1284H79.7045V69.646H81.0369L81.0573 70.3377C81.4743 69.8189 82.1151 69.5443 82.8474 69.5443ZM89.0758 75.1284V67.6016H89.9709L94.7108 72.6974L94.6803 67.6016H96.1145V75.1284H95.2296L90.4897 70.0325L90.51 75.1284H89.0758ZM102.85 72.3008C102.85 72.494 102.83 72.7178 102.81 72.8805H98.8428C98.9445 73.6536 99.3514 74.1418 100.155 74.1418C100.714 74.1418 101.172 73.8875 101.498 73.4908L102.566 74.0299C102.077 74.7622 101.213 75.2301 100.175 75.2301C98.497 75.2301 97.3781 74.1113 97.3781 72.4228C97.3781 70.6937 98.4665 69.5443 100.114 69.5443C101.752 69.5443 102.85 70.6428 102.85 72.3008ZM100.114 70.6326C99.3819 70.6326 98.9547 71.1107 98.8428 71.9448H101.396C101.294 71.1107 100.857 70.6326 100.114 70.6326ZM106.364 74.0401C106.68 74.0401 106.995 73.9892 107.31 73.857V74.9758C106.893 75.1488 106.405 75.2301 105.917 75.2301C104.91 75.2301 104.228 74.5385 104.228 73.501V70.775H103.323V69.646H104.228V68.0389H105.612V69.646H107.229V70.775H105.612V73.2162C105.612 73.7146 105.917 74.0401 106.364 74.0401ZM115.251 69.646H116.767L114.753 75.1284H113.37L112.169 71.3446L110.969 75.1284H109.586L107.572 69.646H109.087L110.369 73.5518L111.6 69.646H112.739L113.97 73.5518L115.251 69.646ZM120.054 75.2301C118.295 75.2301 117.115 74.0909 117.115 72.3821C117.115 70.6835 118.295 69.5443 120.054 69.5443C121.804 69.5443 122.984 70.6835 122.984 72.3821C122.984 74.0909 121.804 75.2301 120.054 75.2301ZM120.054 74.0401C120.949 74.0401 121.55 73.3789 121.55 72.3821C121.55 71.3853 120.949 70.7242 120.054 70.7242C119.149 70.7242 118.549 71.3853 118.549 72.3821C118.549 73.3789 119.149 74.0401 120.054 74.0401ZM125.428 70.3784C125.866 69.8393 126.557 69.5443 127.442 69.5443L127.351 70.8157C126.211 70.8157 125.459 71.365 125.459 72.1889V75.1284H124.075V69.646H125.408L125.428 70.3784ZM132.031 75.1284L130.079 72.8195H129.611V75.1284H128.227V67.1947H129.611V71.6803H130.089L131.899 69.646H133.649L131.218 72.2397L133.781 75.1284H132.031ZM138.937 69.5443C140.34 69.5443 141.286 70.3885 141.286 71.6803V75.1284H139.954L139.923 74.3452C139.557 74.9148 138.926 75.2301 138.255 75.2301C137.116 75.2301 136.353 74.5486 136.353 73.5315C136.353 72.4737 137.289 71.782 138.692 71.782C139.069 71.782 139.486 71.8227 139.903 71.9041V71.8024C139.903 71.07 139.415 70.6326 138.581 70.6326C138.062 70.6326 137.645 70.7852 137.299 71.07L136.699 70.2563C137.289 69.7782 137.98 69.5443 138.937 69.5443ZM138.652 74.2435C139.293 74.2435 139.893 73.7349 139.903 72.8398C139.547 72.7686 139.181 72.728 138.865 72.728C138.214 72.728 137.797 73.0331 137.797 73.501C137.797 73.9485 138.092 74.2435 138.652 74.2435ZM145.773 69.5443C147.085 69.5443 147.96 70.3987 147.96 71.6803V75.1284H146.577V71.9041C146.577 71.1921 146.068 70.7242 145.295 70.7242C144.522 70.7242 144.014 71.1921 144.014 71.9041V75.1284H142.63V69.646H143.963L143.983 70.3377C144.4 69.8189 145.041 69.5443 145.773 69.5443ZM153.425 67.1947H154.808V75.1284H153.476L153.445 74.3045C153.059 74.8843 152.448 75.2301 151.604 75.2301C150.119 75.2301 148.98 74.1011 148.98 72.4126C148.98 70.6937 150.119 69.5443 151.604 69.5443C152.438 69.5443 153.038 69.88 153.425 70.4394V67.1947ZM151.92 74.0401C152.815 74.0401 153.425 73.3789 153.425 72.3821C153.425 71.3955 152.815 70.7242 151.92 70.7242C151.014 70.7242 150.414 71.3955 150.414 72.3923C150.414 73.3789 151.014 74.0401 151.92 74.0401ZM163.665 68.7916H160.349V70.9276H163.197V72.1075H160.349V75.1284H158.915V67.6016H163.665V68.7916ZM164.722 75.1284V67.1947H166.105V75.1284H164.722ZM169.699 69.5443C171.103 69.5443 172.049 70.3885 172.049 71.6803V75.1284H170.716L170.686 74.3452C170.32 74.9148 169.689 75.2301 169.018 75.2301C167.878 75.2301 167.116 74.5486 167.116 73.5315C167.116 72.4737 168.051 71.782 169.455 71.782C169.831 71.782 170.248 71.8227 170.665 71.9041V71.8024C170.665 71.07 170.177 70.6326 169.343 70.6326C168.824 70.6326 168.407 70.7852 168.062 71.07L167.461 70.2563C168.051 69.7782 168.743 69.5443 169.699 69.5443ZM169.414 74.2435C170.055 74.2435 170.655 73.7349 170.665 72.8398C170.309 72.7686 169.943 72.728 169.628 72.728C168.977 72.728 168.56 73.0331 168.56 73.501C168.56 73.9485 168.855 74.2435 169.414 74.2435ZM175.214 75.2301C174.379 75.2301 173.637 75.0165 173.139 74.5792L173.657 73.7451C174.176 74.0502 174.695 74.152 175.234 74.152C175.742 74.152 176.088 73.9384 176.088 73.6027C176.088 73.267 175.702 73.084 175.153 72.9416L174.695 72.8195C173.769 72.5754 173.139 72.2194 173.139 71.3548C173.139 70.2665 173.993 69.5443 175.295 69.5443C176.119 69.5443 176.821 69.7172 177.36 70.0834L176.78 70.9886C176.343 70.7445 175.875 70.6326 175.386 70.6326C174.888 70.6326 174.542 70.8157 174.542 71.131C174.542 71.4565 174.888 71.6091 175.366 71.7312L175.824 71.8634C176.76 72.1075 177.502 72.5347 177.502 73.501C177.502 74.5385 176.587 75.2301 175.214 75.2301ZM181.761 69.5443C183.073 69.5443 183.947 70.3987 183.947 71.6803V75.1284H182.564V71.9041C182.564 71.1921 182.056 70.7242 181.283 70.7242C180.51 70.7242 180.001 71.1921 180.001 71.9041V75.1284H178.618V67.1947H180.001V70.3072C180.418 69.7986 181.049 69.5443 181.761 69.5443ZM188.487 69.5443C189.962 69.5443 191.111 70.6937 191.111 72.4126C191.111 74.1011 189.962 75.2301 188.487 75.2301C187.642 75.2301 187.032 74.8843 186.646 74.3045L186.615 75.1284H185.283V67.1947H186.666V70.4394C187.053 69.88 187.653 69.5443 188.487 69.5443ZM188.171 74.0401C189.066 74.0401 189.677 73.3789 189.677 72.3923C189.677 71.3955 189.066 70.7242 188.171 70.7242C187.266 70.7242 186.666 71.3955 186.666 72.3821C186.666 73.3789 187.266 74.0401 188.171 74.0401ZM194.82 75.2301C193.061 75.2301 191.881 74.0909 191.881 72.3821C191.881 70.6835 193.061 69.5443 194.82 69.5443C196.57 69.5443 197.75 70.6835 197.75 72.3821C197.75 74.0909 196.57 75.2301 194.82 75.2301ZM194.82 74.0401C195.715 74.0401 196.316 73.3789 196.316 72.3821C196.316 71.3853 195.715 70.7242 194.82 70.7242C193.915 70.7242 193.315 71.3853 193.315 72.3821C193.315 73.3789 193.915 74.0401 194.82 74.0401ZM201.294 74.0401C201.61 74.0401 201.925 73.9892 202.24 73.857V74.9758C201.823 75.1488 201.335 75.2301 200.847 75.2301C199.84 75.2301 199.158 74.5385 199.158 73.501V70.775H198.253V69.646H199.158V68.0389H200.542V69.646H202.159V70.775H200.542V73.2162C200.542 73.7146 200.847 74.0401 201.294 74.0401ZM204.983 75.2301C204.149 75.2301 203.406 75.0165 202.908 74.5792L203.427 73.7451C203.945 74.0502 204.464 74.152 205.003 74.152C205.512 74.152 205.858 73.9384 205.858 73.6027C205.858 73.267 205.471 73.084 204.922 72.9416L204.464 72.8195C203.538 72.5754 202.908 72.2194 202.908 71.3548C202.908 70.2665 203.762 69.5443 205.064 69.5443C205.888 69.5443 206.59 69.7172 207.129 70.0834L206.549 70.9886C206.112 70.7445 205.644 70.6326 205.156 70.6326C204.657 70.6326 204.312 70.8157 204.312 71.131C204.312 71.4565 204.657 71.6091 205.135 71.7312L205.593 71.8634C206.529 72.1075 207.271 72.5347 207.271 73.501C207.271 74.5385 206.356 75.2301 204.983 75.2301Z" fill="white"/>
<defs>
<linearGradient id="paint0_linear_689_2653" x1="81.7063" y1="34.9002" x2="104.331" y2="12.2803" gradientUnits="userSpaceOnUse">
<stop stop-color="#22D869"/>
<stop offset="0.453125" stop-color="#5CEE20"/>
<stop offset="1" stop-color="#B6F509"/>
</linearGradient>
<clipPath id="clip0_689_2653">
<rect width="41.9393" height="44.7089" fill="white" transform="translate(142.101 0.851562)"/>
</clipPath>
</defs>
</svg>
