<svg width="263" height="44" viewBox="0 0 263 44" fill="none" xmlns="http://www.w3.org/2000/svg">
<g clip-path="url(#clip0_350_28213)">
<rect width="263" height="44" rx="22" fill="url(#paint0_linear_350_28213)"/>
<rect x="4" width="251" height="28" rx="14" fill="url(#paint1_linear_350_28213)"/>
<g filter="url(#filter0_f_350_28213)">
<rect x="13" y="11" width="20" height="7" rx="3.5" fill="white"/>
</g>
<rect x="237" y="7" width="15" height="11" rx="5.5" fill="white"/>
<rect x="234" y="18" width="6" height="5" rx="2.5" fill="url(#paint2_linear_350_28213)"/>
<path d="M75.9957 28.16C72.4117 28.16 70.0117 25.712 70.0117 22.048C70.0117 18.416 72.4117 16 75.9957 16C77.9317 16 79.3717 16.736 80.4597 17.92L79.6917 18.704C78.8597 17.744 77.6597 17.008 76.0437 17.008C73.1957 17.008 71.2917 19.024 71.2917 22.048C71.2917 25.104 73.1797 27.152 76.0117 27.152C77.7717 27.152 79.1157 26.32 79.9637 25.088L80.7957 25.856C79.7397 27.28 78.0597 28.16 75.9957 28.16ZM86.3771 28.16C83.7851 28.16 82.0411 26.4 82.0411 23.776C82.0411 21.136 83.7851 19.376 86.3771 19.376C88.9531 19.376 90.6811 21.136 90.6811 23.776C90.6811 26.4 88.9531 28.16 86.3771 28.16ZM86.3771 27.168C88.2331 27.168 89.4651 25.808 89.4651 23.776C89.4651 21.728 88.2331 20.384 86.3771 20.384C84.5051 20.384 83.2571 21.728 83.2571 23.776C83.2571 25.808 84.5051 27.168 86.3771 27.168ZM96.9337 19.376C99.0137 19.376 100.406 20.688 100.406 22.672V28H99.2537V22.896C99.2537 21.376 98.1817 20.384 96.5817 20.384C94.9657 20.384 93.8937 21.376 93.8937 22.896V28H92.7417V19.536H93.8617L93.8777 20.96C94.4377 19.968 95.4617 19.376 96.9337 19.376ZM107.106 19.376C109.186 19.376 110.578 20.688 110.578 22.672V28H109.426V22.896C109.426 21.376 108.354 20.384 106.754 20.384C105.138 20.384 104.066 21.376 104.066 22.896V28H102.914V19.536H104.034L104.05 20.96C104.61 19.968 105.634 19.376 107.106 19.376ZM120.541 23.664C120.541 23.808 120.541 24.064 120.525 24.192H113.773C113.917 26.032 114.909 27.232 116.589 27.232C117.725 27.232 118.669 26.672 119.325 25.792L120.205 26.288C119.389 27.504 118.093 28.16 116.589 28.16C114.173 28.16 112.541 26.4 112.541 23.76C112.541 21.136 114.141 19.376 116.557 19.376C118.941 19.376 120.541 21.088 120.541 23.664ZM116.557 20.304C114.925 20.304 113.885 21.488 113.773 23.376H119.341C119.245 21.488 118.189 20.304 116.557 20.304ZM126.267 28.16C123.707 28.16 121.979 26.4 121.979 23.76C121.979 21.136 123.723 19.376 126.331 19.376C127.419 19.376 128.299 19.696 129.067 20.304L128.411 21.104C127.803 20.608 127.147 20.384 126.331 20.384C124.443 20.384 123.195 21.728 123.195 23.776C123.195 25.808 124.459 27.168 126.347 27.168C127.227 27.168 128.059 26.864 128.651 26.256L129.323 27.04C128.555 27.776 127.483 28.16 126.267 28.16ZM134.189 27.168C134.781 27.168 135.341 27.072 135.885 26.864V27.808C135.325 28.048 134.637 28.16 133.837 28.16C132.477 28.16 131.549 27.216 131.549 25.824V20.496H130.077V19.536H131.549V17.056H132.701V19.536H135.757V20.496H132.701V25.6C132.701 26.528 133.309 27.168 134.189 27.168ZM154.817 28H153.601L153.089 18.256L148.577 28H147.825L143.329 18.256L142.801 28H141.601L142.305 16.048H143.569L148.209 26.08L152.833 16.048H154.113L154.817 28ZM164.885 23.664C164.885 23.808 164.885 24.064 164.869 24.192H158.117C158.261 26.032 159.253 27.232 160.933 27.232C162.069 27.232 163.013 26.672 163.669 25.792L164.549 26.288C163.733 27.504 162.437 28.16 160.933 28.16C158.517 28.16 156.885 26.4 156.885 23.76C156.885 21.136 158.485 19.376 160.901 19.376C163.285 19.376 164.885 21.088 164.885 23.664ZM160.901 20.304C159.269 20.304 158.229 21.488 158.117 23.376H163.685C163.589 21.488 162.533 20.304 160.901 20.304ZM169.845 27.168C170.437 27.168 170.997 27.072 171.541 26.864V27.808C170.981 28.048 170.293 28.16 169.493 28.16C168.133 28.16 167.205 27.216 167.205 25.824V20.496H165.733V19.536H167.205V17.056H168.357V19.536H171.413V20.496H168.357V25.6C168.357 26.528 168.965 27.168 169.845 27.168ZM175.983 19.376C178.047 19.376 179.391 20.688 179.391 22.672V28H178.271L178.239 26.224C177.647 27.456 176.447 28.16 175.103 28.16C173.439 28.16 172.319 27.184 172.319 25.696C172.319 24.16 173.695 23.12 175.775 23.12C176.559 23.12 177.439 23.216 178.239 23.408V22.816C178.239 21.28 177.263 20.304 175.711 20.304C174.703 20.304 173.983 20.64 173.391 21.248L172.863 20.544C173.631 19.792 174.623 19.376 175.983 19.376ZM175.423 27.296C176.767 27.296 178.239 26.192 178.239 24.224C177.487 24.048 176.655 23.952 175.919 23.952C174.479 23.952 173.519 24.64 173.519 25.664C173.519 26.656 174.239 27.296 175.423 27.296ZM191.61 19.376C193.61 19.376 194.938 20.688 194.938 22.672V28H193.786V22.896C193.786 21.376 192.826 20.384 191.386 20.384C189.946 20.384 188.986 21.376 188.986 22.896V28H187.834V22.896C187.834 21.376 186.874 20.384 185.45 20.384C184.01 20.384 183.05 21.376 183.05 22.896V28H181.898V19.536H183.018L183.034 20.88C183.546 19.936 184.49 19.376 185.802 19.376C187.146 19.376 188.17 20.032 188.666 21.104C189.178 20.048 190.186 19.376 191.61 19.376ZM200.404 19.376C202.468 19.376 203.812 20.688 203.812 22.672V28H202.692L202.66 26.224C202.068 27.456 200.868 28.16 199.524 28.16C197.86 28.16 196.74 27.184 196.74 25.696C196.74 24.16 198.116 23.12 200.196 23.12C200.98 23.12 201.86 23.216 202.66 23.408V22.816C202.66 21.28 201.684 20.304 200.132 20.304C199.124 20.304 198.404 20.64 197.812 21.248L197.284 20.544C198.052 19.792 199.044 19.376 200.404 19.376ZM199.844 27.296C201.188 27.296 202.66 26.192 202.66 24.224C201.908 24.048 201.076 23.952 200.34 23.952C198.9 23.952 197.94 24.64 197.94 25.664C197.94 26.656 198.66 27.296 199.844 27.296ZM208.752 28.16C207.552 28.16 206.496 27.856 205.84 27.264L206.32 26.544C207.024 27.056 207.872 27.232 208.752 27.232C209.952 27.232 210.752 26.672 210.752 25.808C210.752 25.008 210 24.56 208.976 24.272L208.064 24C206.736 23.632 205.824 23.104 205.824 21.84C205.824 20.352 207.008 19.376 208.8 19.376C209.936 19.376 210.864 19.616 211.68 20.144L211.184 20.928C210.464 20.48 209.696 20.304 208.88 20.304C207.76 20.304 207.008 20.832 207.008 21.664C207.008 22.448 207.664 22.8 208.576 23.056L209.488 23.328C210.768 23.68 211.936 24.32 211.936 25.712C211.936 27.184 210.704 28.16 208.752 28.16ZM220.295 28L216.871 24.032H215.159V28H214.007V15.52H215.159V23.072H216.871L220.119 19.536H221.575L217.831 23.536L221.767 28H220.295Z" fill="black"/>
<path d="M19.6643 50.5488C10.0318 49.7367 8 39.3818 8 39.3818C11.7627 43.95 15.1491 48.5185 19.6643 48.5185L245.425 48.5184C253.703 48.5184 258.218 32.2756 256.713 38.3667C255.208 44.4579 250.317 50.5487 245.425 50.5487C240.534 50.5487 31.7049 51.564 19.6643 50.5488Z" fill="#D9D9D9" fill-opacity="0.4"/>
<g clip-path="url(#clip1_350_28213)">
<path d="M39.3315 33.1469C39.4091 33.42 39.8156 34.803 39.827 34.8926C39.8693 35.2168 39.8396 35.5886 39.6923 35.8776C39.1305 36.2721 36.2784 36.2302 35.8822 35.9672C35.7417 35.8742 35.6333 35.6305 35.5887 35.4752C35.5168 35.2224 35.5339 34.8517 35.4985 34.5797C35.4198 33.9698 35.4038 33.352 35.3181 32.7444C35.1663 31.6607 34.9414 30.585 34.5292 29.5659C33.6454 29.7937 32.7377 29.906 31.8243 29.8788C31.4818 30.7958 32.305 31.96 32.7491 33.1911C32.8519 33.4779 33.2218 34.4584 33.2447 34.6239C33.2755 34.8495 33.2527 35.21 33.1545 35.4299C32.8736 36.0624 31.0696 36.1418 30.5398 35.4299C30.4713 35.338 30.2098 34.7509 30.1345 34.5797C30.0557 34.4017 29.9849 34.1467 29.9095 33.9528C29.7246 33.4801 29.1126 31.731 29.0532 31.3785C28.9116 30.5464 29.1822 29.1261 28.7152 29.431C28.6627 29.465 28.4629 30.5782 28.4675 30.6621C28.4778 30.8366 29.132 33.3894 29.2336 34.0866C29.2587 34.2612 29.3067 34.4527 29.3238 34.6239C29.3478 34.854 29.3969 35.2814 29.3683 35.4741C29.253 36.2517 27.1522 36.5748 26.6635 35.6532C26.6384 35.6056 26.4168 34.9776 26.3929 34.8926C26.1611 34.0571 26.0275 32.4236 25.7843 31.4907C25.2671 33.0176 22.77 34.2147 21.2754 34.0424C19.3572 33.8213 17.4071 31.3966 18.5477 29.4095C18.6779 29.1828 19.4828 28.1954 19.6301 28.8279C19.6495 28.9141 19.3275 30.4558 20.2387 30.1486C21.2537 29.8062 20.056 27.844 19.9007 27.216C19.2568 24.6133 20.4739 21.53 23.5304 21.598C23.5715 21.5992 24.1379 21.8678 24.1847 21.4416C24.2075 21.2341 23.8319 21.2081 24.0043 20.9043C23.0258 19.9691 22.6387 18.3209 23.7565 17.3449C23.8752 18.4932 24.606 19.0724 25.6724 18.3968C25.7443 18.2381 24.2292 16.947 24.8606 15.1741C24.9474 14.9315 25.6461 13.9079 25.8071 14.1448C25.4657 16.0265 27.5255 16.09 28.1067 14.4576C27.7938 12.7414 28.4823 10.8177 30.3617 10.4731C29.9438 9.97323 29.7029 9.38604 30.0466 8.77164C30.678 7.6426 30.5672 9.60709 31.0616 9.64449C32.917 8.51886 36.2418 8.34769 37.6896 10.226C38.0436 9.92335 38.3655 9.80773 38.8165 10.0027C38.8611 10.4947 38.8611 10.4947 38.9067 10.9878C40.2084 9.53227 40.8569 8.35562 41.0259 10.7191C42.243 10.548 43.008 9.93695 42.6267 10.9651C42.7363 11.1737 43.1016 10.1875 43.8221 10.0469C44.3747 9.14799 44.796 9.21827 45.3555 8.34542C45.5702 8.22186 45.5702 8.22186 45.7837 8.09943C46.7416 6.37867 48.3983 6.96133 47.0465 8.63675C47.0522 9.50733 46.3808 9.70571 46.3249 9.84514C46.3557 10.5434 46.0577 10.786 45.5131 11.1431C45.4822 11.6815 45.3818 12.0624 44.9719 12.441C46.6012 12.9353 45.4046 14.3726 45.3772 14.5007C45.2596 15.0652 46.2564 14.8657 44.6556 15.4858C45.5473 16.7656 45.6672 18.9477 45.9629 19.3807C46.1445 19.646 47.0944 19.8795 46.7747 21.6638C46.3215 24.1962 42.8185 24.8752 41.8377 22.6262C40.5783 22.3598 39.3543 21.9313 38.208 21.3509C38.3541 24.1712 40.0657 26.1674 38.1178 28.8722C38.1178 28.9617 38.1178 28.9617 38.1178 29.0513C38.3667 30.4592 38.9433 31.782 39.3315 33.1469Z" fill="#111415"/>
<path d="M46.2304 8.74848C46.227 8.75528 46.1117 8.70654 46.1402 8.8607C46.1939 8.91171 46.2247 8.79269 46.2304 8.79382C46.8561 8.90038 46.0797 9.71655 45.6892 9.33114C45.6892 9.37535 45.6892 9.37534 45.6892 9.42069C45.6744 9.48077 45.6515 9.45923 45.6447 9.4649C45.4506 9.6202 45.1823 9.73809 44.9688 9.86732C45.0167 9.644 45.4095 8.8573 45.5545 8.70314C45.599 8.72581 45.599 8.72581 45.6447 8.74735C45.6607 8.8675 45.6333 9.00467 45.6447 9.12823C45.6892 9.12823 45.6892 9.12823 45.7349 9.12823C45.9427 8.87657 45.8068 8.85957 45.8251 8.81536C46.316 7.59677 46.6118 8.00599 46.2304 8.74848Z" fill="#F4C66B"/>
<path d="M40.1869 12.8671C40.1196 12.8671 40.1196 12.8671 40.0522 12.8671C40.1424 12.3694 39.8387 11.6938 40.2326 10.7858C40.1275 10.8176 39.4779 11.9988 39.511 11.3231C39.5178 11.1769 40.3045 10.3789 40.4358 10.1816C40.5968 11.0035 40.2155 12.0396 40.1869 12.8671Z" fill="#C6D7CE"/>
<path d="M42.3524 11.3451C41.8911 11.6035 41.6353 12.2667 41.3602 12.7099C41.3362 12.9389 41.4047 12.9015 41.4047 12.9117C41.0153 13.6009 41.3316 14.1461 41.0211 14.0305C40.6557 13.8945 40.3657 12.7541 40.8178 11.9493C41.1558 11.3496 42.3387 10.8123 42.3524 11.3451Z" fill="#AE6EAE"/>
<path d="M41.4052 12.9123C41.404 12.9021 41.3366 12.9395 41.3606 12.7105C41.6358 12.2662 41.8916 11.603 42.3528 11.3457C42.3551 11.4183 41.9087 12.1415 41.8573 12.7105C41.7739 13.6162 42.2478 14.7124 41.7226 13.8747C41.6175 13.7115 41.4234 13.0959 41.4052 12.9123Z" fill="#58396F"/>
<path d="M43.8855 13.9395C44.2737 15.0424 42.923 16.3857 41.7207 15.3496C41.7298 15.3145 42.0712 15.2442 42.3966 15.0583C42.9424 14.7488 43.4379 14.3747 43.8855 13.9395Z" fill="#AE6EAE"/>
<path d="M43.8854 13.9398C43.4379 14.374 42.9423 14.7481 42.3977 15.0587C41.1771 14.5667 41.8873 14.7469 42.3749 14.6109C43.753 14.2278 43.5657 13.033 43.8854 13.9398Z" fill="#744C8C"/>
<path d="M31.6208 17.6141C29.9184 20.1975 28.7162 18.9166 26.3904 20.2995C25.5728 20.4378 24.9414 20.8573 24.8353 20.8369C24.6229 20.7133 23.4389 18.9517 23.7528 18.9121C24.841 19.7906 25.6356 19.0039 26.0079 18.9563C26.3081 18.9189 26.7409 19.0912 27.0001 19.0458C27.257 19.0016 28.1476 18.0007 29.1649 18.2398C29.7004 17.2865 30.8924 17.2332 31.3514 16.4941C31.5775 16.4964 31.2418 17.0031 31.171 17.0983C30.7154 17.7161 29.4206 18.4121 28.8258 19.0231C28.892 19.1671 31.1048 18.2954 31.6208 17.6141Z" fill="#F0B15A"/>
<path d="M32.5678 16.1341C32.5267 16.693 31.8759 19.3467 31.3724 19.4918C31.2262 19.5337 30.7295 19.4498 30.5606 19.4918C30.4795 19.5122 30.0125 19.9622 29.7944 20.0733C28.6743 20.6458 28.019 20.02 26.3896 20.2966C28.7154 18.9137 29.9177 20.1946 31.6201 17.6112C31.909 17.1725 31.9832 16.99 32.2059 16.5365C32.3178 16.3132 32.4787 15.9403 32.5678 16.1341Z" fill="#C8724C"/>
<path d="M33.6957 12.8673C33.247 13.2981 32.6475 14.0701 32.4329 14.6357C32.3107 14.9588 32.0184 16.2488 32.208 16.5378C31.9842 16.9913 31.9111 17.1738 31.6222 17.6125C31.1061 18.2938 28.8934 19.1666 28.8271 19.0226C29.4209 18.4116 30.7168 17.7156 31.1724 17.0978C31.2432 17.0015 31.5788 16.4959 31.3528 16.4936C31.733 15.8815 31.6645 15.0177 31.8483 14.3444C32.047 14.7207 32.2274 14.0927 32.4797 13.7844C32.7389 13.4693 33.1077 13.1745 33.2915 12.8662C33.4799 12.8401 33.4993 12.8322 33.6957 12.8673Z" fill="#F4C66B"/>
<path d="M34.4608 13.3149C33.7426 13.9668 33.3761 14.0869 32.9274 15.0164C32.7562 15.3712 32.5757 15.7385 32.5666 16.1353C32.4764 15.9414 32.3166 16.3144 32.2058 16.5377C32.0163 16.2475 32.3086 14.9586 32.4307 14.6356C32.6454 14.0699 33.2437 13.2979 33.6935 12.8672C34.1297 12.9431 34.1697 13.0497 34.4608 13.3149Z" fill="#F0B15A"/>
<path d="M32.9283 15.0159C33.3759 14.0864 33.7435 13.9674 34.4617 13.3145C34.5405 13.3859 34.9219 13.6931 34.9127 13.7849C34.1146 14.5024 33.4433 15.364 32.8838 16.247C32.9066 15.6315 32.9066 15.6315 32.9283 15.0159Z" fill="#C8724C"/>
<path d="M36.0856 11.8373C35.4097 12.4641 35.4096 12.4641 34.7326 13.091C34.6332 13.0332 34.4848 12.9845 34.3946 12.9119C33.8043 12.4426 33.7678 12.2306 34.0795 11.9722C34.5956 11.5414 35.5273 11.4213 36.0856 11.8373Z" fill="#F0B15A"/>
<path d="M34.7334 13.0916C35.4093 12.4648 35.4093 12.4648 36.0864 11.8379C36.9222 12.4614 36.0259 12.7493 35.342 13.4045C35.2312 13.4226 34.8476 13.1585 34.7334 13.0916Z" fill="#C8724C"/>
<path d="M33.2889 12.8672C33.1051 13.1755 32.7363 13.4691 32.4771 13.7854C32.2248 14.0926 32.0444 14.7217 31.8457 14.3454C32.0558 13.5779 32.4645 12.9851 33.2889 12.8672Z" fill="#F0B15A"/>
<path d="M42.713 12.0156C42.7312 12.808 43.0133 13.4405 42.3076 13.4485C42.1992 13.0041 42.2825 12.0791 42.713 12.0156Z" fill="#F4C66B"/>
<path d="M44.877 11.2088C44.6121 11.4525 44.4077 11.8061 44.0207 11.8798C43.9899 11.7846 43.9122 11.5273 43.9305 11.4547C43.9693 11.304 44.732 10.956 44.8553 11.0296C44.9056 11.0603 44.861 11.1645 44.877 11.2088Z" fill="#ECD57F"/>
<path d="M42.7137 12.0158C42.2833 12.0793 42.1999 13.0043 42.3084 13.4487C41.5057 13.4577 42.4614 11.7834 42.7366 11.4785C42.7617 11.4865 42.708 11.771 42.7137 12.0158Z" fill="#D19D54"/>
<path d="M45.6446 9.46484C45.5658 9.62241 45.9792 9.84459 45.6892 10.383C45.6081 10.5338 45.1845 10.9272 45.0132 10.5395C45.7885 10.2855 45.9529 9.21886 44.9687 10.0475C44.9755 9.99082 44.9573 9.92054 44.9687 9.8684C45.1822 9.73803 45.4505 9.62014 45.6446 9.46484Z" fill="#C8724C"/>
<path d="M31.3953 11.1198C31.4638 11.1493 32.126 12.1661 32.2516 12.3282C30.1553 13.3813 31.5083 16.2095 28.7121 17.0291C28.2759 17.1595 26.69 16.9123 27.8774 17.2751C26.9355 17.4803 27.4584 17.5811 27.3819 17.7228C27.2415 17.9802 26.4491 17.7342 26.2093 17.656C25.7651 17.2195 25.4203 16.7604 25.353 16.112C25.2513 15.1406 25.458 15.9148 25.8268 16.1347C26.545 16.5621 27.447 16.3025 28.0361 15.7765C29.2339 14.7075 28.5579 13.9526 28.8251 12.8224C29.8162 15.5464 29.364 13.8619 29.8173 12.666C30.1964 11.6662 31.1555 11.5755 29.4565 11.7036C30.0548 11.0756 30.9933 10.9452 31.3953 11.1198Z" fill="#AE6EAE"/>
<path d="M32.2513 12.3301C32.2627 12.3233 32.2855 12.3369 32.2958 12.3301C30.7635 13.6824 31.4223 15.4519 30.4473 16.7397C29.4973 17.9934 28.2151 17.3155 27.0882 18.2836C26.7262 18.1895 26.4625 17.9061 26.209 17.6567C26.4476 17.7361 27.24 17.9809 27.3816 17.7236C27.4592 17.5819 26.9352 17.481 27.8771 17.2759C26.6885 16.912 28.2756 17.1602 28.7118 17.0299C31.508 16.2103 30.155 13.382 32.2513 12.3301Z" fill="#58396F"/>
<path d="M28.8252 12.8205C28.9234 12.4045 29.162 12.01 29.4566 11.7017C31.1556 11.5736 30.1965 11.6643 29.8174 12.6641C29.3641 13.86 29.8163 15.5445 28.8252 12.8205Z" fill="#C27FB6"/>
<path d="M34.8225 9.50893C34.7723 9.76852 34.9013 9.73111 35.1833 9.95669C35.8159 10.4611 35.9141 10.4985 36.6711 10.6731C35.6515 10.774 34.7186 10.3795 33.7173 10.6731C33.3736 10.774 32.8473 11.1719 32.5002 11.2104C32.3026 11.232 31.589 11.1209 31.4406 11.0313C31.2453 10.9134 30.9302 10.2219 31.0124 10.1811C31.6758 10.5201 31.7557 10.1097 32.0948 10.002C33.2514 9.63589 33.6842 9.8524 33.763 9.82293C33.924 9.76285 33.53 9.39217 34.8225 9.50893Z" fill="#AE6EAE"/>
<path d="M36.6713 10.6733C36.7741 10.6971 36.8906 10.6948 37.0321 10.7628C37.0344 10.7696 37.1337 10.7855 37.1223 10.875C36.5183 12.0234 36.6907 11.0746 35.6574 10.9419C34.2542 10.7617 33.3864 11.7955 32.9526 12.0608C32.8989 12.0936 32.4296 12.2523 32.2983 12.3294C32.2869 12.3362 32.2641 12.3226 32.2538 12.3294C32.1282 12.1662 31.4648 11.1505 31.3975 11.121C31.4203 11.0768 31.4203 11.0768 31.442 11.0315C31.5904 11.121 32.304 11.2321 32.5016 11.2106C32.8487 11.172 33.375 10.7742 33.7187 10.6733C34.7189 10.3797 35.6529 10.7742 36.6713 10.6733Z" fill="#58396F"/>
<path d="M36.4007 10.09C36.6542 10.2645 36.9259 10.4663 37.0321 10.761C36.8906 10.693 36.7741 10.6953 36.6713 10.6715C35.9143 10.4969 35.8161 10.4595 35.1836 9.95508C35.7922 10.0231 35.7922 10.0231 36.4007 10.09Z" fill="#58396F"/>
<path d="M36.4011 10.0913C35.7925 10.0244 35.7925 10.0244 35.1839 9.95753C34.9019 9.73308 34.7729 9.76935 34.8231 9.50977C35.3449 9.55624 35.974 9.79656 36.4011 10.0913Z" fill="#AE6EAE"/>
<path d="M45.0129 10.5383C44.885 10.2504 44.9364 10.3173 44.9684 10.0463C45.9526 9.21768 45.7882 10.2844 45.0129 10.5383Z" fill="#ECD57F"/>
<path d="M44.7427 9.95753C44.6023 10.3055 44.3145 10.6705 43.9766 10.853C44.0234 10.598 44.4824 9.70361 44.6525 9.57778C44.8215 9.45082 44.7084 9.58571 44.7427 9.95753Z" fill="#C38542"/>
<path d="M44.876 11.209C45.0165 11.5808 44.9594 11.6352 44.6728 11.8801C44.0619 12.4049 44.0893 12.0966 44.0186 11.8801C44.4068 11.8075 44.6111 11.4538 44.876 11.209Z" fill="#C8724C"/>
<path d="M46.8848 7.49615C47.2113 7.50636 46.8482 8.39961 46.6598 8.43588C46.2739 8.5107 46.6005 7.48709 46.8848 7.49615Z" fill="#ECD57F"/>
<path d="M44.787 10.5397C44.3588 10.831 44.3588 10.831 43.9307 11.1212C43.9307 11.1076 43.9672 10.899 43.9752 10.8526C44.3132 10.67 44.6009 10.305 44.7413 9.95703C44.7596 10.152 44.7733 10.3458 44.787 10.5397Z" fill="#F4C66B"/>
<path d="M42.9844 13.0012C43.352 12.9003 43.5952 12.5942 43.8407 12.3301C44.0965 12.9105 43.4536 13.4818 43.1419 13.3594C43.0415 13.3197 43.0129 13.0839 42.9844 13.0012Z" fill="#B26633"/>
<path d="M43.7497 11.7932C43.366 12.0392 43.366 12.0392 42.9835 12.2852C42.9847 12.2693 42.9321 12.2659 42.9835 11.9724C43.4105 11.7638 43.43 11.2038 43.7051 10.8535C43.7462 11.1766 43.7519 11.469 43.7497 11.7932Z" fill="#ECD57F"/>
<path d="M43.8399 12.331C43.5944 12.5951 43.3512 12.9011 42.9836 13.002C42.866 12.662 42.9402 12.645 42.9391 12.5543C43.0841 12.5282 43.1857 12.4069 43.2999 12.331C43.5328 12.2958 43.7143 12.0442 43.8399 12.331Z" fill="#ECD57F"/>
<path d="M43.706 10.8538C43.4308 11.2052 43.4114 11.7641 42.9844 11.9727C43.046 11.619 43.078 11.3832 43.255 11.0545C43.7414 10.1499 43.6774 10.6317 43.706 10.8538Z" fill="#D19D54"/>
<path d="M43.2991 12.3303C43.185 12.4062 43.0833 12.5287 42.9383 12.5536C42.9303 12.2317 42.9829 12.2985 42.9829 12.2849C43.3665 12.039 43.3665 12.039 43.749 11.793C43.749 11.8077 43.8221 11.8905 43.7935 12.0843C43.5811 12.0945 43.4613 12.2215 43.2991 12.3303Z" fill="#B26633"/>
<path d="M42.8937 13.4492C43.0125 13.8641 42.5774 14.2348 42.2178 13.897C42.5557 13.6725 42.5557 13.6725 42.8937 13.4492Z" fill="#C8724C"/>
<path d="M43.9307 11.1206C44.3588 10.8293 44.3588 10.8293 44.787 10.5391C44.7893 10.5651 44.8452 10.7805 44.8772 10.8304C44.8429 10.8859 44.8429 10.8859 44.8098 10.9426C44.0996 11.0163 43.9398 11.5479 43.9307 11.1206Z" fill="#C38542"/>
<path d="M42.8933 13.4481C42.5553 13.6714 42.5553 13.6714 42.2173 13.8958C42.1134 13.7984 41.9901 13.6295 42.1043 13.5376C42.7951 13.5841 42.7814 13.057 42.8933 13.4481Z" fill="#F0B15A"/>
<path d="M45.013 13.3594C44.546 13.2733 44.828 13.7789 44.9684 13.9863C44.9342 14.1495 44.6293 14.3581 44.9239 14.8592C44.6419 14.8705 44.6419 14.8705 44.3599 14.8818C44.651 13.7959 43.9956 13.2563 44.4501 13.1361C44.6898 13.0715 44.9228 13.1157 45.013 13.3594Z" fill="#C6D7CE"/>
<path d="M45.012 13.3594C45.1182 13.6485 45.02 13.7357 44.9674 13.9863C44.827 13.7788 44.545 13.2732 45.012 13.3594Z" fill="#C6E5D0"/>
<path d="M46.2295 8.74806C46.2295 8.77073 46.2295 8.77073 46.2295 8.79227C46.2238 8.79114 46.193 8.91016 46.1393 8.85915C46.1108 8.70725 46.2261 8.75486 46.2295 8.74806Z" fill="#623013"/>
<path d="M45.6439 8.74704C45.5994 8.72437 45.5994 8.72437 45.5537 8.70283C45.5571 8.6983 45.5571 8.65976 45.6211 8.61328C45.6633 8.64049 45.6371 8.69603 45.6439 8.74704Z" fill="#988A70"/>
<path d="M45.6883 9.33008C45.6849 9.35842 45.694 9.39356 45.6883 9.41963C45.6883 9.37429 45.6883 9.37429 45.6883 9.33008Z" fill="#8B6027"/>
<path d="M23.5945 22.3572C19.9991 23.925 21.8077 26.7283 21.5656 29.1394C21.553 29.2675 21.4571 29.7481 21.3407 29.7436C21.5211 28.5681 20.6054 27.5875 20.4387 26.4528C20.1315 24.358 21.2767 22.1895 23.6174 22.2677C23.606 22.3119 23.606 22.3119 23.5945 22.3572Z" fill="#E8ADCE"/>
<path d="M24.6764 28.9373C24.9493 30.6468 24.8362 32.1023 22.9854 32.787C21.7306 33.2517 21.0113 33.0375 19.8512 32.4741C19.0737 31.7293 18.7677 31.1693 18.9492 30.0346C18.9938 30.0346 18.9938 30.0346 19.0394 30.0346C19.0463 30.1446 19.1171 30.2784 19.1742 30.3702C19.3146 31.5071 19.922 32.2145 21.1129 32.295C22.628 32.397 24.1523 31.4017 24.4949 29.8997C24.5965 29.4554 24.5234 28.8013 24.6753 28.7129C24.7289 28.8262 24.6753 28.926 24.6764 28.9373Z" fill="#AE6EAE"/>
<path d="M23.5946 22.3574C23.5797 22.5184 23.4199 22.6964 23.4142 22.7156C20.2069 24.7674 22.9552 26.6083 22.6926 29.1838C22.6104 29.9898 22.2621 30.6042 21.4298 30.7277C22.7542 29.1883 22.1765 28.3699 21.9253 26.7432C21.9002 26.5811 21.9139 24.8127 21.5417 25.2208C21.3773 25.4011 21.6581 26.5482 21.6992 26.8328C21.77 27.3111 21.9253 27.794 21.9242 28.2871C21.923 29.0206 21.633 30.586 20.7972 30.7266C20.7584 30.713 20.7436 30.6846 20.707 30.6824C21.0827 30.5157 21.2791 30.1269 21.3384 29.7426C21.4549 29.7472 21.5508 29.2665 21.5634 29.1385C21.8077 26.7285 19.9991 23.9252 23.5946 22.3574Z" fill="#AE6EAE"/>
<path d="M19.8525 32.4752C21.0126 33.0397 21.7308 33.2528 22.9867 32.7881C24.8375 32.1034 24.9506 30.6467 24.6777 28.9384C24.809 28.9067 25.1002 29.6911 25.1287 29.8113C25.5226 31.4924 24.5133 32.4899 23.0324 33.0567C21.6919 33.5691 20.879 33.4569 19.8525 32.4752Z" fill="#58396F"/>
<path d="M24.6765 28.7129C24.5246 28.8013 24.5977 29.4554 24.4961 29.8997C24.1536 31.4017 22.6293 32.397 21.1141 32.295C20.6414 32.0116 20.6472 32.0218 20.2578 31.6681C22.0573 32.6872 23.8635 31.319 24.181 29.4746C24.592 29.164 24.5269 28.3875 24.6765 28.7129Z" fill="#221A38"/>
<path d="M19.3563 30.5944C19.4739 30.7656 19.5356 30.8676 19.6715 31.0422C19.8713 31.2961 20.0186 31.4514 20.2572 31.669C20.6466 32.0216 20.642 32.0125 21.1135 32.2959C19.9227 32.2154 19.3152 31.5081 19.1748 30.3711C19.2296 30.4538 19.3004 30.5128 19.3563 30.5944Z" fill="#58396F"/>
<path d="M23.2794 23.2541C23.1995 22.7723 22.9278 23.5772 22.8741 23.7688C22.3637 25.5757 23.2246 27.3792 23.0773 29.2076C23.4541 28.1058 23.5181 26.9994 23.4153 25.85C23.5078 26.0495 23.5717 26.2683 23.6402 26.4769C23.622 27.4279 23.9862 28.3631 23.8652 29.3414C23.7658 29.7245 23.8252 29.6395 23.8206 29.6543C23.4221 30.7527 22.4425 31.774 21.1831 31.6244C20.4638 31.5383 19.5504 30.7005 19.6726 31.0429C19.5355 30.8694 19.475 30.7663 19.3574 30.5951C19.7148 30.8774 20.3131 30.8615 20.7104 30.6847C20.747 30.6881 20.7618 30.7153 20.8006 30.7289C20.8851 30.7595 21.3316 30.7436 21.432 30.7289C22.2644 30.6053 22.6126 29.9909 22.6948 29.185C22.9563 26.6095 20.2092 24.7674 23.4164 22.7168C23.3616 22.8846 23.3137 23.0807 23.2794 23.2541Z" fill="#EEC193"/>
<path d="M23.2788 23.2549C23.0151 24.5858 23.353 25.1707 23.4136 25.8508C23.5163 27.0003 23.4524 28.1066 23.0756 29.2085C23.224 27.38 22.362 25.5765 22.8724 23.7696C22.9272 23.578 23.1989 22.7732 23.2788 23.2549Z" fill="#A97F65"/>
<path d="M24.1811 29.4766C23.8637 31.3209 22.0574 32.6891 20.2579 31.67C20.0182 31.4535 19.872 31.2971 19.6722 31.0432C19.55 30.7008 20.4635 31.5397 21.1828 31.6247C22.4433 31.7743 23.4218 30.753 23.8203 29.6545C23.9059 29.5468 24.1651 29.489 24.1811 29.4766Z" fill="#A97F65"/>
<path d="M23.8662 29.3411C23.9861 28.3628 23.623 27.4276 23.6413 26.4766C24.1071 27.8845 24.2533 27.8539 23.8662 29.3411Z" fill="#D49E77"/>
<path d="M21.4302 30.7295C21.3298 30.7442 20.8833 30.7601 20.7988 30.7295C21.6346 30.5889 21.9246 29.0223 21.9258 28.29C21.9269 27.7958 21.7705 27.3129 21.7008 26.8356C21.8139 26.7914 21.8139 26.7914 21.9258 26.7461C22.177 28.3705 22.7547 29.1901 21.4302 30.7295Z" fill="#58396F"/>
<path d="M21.926 26.7435C21.8129 26.7877 21.8129 26.7877 21.701 26.8331C21.6588 26.5485 21.3791 25.4014 21.5435 25.2211C21.9157 24.813 21.902 26.5814 21.926 26.7435Z" fill="#9C59A3"/>
<path d="M39.3767 12.3724C39.4213 12.6966 39.4213 12.6966 39.4669 13.0219C39.1564 12.9517 39.2226 12.4359 39.0616 12.6864C39.0959 12.1083 38.8378 11.4032 39.3767 12.3724Z" fill="#7C8983"/>
<path d="M39.0165 13.0449C38.9742 13.402 38.7984 14.0889 38.6111 14.3882C38.2058 15.0343 37.4659 15.3302 37.0332 14.522C37.4123 14.9425 37.4557 14.7861 37.4842 14.7906C38.2001 14.8972 38.4581 13.9847 38.5666 13.4031C39.0644 13.7081 38.7893 13.1594 39.0165 13.0449Z" fill="#0F2316"/>
<path d="M38.6558 12.5524C38.6615 12.8415 38.6182 13.1203 38.5656 13.4026C38.4572 13.9841 38.2003 14.8966 37.4832 14.7901C37.1807 14.2221 37.0436 13.7789 37.0322 13.1339C37.1213 13.33 37.1396 13.8141 37.3474 13.8945C37.5472 14.4693 37.8063 14.7651 38.1135 14.051C38.3966 13.3924 38.1866 12.6839 38.069 12.0139C38.0324 11.8031 38.1089 11.5072 37.8886 11.3871C37.9023 11.3723 37.8749 11.2907 38.1363 11.0742C38.5588 11.6331 38.4983 12.252 38.5645 12.5286C38.5736 12.5637 38.625 12.5535 38.6558 12.5524Z" fill="#7C8983"/>
<path d="M38.6552 12.5526C38.6244 12.5526 38.573 12.5639 38.565 12.5299C38.4988 12.2522 38.5593 11.6333 38.1369 11.0756C37.8754 11.2921 37.9016 11.3737 37.8891 11.3884C37.7715 11.5199 37.6573 11.6276 37.574 11.7908C37.4838 11.7013 37.4838 11.7013 37.3936 11.6117C37.5979 11.2048 37.8446 10.8069 38.2282 10.5371C38.4063 11.1934 38.6404 11.8679 38.6552 12.5526Z" fill="#C6D7CE"/>
<path d="M37.573 11.7924C37.3777 12.1721 37.3652 12.298 37.3024 12.6879C37.2133 13.2366 37.1574 13.351 37.3469 13.8963C37.1391 13.8158 37.1197 13.3306 37.0318 13.1357C37.0192 12.4317 37.0809 12.2311 37.3926 11.6133C37.4828 11.7028 37.4828 11.7028 37.573 11.7924Z" fill="#BBBEBC"/>
<path d="M37.3475 13.8951C37.1579 13.3487 37.2139 13.2353 37.303 12.6867C37.5073 12.409 37.7254 12.1199 38.0691 12.0156C38.1867 12.6856 38.3979 13.394 38.1136 14.0527C37.8076 14.7657 37.5484 14.4698 37.3475 13.8951Z" fill="#0F2316"/>
<path d="M38.0689 12.0155C37.724 12.1198 37.5071 12.41 37.3027 12.6866C37.3655 12.2967 37.3781 12.1708 37.5733 11.7911C37.6578 11.6279 37.7709 11.5202 37.8885 11.3887C38.1088 11.5088 38.0323 11.8047 38.0689 12.0155Z" fill="#636765"/>
<path d="M35.184 16.1793C35.2513 17.3265 34.8506 18.4136 36.1305 20.2534C36.1454 20.2976 36.1591 20.3429 36.175 20.3871C36.7722 22.0433 38.1024 24.0168 37.8432 26.5424C37.8021 26.9426 37.6285 27.2226 37.5726 27.4606C37.56 27.5139 37.4995 27.583 37.4824 27.6397C37.3568 27.6182 37.3556 27.6612 37.302 27.7519C37.0188 28.2303 36.529 29.7697 36.4228 29.7436C36.0871 29.1768 35.7606 27.634 35.6338 27.3937C35.1748 26.522 34.7398 27.6363 32.8605 27.9979C29.2479 28.6939 28.2991 26.5991 28.0581 26.7C27.8344 26.9607 26.7885 29.4602 26.4802 28.9161C26.4597 28.881 26.4494 28.3969 26.3455 28.1101C26.0326 27.2498 24.7401 26.2556 25.0827 23.8128C25.3498 21.9118 26.8741 21.3937 28.6222 21.5524C29.9524 21.6726 32.253 23.2256 32.9963 22.9399C34.0342 22.5409 33.0911 18.6199 34.2363 16.6497C34.4395 16.3006 35.1315 15.294 35.184 16.1793Z" fill="#C6D7CE"/>
<path d="M36.3106 14.2989C36.1644 14.1583 35.6015 15.3712 35.4542 15.709C35.3914 15.853 35.4257 16.2237 35.1836 16.1795C35.1322 15.2941 34.4403 16.3008 34.2371 16.6499C33.0919 18.6189 34.035 22.5399 32.9971 22.9401C32.2538 23.2258 29.9543 21.6728 28.623 21.5526C26.8749 21.3939 25.3506 21.9119 25.0835 23.8129C24.7409 26.2558 26.0334 27.2499 26.3463 28.1103C26.4502 28.3971 26.4616 28.88 26.481 28.9163C26.7893 29.4604 27.8351 26.962 28.0589 26.7002C28.0258 26.8589 28.1297 26.8124 28.1491 26.8793C28.1389 27.5435 27.9539 28.1659 27.834 28.8041C27.7427 29.2881 27.4606 30.3514 27.4732 30.7957C27.4755 30.874 27.5394 30.8864 27.5634 30.9522C27.5919 31.0281 27.4858 31.0655 27.5406 31.0859C27.6011 31.1086 27.8351 30.9034 27.8557 30.9068C28.003 30.9318 28.3455 33.3792 28.4643 33.7045C27.6525 33.7045 27.6525 33.7045 26.8407 33.7045C26.7071 33.0708 26.6397 32.4066 26.4799 31.7797C25.7731 28.9945 24.2089 26.5562 23.9542 25.1993C23.3662 22.0627 25.6144 20.2966 28.6207 21.0584C29.2041 21.2057 31.4763 22.4198 31.8222 22.2225C32.0689 22.0808 32.3703 19.4918 32.6112 18.6631C33.1604 16.7735 34.6287 14.6605 36.2637 13.5371C36.2603 13.7763 36.3186 14.0699 36.3106 14.2989Z" fill="url(#paint3_linear_350_28213)"/>
<path d="M37.4833 27.6394C37.312 28.1903 37.3622 28.7752 37.3485 29.3409C37.3371 29.8057 37.328 30.3112 37.3485 30.7737C37.3908 31.7577 37.5232 32.7371 37.7093 33.7063C36.8975 33.7063 36.8975 33.7063 36.0857 33.7063C35.9464 31.6171 35.3961 29.5948 34.598 27.6632C34.5101 27.5839 34.4381 27.7924 34.4176 27.8196C33.6241 28.8931 31.2743 28.8739 30.0663 28.6256C29.4189 28.4918 28.8389 28.1733 28.2406 27.9092C28.2132 27.6462 28.2177 27.1044 28.1504 26.8799C28.131 26.813 28.0271 26.8595 28.0602 26.7008C28.3011 26.5999 29.2499 28.6948 32.8625 27.9987C34.7419 27.6371 35.1757 26.5228 35.6359 27.3946C35.7626 27.6349 36.0892 29.1788 36.4248 29.7444C36.531 29.7694 37.0208 28.2311 37.304 27.7528C37.3565 27.6598 37.3577 27.6179 37.4833 27.6394Z" fill="#A2AFA8"/>
<path d="M29.7059 29.6543C30.4161 29.7779 30.4161 29.7779 31.1263 29.9003C30.8762 31.1529 31.7542 32.3341 32.163 33.4812C32.1402 33.7318 30.7038 33.8848 30.5394 33.7046C30.1717 32.3828 29.3885 31.0747 29.7059 29.6543Z" fill="#7C8983"/>
<path d="M28.2394 27.9079C28.8377 28.172 29.4177 28.4906 30.0651 28.6243C31.2731 28.8726 33.6229 28.8919 34.4164 27.8184C34.4724 28.3557 34.4724 28.3557 34.5294 28.893C32.585 29.3816 30.1073 29.3838 28.3068 28.4452C28.1812 28.3534 28.2622 28.1188 28.2394 27.9079Z" fill="#899A92"/>
<path d="M37.3472 20.9251C37.3541 20.933 37.4226 20.8979 37.5276 21.0373C37.4511 23.5493 39.2826 26.0353 37.6407 28.3568C37.6064 27.909 37.6064 27.909 37.5733 27.4613C37.6281 27.2232 37.8028 26.9444 37.8439 26.5431C38.1031 24.0175 36.7729 22.0439 36.1758 20.3878C36.4852 20.1928 37.5505 23.2807 37.5733 22.2004C37.579 21.9442 37.4671 21.1711 37.3472 20.9251Z" fill="#899A92"/>
<path d="M37.7539 31.6689C37.6751 31.0353 37.7082 30.3665 37.6191 29.7441C37.8281 31.1169 38.4549 32.4103 38.7689 33.7286C38.6387 33.7026 38.1969 33.774 38.1147 33.706C38.0279 33.6346 37.7847 31.924 37.7539 31.6689Z" fill="#5C796B"/>
<path d="M36.0864 16.7171C36.0784 17.1751 36.0955 17.4313 36.1766 17.8813C36.0555 18.8913 36.2668 20.0158 37.0786 20.7017C36.5693 20.2562 36.3604 19.8719 35.9962 19.7166C35.8192 19.1158 35.6468 18.6045 35.5908 17.9709C35.8272 17.2069 35.9882 16.3544 36.132 15.5088C36.196 15.511 36.1708 15.4623 36.1766 15.4192C36.2211 15.3965 36.2211 15.3965 36.2668 15.375C36.108 15.8352 36.0943 16.2422 36.0864 16.7171Z" fill="#5C796B"/>
<path d="M37.0764 20.7019C37.1517 20.7676 37.2157 20.7778 37.347 20.9252C37.4669 21.1712 37.5776 21.9443 37.5719 22.2005C37.5491 23.2796 36.4838 20.1929 36.1744 20.3879C36.1584 20.3425 36.1447 20.2983 36.1298 20.2541C36.0876 20.1317 36.0454 19.8891 35.9951 19.7168C36.3593 19.8721 36.5671 20.2552 37.0764 20.7019Z" fill="#7C8983"/>
<path d="M27.5633 30.9528C27.5393 30.8871 27.4753 30.8735 27.4731 30.7964C27.4605 30.352 27.7425 29.2876 27.8339 28.8047C27.9229 28.8806 28.0805 28.9135 28.1045 29.0507C28.1216 29.1493 27.7231 30.7091 27.5633 30.9528Z" fill="#899A92"/>
<path d="M37.6178 29.7434C37.7068 30.3657 37.6749 31.0345 37.7525 31.6682C37.4876 31.522 37.8496 30.6967 37.3472 30.7727C37.3266 30.3102 37.3358 29.8046 37.3472 29.3398C37.6817 29.5326 37.5812 29.4815 37.6178 29.7434Z" fill="#0F2316"/>
<path d="M36.3102 14.2984C36.2977 14.6781 36.2292 15.0431 36.1755 15.4172C36.1698 15.4603 36.1949 15.509 36.131 15.5068C35.8638 15.3685 35.5612 16.9532 35.5452 17.1856C35.5258 17.4554 35.5669 17.7036 35.5898 17.9689C35.6457 18.6037 35.8181 19.1138 35.9951 19.7146C36.0453 19.8869 36.0876 20.1295 36.1298 20.2519C34.8487 18.4132 35.2507 17.325 35.1833 16.1778C35.4253 16.2221 35.3911 15.8514 35.4539 15.7074C35.6023 15.3719 36.1652 14.1578 36.3102 14.2984Z" fill="#BBBEBC"/>
<path d="M36.1309 15.5085C35.9871 16.3542 35.8261 17.2066 35.5897 17.9707C35.5657 17.7043 35.5258 17.4571 35.5452 17.1874C35.5612 16.955 35.8637 15.3702 36.1309 15.5085Z" fill="#899A92"/>
<path d="M45.0582 18.8646C45.0594 18.868 45.0856 18.8465 45.1027 18.9088C44.783 19.3158 44.2567 19.4802 43.8628 19.8044C43.0396 20.4811 42.7267 21.6113 41.4502 20.7894C41.6237 20.506 41.8019 20.2646 42.0359 20.0288C42.4355 19.8463 42.842 19.453 43.2759 19.2682C43.5328 19.1582 44.4177 18.9156 44.6963 18.8658C44.8013 18.8465 44.9463 18.8782 45.0582 18.8646Z" fill="#9692B7"/>
<path d="M45.7804 22.3119C44.9503 23.6847 42.8666 23.7414 42.3984 22.1328C43.144 22.4411 43.3598 23.1145 44.5849 22.8492C44.972 22.7653 45.3979 22.3641 45.7804 22.3119Z" fill="#706792"/>
<path d="M45.1044 18.9102C45.5097 20.394 46.0931 20.0131 46.1868 20.7681C46.2507 21.2805 46.044 21.8778 45.7814 22.312C45.3989 22.363 44.9719 22.7654 44.586 22.8493C43.3609 23.1146 43.1451 22.4412 42.3995 22.1329C42.0844 22.0025 41.566 21.9277 41.002 21.7305C41.1093 21.4924 41.1949 21.2453 41.3171 21.0141C41.3593 20.9336 41.4061 20.8667 41.4518 20.7908C42.7283 21.6137 43.0412 20.4824 43.8644 19.8057C44.2583 19.4815 44.7835 19.3171 45.1044 18.9102Z" fill="#8A80A6"/>
<path d="M44.5404 20.1641C44.8441 20.4509 44.7687 21.3793 44.5632 21.6638C43.7879 22.7361 44.3291 20.1686 44.5404 20.1641Z" fill="#111415"/>
<path d="M45.6688 20.3867C45.928 20.8186 45.9234 21.4466 45.6014 21.8411C45.0009 22.5768 45.6574 21.3196 45.6688 20.3867Z" fill="#111415"/>
<path d="M39.6024 13.6279C39.9541 14.1516 40.5147 14.5676 41.0901 15.0607C40.8138 15.3407 41.7957 16.1218 42.2399 16.2249C42.8291 16.361 43.2561 16.2238 43.7505 15.9121C43.747 15.9438 43.7573 15.9857 43.7505 16.0016C43.6409 16.2714 42.5002 16.9357 41.564 16.3145C41.2888 16.132 40.429 14.9032 40.2566 14.8816C39.9438 14.8442 39.9837 15.81 39.3546 13.9419C39.2142 14.0541 39.1297 14.2106 39.0167 14.3443C38.8134 14.367 38.8134 14.367 38.6113 14.3885C38.7986 14.0904 38.9744 13.4035 39.0167 13.0453C39.0292 12.9364 39.0566 12.7777 39.0612 12.687C39.2222 12.4377 39.1571 12.9523 39.4665 13.0226C39.422 12.6984 39.422 12.6984 39.3763 12.373C39.7942 13.238 39.1537 14.002 39.6024 13.6279Z" fill="#899A92"/>
<path d="M39.4677 20.7462C39.1366 20.914 38.4218 20.5887 38.431 20.702C37.2618 20.0502 36.4203 19.2329 36.176 17.8817C36.0949 17.4317 36.0778 17.1755 36.0858 16.7175C36.2684 16.7481 36.104 16.4126 36.2205 16.4262C36.265 17.053 36.265 17.053 36.3107 17.6799C37.0586 18.7466 37.0334 19.3281 38.3168 20.1647C38.5349 20.3064 39.2348 20.6691 39.4677 20.7462Z" fill="#A2AFA8"/>
<path d="M37.0323 14.5223C37.465 15.3305 38.206 15.0335 38.6102 14.3885C38.8135 14.3658 38.8135 14.3658 39.0155 14.3443C38.4835 14.9757 37.9605 15.6456 36.9866 15.284C36.6875 15.1729 36.5002 14.8669 36.4682 14.8816C36.442 15.0596 36.321 15.2115 36.265 15.3736C36.2205 15.3963 36.2205 15.3963 36.1748 15.4178C36.2296 15.0437 36.297 14.6787 36.3095 14.299C36.3175 14.07 36.2593 13.7764 36.265 13.5383C36.9992 13.0339 36.2764 13.6846 37.0323 14.5223Z" fill="#899A92"/>
<path d="M40.1892 12.8672C40.131 14.5664 41.323 14.1708 41.3619 14.2774C41.5639 15.2262 41.3162 14.8328 41.0913 15.0607C40.5158 14.5675 39.9552 14.1515 39.6035 13.6278C39.7851 13.4759 40.0111 13.103 40.0545 12.8672C40.1219 12.8672 40.1219 12.8672 40.1892 12.8672Z" fill="#7C8983"/>
<path d="M39.4675 20.7446C40.0681 20.9429 40.6915 20.9713 41.316 21.0132C41.1939 21.2445 41.1082 21.4916 41.0009 21.7296C40.1274 21.4236 39.2426 21.1526 38.4308 20.7003C38.4216 20.587 39.1364 20.9123 39.4675 20.7446Z" fill="#899A92"/>
<path d="M45.0581 18.8661C44.9462 18.8797 44.8 18.848 44.6973 18.8661C44.6893 18.3753 44.067 16.1648 43.8181 15.9562C43.8147 15.954 43.7838 16.0084 43.7507 16.0004C43.7576 15.9846 43.7473 15.9426 43.7507 15.9109C43.7884 15.8871 43.9151 15.6343 44.0213 15.7091C44.9176 17.2349 44.8297 17.9978 45.0581 18.8661Z" fill="#BBBEBC"/>
<path d="M36.9866 15.2849C36.3701 18.1426 39.0053 21.4141 42.0367 20.03C41.8027 20.2658 41.6234 20.5072 41.451 20.7906C41.4042 20.8666 41.3585 20.9346 41.3163 21.0139C40.6917 20.972 40.0683 20.9436 39.4677 20.7453C39.2348 20.6682 38.536 20.3054 38.3179 20.1637C37.0346 19.3283 37.0597 18.7456 36.3118 17.679C36.2673 17.0521 36.2673 17.0521 36.2216 16.4252C36.1052 16.4116 36.2685 16.7472 36.0869 16.7166C36.0949 16.2416 36.1086 15.8346 36.2673 15.3733C36.3233 15.21 36.4432 15.0581 36.4706 14.8813C36.5002 14.8677 36.6886 15.1738 36.9866 15.2849Z" fill="#BBBEBC"/>
<path d="M43.7507 16C43.7838 16.0079 43.8157 15.9524 43.818 15.9558C44.0669 16.1643 44.6892 18.3748 44.6972 18.8656C44.4186 18.9167 43.5337 19.1592 43.2768 19.2681C42.8429 19.4528 42.4365 19.8462 42.0368 20.0287C39.0054 21.4128 36.3702 18.1413 36.9868 15.2836C37.9607 15.6452 38.4848 14.9752 39.0157 14.3438C39.1287 14.2089 39.2132 14.0536 39.3537 13.9414C39.9828 15.8095 39.9417 14.8437 40.2557 14.8811C40.4281 14.9015 41.2878 16.1303 41.563 16.314C42.5004 16.934 43.641 16.2698 43.7507 16Z" fill="#C6D7CE"/>
<path d="M41.0908 18.4624C40.8989 19.0304 40.7208 19.384 39.9855 19.2231C39.5277 19.1233 39.4386 18.4953 39.377 18.1484C39.6373 18.6733 40.6455 18.7152 41.0908 18.4624Z" fill="#C094C3"/>
<path d="M40.2117 15.1504C40.7894 15.6424 39.425 16.0006 39.2868 15.4859C39.1167 14.85 39.7298 15.7648 40.2117 15.1504Z" fill="#0F2316"/>
<path d="M41.0907 18.4613C40.6454 18.7141 39.6372 18.6722 39.3769 18.1485C39.2947 17.6849 39.1919 17.2756 39.4214 16.8279C39.8929 15.9085 41.85 16.2169 41.0907 18.4613Z" fill="#111415"/>
<path d="M40.5282 17.0738C40.8696 16.9366 40.9449 17.4059 40.7086 17.4762C40.3934 17.5703 40.3523 17.1441 40.5282 17.0738Z" fill="white"/>
</g>
</g>
<rect x="1" y="1" width="261" height="42" rx="21" stroke="#CF47FF" stroke-width="2"/>
<defs>
<filter id="filter0_f_350_28213" x="4.4" y="2.4" width="37.2" height="24.2" filterUnits="userSpaceOnUse" color-interpolation-filters="sRGB">
<feFlood flood-opacity="0" result="BackgroundImageFix"/>
<feBlend mode="normal" in="SourceGraphic" in2="BackgroundImageFix" result="shape"/>
<feGaussianBlur stdDeviation="4.3" result="effect1_foregroundBlur_350_28213"/>
</filter>
<linearGradient id="paint0_linear_350_28213" x1="131.5" y1="0" x2="131.5" y2="44" gradientUnits="userSpaceOnUse">
<stop stop-color="white"/>
<stop offset="1" stop-color="#848484"/>
</linearGradient>
<linearGradient id="paint1_linear_350_28213" x1="119.789" y1="-35.7778" x2="119.789" y2="61" gradientUnits="userSpaceOnUse">
<stop stop-color="white" stop-opacity="0.94"/>
<stop offset="1" stop-color="white" stop-opacity="0"/>
</linearGradient>
<linearGradient id="paint2_linear_350_28213" x1="237" y1="16.2143" x2="237" y2="25.5" gradientUnits="userSpaceOnUse">
<stop stop-color="white"/>
<stop offset="1" stop-color="white" stop-opacity="0"/>
</linearGradient>
<linearGradient id="paint3_linear_350_28213" x1="29.3724" y1="16.9583" x2="33.7075" y2="31.511" gradientUnits="userSpaceOnUse">
<stop stop-color="#ABC1B6"/>
<stop offset="1" stop-color="#97A49E"/>
</linearGradient>
<clipPath id="clip0_350_28213">
<rect width="263" height="44" rx="22" fill="white"/>
</clipPath>
<clipPath id="clip1_350_28213">
<rect width="43" height="35" fill="white" transform="translate(14 7)"/>
</clipPath>
</defs>
</svg>
