<svg width="45" height="45" viewBox="0 0 45 45" fill="none" xmlns="http://www.w3.org/2000/svg">
<path d="M22.5106 30.4905C18.5685 28.0151 14.6263 25.5396 10.6842 23.0642C10.6327 22.9983 10.5206 23.0331 10.4836 22.9433L10.4802 22.9405C10.3788 22.8369 10.3831 22.732 10.4762 22.6259L10.4745 22.6308C10.5647 22.5247 10.6418 22.4046 10.7768 22.3459C14.4089 20.2544 18.0666 18.2079 21.7072 16.1312C22.0246 15.9502 22.4028 15.6173 22.6719 16.2198C22.7415 16.478 22.7296 16.7411 22.7297 17.0027C22.731 21.1581 22.7301 25.3135 22.7312 29.4689C22.7313 29.8268 22.7386 30.1833 22.5106 30.4905Z" fill="#3BB550"/>
<path d="M22.4887 15.9752C18.8053 18.0368 15.1221 20.0988 11.4378 22.1589C11.2265 22.277 11.0063 22.3791 10.7902 22.4887C10.5041 22.3039 10.789 22.1274 10.7981 21.947C14.6971 15.2459 18.5961 8.54482 22.495 1.84375C22.6767 2.22183 22.7311 2.62436 22.731 3.03903C22.7302 7.0383 22.7318 11.0376 22.7288 15.0368C22.7286 15.3335 22.7583 15.6389 22.5769 15.9055C22.5477 15.9289 22.5182 15.9521 22.4887 15.9752Z" fill="#F6E12D"/>
<path d="M22.5104 30.4906C22.503 25.6527 22.4957 20.8148 22.4883 15.9768C22.4883 15.9769 22.5235 15.9579 22.5235 15.9579C22.7574 15.8163 22.9541 15.9593 23.1423 16.0581C23.8765 16.4435 24.5852 16.8732 25.2781 17.3287C26.13 17.8783 26.9677 18.4532 27.9345 18.7945C29.3461 19.5627 30.7032 20.428 32.1374 21.1565C32.2873 21.2326 32.4129 21.3491 32.5291 21.4722C32.8765 21.8602 33.3623 22.0334 33.795 22.2891C34.034 22.4304 34.3071 22.5504 34.2652 22.8725C32.4589 24.1236 30.6007 25.2379 28.7873 26.4216C27.8526 27.0317 26.8616 27.5592 26.0045 28.2854C24.8398 29.0205 23.6751 29.7555 22.5104 30.4906Z" fill="#81439A"/>
<path d="M32.4176 21.5877C30.913 20.6969 29.4083 19.8062 27.9037 18.9154C27.2054 18.5484 26.4876 18.212 25.8681 17.715C25.667 17.5537 25.4075 17.5836 25.2065 17.4487C24.3122 16.9513 23.418 16.454 22.5238 15.9565C22.5143 11.2521 22.5048 6.5479 22.4951 1.84375C25.6862 7.34058 28.8821 12.8346 32.0653 18.3359C32.8793 19.7427 33.6533 21.1725 34.4457 22.5918C34.2849 22.7332 34.1743 22.5873 34.0527 22.5204C33.503 22.2179 32.9535 21.9147 32.4176 21.5877Z" fill="#E75135"/>
<path d="M22.5986 42.8727C22.4821 42.8267 22.315 42.8155 22.2563 42.7298C18.5393 37.3094 14.8311 31.883 11.1221 26.4571C11.2956 26.1209 11.5154 26.2035 11.7529 26.3823C11.9412 26.5241 12.1112 26.7145 12.3866 26.6596C15.7924 28.7783 19.1982 30.8969 22.6041 33.0155C22.7557 33.2318 22.7269 33.4811 22.727 33.7224C22.7284 36.4396 22.7249 39.1568 22.7322 41.874C22.7331 42.2168 22.6431 42.54 22.5986 42.8727Z" fill="#03A9D0"/>
<path d="M22.5986 42.8722C22.6006 39.5864 22.6025 36.3006 22.6043 33.0149C26.463 30.5571 30.3218 28.0991 34.1806 25.6411C34.3107 25.6174 34.369 25.6581 34.3192 25.7958C30.4123 31.4879 26.5055 37.1801 22.5986 42.8722Z" fill="#3E5CAA"/>
<path d="M32.4176 21.5879C33.0937 21.9227 33.7697 22.2576 34.4457 22.5922C34.4227 22.7248 34.4465 22.931 34.3699 22.9799C31.5874 24.757 28.7955 26.5195 26.0049 28.284C28.439 26.6264 30.8732 24.9687 33.4448 23.2175C33.4395 23.2362 33.4868 23.0677 33.5404 22.8766C33.7583 22.8928 33.9501 22.907 34.4202 22.9418C33.6096 22.3938 33.0136 21.9908 32.4176 21.5879Z" fill="#89469B"/>
<path d="M12.3868 26.6596C11.9653 26.5921 11.5438 26.5245 11.1223 26.457C10.9021 26.1549 10.6819 25.8527 10.2256 25.2266C11.1711 25.8535 11.7789 26.2565 12.3868 26.6596Z" fill="#1BADC0"/>
<path d="M10.798 21.9473C10.7954 22.1279 10.7928 22.3085 10.7901 22.489C10.6849 22.5358 10.5798 22.5827 10.4746 22.6295C10.5824 22.4021 10.6902 22.1747 10.798 21.9473Z" fill="#DBE476"/>
<path d="M34.3192 25.7966C34.273 25.745 34.2269 25.6934 34.1807 25.6419C34.2748 25.5772 34.369 25.5125 34.7399 25.2578C34.4617 25.6141 34.3904 25.7053 34.3192 25.7966Z" fill="#6D83B6"/>
<path d="M10.4834 22.9414C10.5503 22.9817 10.6173 23.0221 10.6841 23.0624C10.6172 23.022 10.5503 22.9817 10.4834 22.9414Z" fill="#DBE476"/>
</svg>
