<svg width="14" height="18" viewBox="0 0 14 18" fill="none" xmlns="http://www.w3.org/2000/svg">
<g clip-path="url(#clip0_958_8171)">
<path d="M13.1774 11.0259C13.5169 11.066 13.7436 11.0923 14 11.1228V12.8454H7.574V11.1297C7.7712 11.0965 7.98672 11.0619 8.25013 11.0175C8.02757 10.2947 7.48808 10.0372 6.85985 10.0233C5.22024 9.9887 3.57923 10.0122 1.89456 10.0122C1.84807 10.2809 1.80582 10.5218 1.75651 10.8029H0V4.48858H1.78046C1.80722 4.73368 1.83117 4.95661 1.86075 5.22941H4.5089C4.54271 4.96769 4.58074 4.68244 4.62582 4.34734C4.90894 4.31964 5.20334 4.29195 5.48928 4.26287C5.74847 3.14678 5.17094 2.41565 4.04689 2.4115C3.5074 2.40873 2.9679 2.40319 2.42841 2.40596C1.92132 2.40873 1.60016 2.15255 1.58748 1.67206C1.57481 1.16525 1.88751 0.864762 2.42419 0.853685C2.91719 0.843992 3.40879 0.853685 3.9018 0.850915C4.35114 0.848146 4.84837 0.981079 5.01459 0.32749C5.0484 0.195942 5.34843 0.0657779 5.53577 0.050546C6.00201 0.0103891 6.49643 -0.0505387 6.9345 0.0643932C7.28383 0.155785 7.56555 0.492272 7.80219 0.8523C8.52903 0.8523 9.25445 0.856454 9.98129 0.850915C10.525 0.846761 10.925 1.04893 10.9377 1.62221C10.9504 2.20102 10.5602 2.41704 10.0109 2.4115C9.58829 2.40734 9.14317 2.49596 8.74877 2.3935C7.93319 2.18302 7.50357 2.75906 7.05564 3.17586C6.85844 3.35865 6.9669 3.85992 6.9345 4.24625C7.31623 4.28364 7.61063 4.31272 7.94446 4.34595C7.96418 4.63259 7.9839 4.90261 8.00785 5.24464C9.56434 5.22941 10.9546 5.64898 12.0223 6.8343C13.0929 8.02516 13.3013 9.45558 13.1788 11.0231L13.1774 11.0259Z" fill="white"/>
<path d="M10.9252 13.8741C11.3069 14.6537 11.7168 15.4222 12.0633 16.2171C12.3268 16.8222 12.1112 17.3539 11.583 17.7319C11.0759 18.0961 10.5364 18.0795 10.0124 17.743C9.45463 17.3858 9.32927 16.843 9.54478 16.2891C9.86594 15.4624 10.2843 14.6731 10.6618 13.8672C10.7491 13.8686 10.8379 13.8713 10.9252 13.8727V13.8741Z" fill="white"/>
</g>
<defs>
<clipPath id="clip0_958_8171">
<rect width="14" height="18" fill="white"/>
</clipPath>
</defs>
</svg>
