<svg width="249" height="63" viewBox="0 0 249 63" fill="none" xmlns="http://www.w3.org/2000/svg">
<g clip-path="url(#clip0_739_25153)">
<rect x="1" y="1" width="247" height="61" rx="30.5" fill="url(#paint0_linear_739_25153)"/>
<rect x="14" y="1" width="222" height="28" rx="14" fill="url(#paint1_linear_739_25153)"/>
<g filter="url(#filter0_f_739_25153)">
<rect x="22" y="12" width="20" height="7" rx="3.5" fill="white"/>
</g>
<g style="mix-blend-mode:soft-light">
<rect x="220" y="8" width="12" height="11" rx="5.5" fill="white"/>
</g>
<rect x="217" y="19" width="6" height="5" rx="2.5" fill="url(#paint2_linear_739_25153)"/>
<path d="M47.6087 25.168H42.1367V29.776H47.0167V30.784H42.1367V36H40.9207V24.16H47.6087V25.168ZM55.6212 27.536H56.7732V36H55.6692L55.6372 34.592C55.0932 35.584 54.1012 36.16 52.6772 36.16C50.6612 36.16 49.3172 34.832 49.3172 32.88V27.536H50.4692V32.656C50.4692 34.16 51.4932 35.168 53.0452 35.168C54.5972 35.168 55.6212 34.16 55.6212 32.656V27.536ZM63.5899 27.376C65.6699 27.376 67.0619 28.688 67.0619 30.672V36H65.9099V30.896C65.9099 29.376 64.8379 28.384 63.2379 28.384C61.6219 28.384 60.5499 29.376 60.5499 30.896V36H59.3979V27.536H60.5179L60.5339 28.96C61.0939 27.968 62.1179 27.376 63.5899 27.376ZM76.4498 23.52H77.6018V36H76.4818L76.4498 34.176C75.8738 35.376 74.7538 36.16 73.0738 36.16C70.7058 36.16 69.0098 34.416 69.0098 31.792C69.0098 29.152 70.7058 27.376 73.0738 27.376C74.7538 27.376 75.8738 28.16 76.4498 29.36V23.52ZM73.3458 35.168C75.2018 35.168 76.4498 33.808 76.4498 31.776C76.4498 29.744 75.2018 28.384 73.3458 28.384C71.4738 28.384 70.2258 29.744 70.2258 31.792C70.2258 33.808 71.4738 35.168 73.3458 35.168ZM97.6604 36H96.4444L95.9324 26.256L91.4204 36H90.6684L86.1724 26.256L85.6444 36H84.4444L85.1484 24.048H86.4124L91.0524 34.08L95.6764 24.048H96.9564L97.6604 36ZM101.01 39.68C100.642 39.68 100.258 39.616 99.9857 39.488L100.114 38.544C100.306 38.64 100.562 38.688 100.834 38.688C101.554 38.688 101.858 38.208 102.194 37.488L102.946 35.888L99.1537 27.536H100.418L103.554 34.624L106.594 27.536H107.858L103.33 37.648C102.802 38.88 102.274 39.68 101.01 39.68ZM119.515 29.808C121.035 30.176 121.979 31.248 121.979 32.704C121.979 34.688 120.459 36 118.171 36H113.483V24.16H117.883C120.011 24.16 121.435 25.36 121.435 27.152C121.435 28.4 120.715 29.328 119.515 29.808ZM114.699 25.168V29.408H117.627C119.163 29.408 120.171 28.56 120.171 27.296C120.171 26.016 119.131 25.168 117.563 25.168H114.699ZM118.043 34.992C119.643 34.992 120.715 34.08 120.715 32.704C120.715 31.344 119.643 30.432 118.043 30.432H114.699V34.992H118.043ZM130.293 27.536H131.445V36H130.341L130.309 34.592C129.765 35.584 128.773 36.16 127.349 36.16C125.333 36.16 123.989 34.832 123.989 32.88V27.536H125.141V32.656C125.141 34.16 126.165 35.168 127.717 35.168C129.269 35.168 130.293 34.16 130.293 32.656V27.536ZM135.206 28.96C135.814 27.904 136.95 27.376 138.566 27.376L138.47 28.432C136.406 28.432 135.222 29.472 135.222 31.088V36H134.07V27.536H135.19L135.206 28.96ZM144.184 27.376C146.264 27.376 147.656 28.688 147.656 30.672V36H146.504V30.896C146.504 29.376 145.432 28.384 143.832 28.384C142.216 28.384 141.144 29.376 141.144 30.896V36H139.992V27.536H141.112L141.128 28.96C141.688 27.968 142.712 27.376 144.184 27.376ZM157.62 31.664C157.62 31.808 157.62 32.064 157.604 32.192H150.852C150.996 34.032 151.988 35.232 153.668 35.232C154.804 35.232 155.748 34.672 156.404 33.792L157.284 34.288C156.468 35.504 155.172 36.16 153.668 36.16C151.252 36.16 149.62 34.4 149.62 31.76C149.62 29.136 151.22 27.376 153.636 27.376C156.02 27.376 157.62 29.088 157.62 31.664ZM153.636 28.304C152.004 28.304 150.964 29.488 150.852 31.376H156.42C156.324 29.488 155.268 28.304 153.636 28.304ZM160.753 28.96C161.361 27.904 162.497 27.376 164.113 27.376L164.017 28.432C161.953 28.432 160.769 29.472 160.769 31.088V36H159.617V27.536H160.737L160.753 28.96ZM183.81 24.16H185.106L180.882 36H179.73L176.418 25.936L173.106 36H171.97L167.73 24.16H169.026L172.594 34.368L175.842 24.16H177.01L180.258 34.368L183.81 24.16ZM188.764 27.376C190.828 27.376 192.172 28.688 192.172 30.672V36H191.052L191.02 34.224C190.428 35.456 189.228 36.16 187.884 36.16C186.22 36.16 185.1 35.184 185.1 33.696C185.1 32.16 186.476 31.12 188.556 31.12C189.34 31.12 190.22 31.216 191.02 31.408V30.816C191.02 29.28 190.044 28.304 188.492 28.304C187.484 28.304 186.764 28.64 186.172 29.248L185.644 28.544C186.412 27.792 187.404 27.376 188.764 27.376ZM188.204 35.296C189.548 35.296 191.02 34.192 191.02 32.224C190.268 32.048 189.436 31.952 188.7 31.952C187.26 31.952 186.3 32.64 186.3 33.664C186.3 34.656 187.02 35.296 188.204 35.296ZM194.711 36V23.52H195.863V36H194.711ZM198.571 36V23.52H199.723V36H198.571ZM209.854 31.664C209.854 31.808 209.854 32.064 209.838 32.192H203.086C203.23 34.032 204.222 35.232 205.902 35.232C207.038 35.232 207.982 34.672 208.638 33.792L209.518 34.288C208.702 35.504 207.406 36.16 205.902 36.16C203.486 36.16 201.854 34.4 201.854 31.76C201.854 29.136 203.454 27.376 205.87 27.376C208.254 27.376 209.854 29.088 209.854 31.664ZM205.87 28.304C204.238 28.304 203.198 29.488 203.086 31.376H208.654C208.558 29.488 207.502 28.304 205.87 28.304ZM214.814 35.168C215.406 35.168 215.966 35.072 216.51 34.864V35.808C215.95 36.048 215.262 36.16 214.462 36.16C213.102 36.16 212.174 35.216 212.174 33.824V28.496H210.702V27.536H212.174V25.056H213.326V27.536H216.382V28.496H213.326V33.6C213.326 34.528 213.934 35.168 214.814 35.168Z" fill="black"/>
</g>
<rect x="1" y="1" width="247" height="61" rx="30.5" stroke="#CF47FF" stroke-width="2"/>
<defs>
<filter id="filter0_f_739_25153" x="13.8" y="3.8" width="36.4" height="23.4" filterUnits="userSpaceOnUse" color-interpolation-filters="sRGB">
<feFlood flood-opacity="0" result="BackgroundImageFix"/>
<feBlend mode="normal" in="SourceGraphic" in2="BackgroundImageFix" result="shape"/>
<feGaussianBlur stdDeviation="4.1" result="effect1_foregroundBlur_739_25153"/>
</filter>
<linearGradient id="paint0_linear_739_25153" x1="124.5" y1="1" x2="124.5" y2="62" gradientUnits="userSpaceOnUse">
<stop offset="0.0625" stop-color="white"/>
<stop offset="1" stop-color="#949494"/>
</linearGradient>
<linearGradient id="paint1_linear_739_25153" x1="116.411" y1="-34.7778" x2="116.411" y2="62" gradientUnits="userSpaceOnUse">
<stop stop-color="white" stop-opacity="0.94"/>
<stop offset="1" stop-color="white" stop-opacity="0"/>
</linearGradient>
<linearGradient id="paint2_linear_739_25153" x1="220" y1="17.2143" x2="220" y2="26.5" gradientUnits="userSpaceOnUse">
<stop stop-color="white"/>
<stop offset="1" stop-color="white" stop-opacity="0"/>
</linearGradient>
<clipPath id="clip0_739_25153">
<rect x="1" y="1" width="247" height="61" rx="30.5" fill="white"/>
</clipPath>
</defs>
</svg>
