<svg width="15" height="15" viewBox="0 0 15 15" fill="none" xmlns="http://www.w3.org/2000/svg">
<g clip-path="url(#clip0_634_8189)">
<path d="M9.13415 8.35536V14.9897H0.33834C0.33834 14.9241 0.33834 14.8558 0.33834 14.7875C0.33834 10.4563 0.342841 6.12517 0.334964 1.79401C0.333089 0.683792 1.18382 0.0178189 2.03268 0.0310915C3.84819 0.0591982 5.66444 0.0392893 7.48032 0.0392893C8.44471 0.0392893 9.1319 0.750545 9.13227 1.75263C9.1334 3.4605 9.13302 5.16798 9.13302 6.87585C9.13302 6.93988 9.13302 7.00429 9.13302 7.09798C9.4016 7.09798 9.66079 7.09329 9.91999 7.09915C10.3832 7.1093 10.7842 7.27716 11.1023 7.63513C11.3803 7.94781 11.5281 8.31788 11.5288 8.74612C11.5303 10.1163 11.5284 11.4861 11.5303 12.8563C11.5311 13.3213 11.7693 13.6398 12.1755 13.7331C12.605 13.8319 13.0484 13.5137 13.108 13.0605C13.1208 12.9645 13.1241 12.8665 13.1241 12.7693C13.1249 10.5422 13.123 8.31476 13.1286 6.0877C13.129 5.91515 13.0862 5.85621 12.9156 5.84449C12.15 5.79023 11.5367 5.10201 11.5322 4.30409C11.5284 3.66779 11.5356 3.03148 11.5266 2.39518C11.5254 2.305 11.4804 2.19492 11.42 2.12933C11.1057 1.78659 10.779 1.45595 10.4583 1.11945C10.1807 0.828229 10.1634 0.446836 10.4133 0.185288C10.6612 -0.0743087 11.0299 -0.0579131 11.3109 0.232523C12.2269 1.17995 13.1403 2.1309 14.0566 3.07794C14.2446 3.27234 14.3346 3.50149 14.3346 3.77514C14.3338 6.80754 14.3368 9.83994 14.3323 12.8723C14.3305 14.1204 13.4238 15.0299 12.2299 15.001C11.3833 14.9807 10.5385 14.2082 10.375 13.2982C10.3487 13.1526 10.3349 13.0023 10.3345 12.854C10.3315 11.5423 10.333 10.2307 10.3322 8.91905C10.3322 8.49199 10.2039 8.3577 9.79846 8.35614C9.58165 8.35536 9.36446 8.35614 9.13415 8.35614V8.35536ZM1.94941 5.83747H7.51633V1.72218H1.94941V5.83747Z" fill="#8E8E8E"/>
</g>
<defs>
<clipPath id="clip0_634_8189">
<rect width="14" height="15" fill="white" transform="translate(0.334961)"/>
</clipPath>
</defs>
</svg>
