<svg width="279" height="63" viewBox="0 0 279 63" fill="none" xmlns="http://www.w3.org/2000/svg">
<g clip-path="url(#clip0_977_7772)">
<rect width="279" height="63" rx="31.5" fill="url(#paint0_linear_977_7772)"/>
<rect opacity="0.4" width="259" height="19" rx="9.5" transform="matrix(1 0 0 -1 10 59)" fill="url(#paint1_linear_977_7772)"/>
<g opacity="0.4" filter="url(#filter0_f_977_7772)">
<rect width="21" height="4" rx="2" transform="matrix(1 0 0 -1 19 51)" fill="white"/>
</g>
<rect opacity="0.4" width="15" height="7" rx="3.5" transform="matrix(1 0 0 -1 251 54)" fill="white"/>
<rect opacity="0.4" width="7" height="3" rx="1.5" transform="matrix(1 0 0 -1 247 47)" fill="url(#paint2_linear_977_7772)"/>
<path d="M58.7848 37.16C55.2008 37.16 52.8008 34.712 52.8008 31.048C52.8008 27.416 55.2008 25 58.7848 25C60.7208 25 62.1608 25.736 63.2488 26.92L62.4808 27.704C61.6488 26.744 60.4488 26.008 58.8328 26.008C55.9848 26.008 54.0807 28.024 54.0807 31.048C54.0807 34.104 55.9688 36.152 58.8008 36.152C60.5608 36.152 61.9048 35.32 62.7528 34.088L63.5848 34.856C62.5288 36.28 60.8488 37.16 58.7848 37.16ZM69.1661 37.16C66.5741 37.16 64.8301 35.4 64.8301 32.776C64.8301 30.136 66.5741 28.376 69.1661 28.376C71.7421 28.376 73.4701 30.136 73.4701 32.776C73.4701 35.4 71.7421 37.16 69.1661 37.16ZM69.1661 36.168C71.0221 36.168 72.2541 34.808 72.2541 32.776C72.2541 30.728 71.0221 29.384 69.1661 29.384C67.2941 29.384 66.0461 30.728 66.0461 32.776C66.0461 34.808 67.2941 36.168 69.1661 36.168ZM79.7228 28.376C81.8028 28.376 83.1948 29.688 83.1948 31.672V37H82.0428V31.896C82.0428 30.376 80.9708 29.384 79.3708 29.384C77.7548 29.384 76.6828 30.376 76.6828 31.896V37H75.5308V28.536H76.6508L76.6668 29.96C77.2268 28.968 78.2508 28.376 79.7228 28.376ZM89.8946 28.376C91.9746 28.376 93.3666 29.688 93.3666 31.672V37H92.2146V31.896C92.2146 30.376 91.1426 29.384 89.5426 29.384C87.9266 29.384 86.8546 30.376 86.8546 31.896V37H85.7026V28.536H86.8226L86.8386 29.96C87.3986 28.968 88.4226 28.376 89.8946 28.376ZM103.331 32.664C103.331 32.808 103.331 33.064 103.315 33.192H96.5625C96.7065 35.032 97.6985 36.232 99.3785 36.232C100.515 36.232 101.459 35.672 102.115 34.792L102.995 35.288C102.179 36.504 100.883 37.16 99.3785 37.16C96.9625 37.16 95.3305 35.4 95.3305 32.76C95.3305 30.136 96.9305 28.376 99.3465 28.376C101.731 28.376 103.331 30.088 103.331 32.664ZM99.3465 29.304C97.7145 29.304 96.6745 30.488 96.5625 32.376H102.131C102.035 30.488 100.979 29.304 99.3465 29.304ZM109.056 37.16C106.496 37.16 104.768 35.4 104.768 32.76C104.768 30.136 106.512 28.376 109.12 28.376C110.208 28.376 111.088 28.696 111.856 29.304L111.2 30.104C110.592 29.608 109.936 29.384 109.12 29.384C107.232 29.384 105.984 30.728 105.984 32.776C105.984 34.808 107.248 36.168 109.136 36.168C110.016 36.168 110.848 35.864 111.44 35.256L112.112 36.04C111.344 36.776 110.272 37.16 109.056 37.16ZM116.978 36.168C117.57 36.168 118.13 36.072 118.674 35.864V36.808C118.114 37.048 117.426 37.16 116.626 37.16C115.266 37.16 114.338 36.216 114.338 34.824V29.496H112.866V28.536H114.338V26.056H115.49V28.536H118.546V29.496H115.49V34.6C115.49 35.528 116.098 36.168 116.978 36.168ZM135.838 28.536H137.118L133.822 37H132.654L130.046 29.864L127.422 37H126.254L122.958 28.536H124.222L126.894 35.672L129.534 28.536H130.542L133.166 35.672L135.838 28.536ZM141.35 28.376C143.414 28.376 144.758 29.688 144.758 31.672V37H143.638L143.606 35.224C143.014 36.456 141.814 37.16 140.47 37.16C138.806 37.16 137.686 36.184 137.686 34.696C137.686 33.16 139.062 32.12 141.142 32.12C141.926 32.12 142.806 32.216 143.606 32.408V31.816C143.606 30.28 142.63 29.304 141.078 29.304C140.07 29.304 139.35 29.64 138.758 30.248L138.23 29.544C138.998 28.792 139.99 28.376 141.35 28.376ZM140.79 36.296C142.134 36.296 143.606 35.192 143.606 33.224C142.854 33.048 142.022 32.952 141.286 32.952C139.846 32.952 138.886 33.64 138.886 34.664C138.886 35.656 139.606 36.296 140.79 36.296ZM147.297 37V24.52H148.449V37H147.297ZM151.157 37V24.52H152.309V37H151.157ZM162.44 32.664C162.44 32.808 162.44 33.064 162.424 33.192H155.672C155.816 35.032 156.808 36.232 158.488 36.232C159.624 36.232 160.568 35.672 161.224 34.792L162.104 35.288C161.288 36.504 159.992 37.16 158.488 37.16C156.072 37.16 154.44 35.4 154.44 32.76C154.44 30.136 156.04 28.376 158.456 28.376C160.84 28.376 162.44 30.088 162.44 32.664ZM158.456 29.304C156.824 29.304 155.784 30.488 155.672 32.376H161.24C161.144 30.488 160.088 29.304 158.456 29.304ZM167.4 36.168C167.992 36.168 168.552 36.072 169.096 35.864V36.808C168.536 37.048 167.848 37.16 167.048 37.16C165.688 37.16 164.76 36.216 164.76 34.824V29.496H163.288V28.536H164.76V26.056H165.912V28.536H168.968V29.496H165.912V34.6C165.912 35.528 166.52 36.168 167.4 36.168ZM177.65 36.168C178.242 36.168 178.802 36.072 179.346 35.864V36.808C178.786 37.048 178.098 37.16 177.298 37.16C175.938 37.16 175.01 36.216 175.01 34.824V29.496H173.538V28.536H175.01V26.056H176.162V28.536H179.218V29.496H176.162V34.6C176.162 35.528 176.77 36.168 177.65 36.168ZM184.541 37.16C181.949 37.16 180.205 35.4 180.205 32.776C180.205 30.136 181.949 28.376 184.541 28.376C187.117 28.376 188.845 30.136 188.845 32.776C188.845 35.4 187.117 37.16 184.541 37.16ZM184.541 36.168C186.397 36.168 187.629 34.808 187.629 32.776C187.629 30.728 186.397 29.384 184.541 29.384C182.669 29.384 181.421 30.728 181.421 32.776C181.421 34.808 182.669 36.168 184.541 36.168ZM199.748 25.16C202.084 25.16 203.62 26.6 203.62 28.76C203.62 30.984 202.068 32.456 199.748 32.456H196.66V37H195.444V25.16H199.748ZM199.588 31.448C201.268 31.448 202.356 30.392 202.356 28.808C202.356 27.224 201.252 26.168 199.588 26.168H196.66V31.448H199.588ZM209.104 37.16C206.512 37.16 204.768 35.4 204.768 32.776C204.768 30.136 206.512 28.376 209.104 28.376C211.68 28.376 213.408 30.136 213.408 32.776C213.408 35.4 211.68 37.16 209.104 37.16ZM209.104 36.168C210.96 36.168 212.192 34.808 212.192 32.776C212.192 30.728 210.96 29.384 209.104 29.384C207.232 29.384 205.984 30.728 205.984 32.776C205.984 34.808 207.232 36.168 209.104 36.168ZM217.9 37.16C216.7 37.16 215.644 36.856 214.988 36.264L215.468 35.544C216.172 36.056 217.02 36.232 217.9 36.232C219.1 36.232 219.9 35.672 219.9 34.808C219.9 34.008 219.148 33.56 218.124 33.272L217.212 33C215.884 32.632 214.972 32.104 214.972 30.84C214.972 29.352 216.156 28.376 217.948 28.376C219.084 28.376 220.012 28.616 220.828 29.144L220.332 29.928C219.612 29.48 218.844 29.304 218.028 29.304C216.908 29.304 216.156 29.832 216.156 30.664C216.156 31.448 216.812 31.8 217.724 32.056L218.636 32.328C219.916 32.68 221.084 33.32 221.084 34.712C221.084 36.184 219.852 37.16 217.9 37.16ZM226.15 36.168C226.742 36.168 227.302 36.072 227.846 35.864V36.808C227.286 37.048 226.598 37.16 225.798 37.16C224.438 37.16 223.51 36.216 223.51 34.824V29.496H222.038V28.536H223.51V26.056H224.662V28.536H227.718V29.496H224.662V34.6C224.662 35.528 225.27 36.168 226.15 36.168Z" fill="#616161"/>
<path d="M23.8029 58.5488C11.5786 57.7367 9 47.3818 9 47.3818C13.7751 51.95 18.0728 56.5185 23.8029 56.5185L310.311 56.5184C320.816 56.5184 326.546 40.2756 324.636 46.3667C322.726 52.4579 316.518 58.5487 310.311 58.5487C304.103 58.5487 39.0833 59.564 23.8029 58.5488Z" fill="#D9D9D9" fill-opacity="0.4"/>
</g>
<rect x="1.5" y="1.5" width="276" height="60" rx="30" stroke="white" stroke-width="3"/>
<defs>
<filter id="filter0_f_977_7772" x="10.4" y="38.4" width="38.2" height="21.2" filterUnits="userSpaceOnUse" color-interpolation-filters="sRGB">
<feFlood flood-opacity="0" result="BackgroundImageFix"/>
<feBlend mode="normal" in="SourceGraphic" in2="BackgroundImageFix" result="shape"/>
<feGaussianBlur stdDeviation="4.3" result="effect1_foregroundBlur_977_7772"/>
</filter>
<linearGradient id="paint0_linear_977_7772" x1="139.5" y1="0" x2="139.5" y2="63" gradientUnits="userSpaceOnUse">
<stop stop-color="#474747"/>
<stop offset="0.315" stop-color="#858585"/>
<stop offset="0.965" stop-color="#D8D8D8"/>
</linearGradient>
<linearGradient id="paint1_linear_977_7772" x1="119.479" y1="-24.2778" x2="119.479" y2="41.3929" gradientUnits="userSpaceOnUse">
<stop stop-color="white" stop-opacity="0.94"/>
<stop offset="1" stop-color="white" stop-opacity="0"/>
</linearGradient>
<linearGradient id="paint2_linear_977_7772" x1="3.5" y1="-1.07143" x2="3.5" y2="4.5" gradientUnits="userSpaceOnUse">
<stop stop-color="white"/>
<stop offset="1" stop-color="white" stop-opacity="0"/>
</linearGradient>
<clipPath id="clip0_977_7772">
<rect width="279" height="63" rx="31.5" fill="white"/>
</clipPath>
</defs>
</svg>
