<svg width="54" height="34" viewBox="0 0 54 34" fill="none" xmlns="http://www.w3.org/2000/svg">
<g clip-path="url(#clip0_711_24964)">
<rect x="2" y="2" width="50" height="30" rx="15" fill="url(#paint0_linear_711_24964)"/>
<rect x="9" y="2" width="40" height="13" rx="6.5" fill="url(#paint1_linear_711_24964)"/>
<g filter="url(#filter0_f_711_24964)">
<rect x="10" y="7" width="4" height="3" rx="1.5" fill="white"/>
</g>
<rect x="46" y="5" width="3" height="5" rx="1.5" fill="white"/>
<rect x="46" y="10" width="1" height="3" rx="0.5" fill="url(#paint2_linear_711_24964)"/>
<path d="M37.625 16.5V12.5417H24.9583C24.5384 12.5417 24.1357 12.3749 23.8387 12.0779C23.5418 11.781 23.375 11.3783 23.375 10.9583C23.375 10.5384 23.5418 10.1357 23.8387 9.83875C24.1357 9.54181 24.5384 9.375 24.9583 9.375H36.0417V12.5417" stroke="#242424" stroke-width="1.58333" stroke-linecap="round" stroke-linejoin="round"/>
<path d="M23.375 10.959V22.0423C23.375 22.4622 23.5418 22.865 23.8387 23.1619C24.1357 23.4588 24.5384 23.6257 24.9583 23.6257H37.625V19.6673" stroke="#242424" stroke-width="1.58333" stroke-linecap="round" stroke-linejoin="round"/>
<path d="M35.2503 16.5C34.8304 16.5 34.4277 16.6668 34.1307 16.9637C33.8338 17.2607 33.667 17.6634 33.667 18.0833C33.667 18.5033 33.8338 18.906 34.1307 19.2029C34.4277 19.4999 34.8304 19.6667 35.2503 19.6667H38.417V16.5H35.2503Z" stroke="#242424" stroke-width="1.58333" stroke-linecap="round" stroke-linejoin="round"/>
<path d="M19.4993 22.3161C22.0307 22.3161 24.0827 20.1852 24.0827 17.5565C24.0827 14.9278 22.0307 12.7969 19.4993 12.7969C16.968 12.7969 14.916 14.9278 14.916 17.5565C14.916 20.1852 16.968 22.3161 19.4993 22.3161Z" fill="#B9B9B9" stroke="#242424" stroke-width="1.35989" stroke-linecap="round" stroke-linejoin="round"/>
<path d="M17.666 17.5566H21.3327" stroke="#242424" stroke-width="1.35989" stroke-linecap="round" stroke-linejoin="round"/>
<path d="M19.5 15.6523V19.46" stroke="#242424" stroke-width="1.35989" stroke-linecap="round" stroke-linejoin="round"/>
</g>
<rect x="1" y="1" width="52" height="32" rx="16" stroke="#CF47FF" stroke-width="2"/>
<defs>
<filter id="filter0_f_711_24964" x="5.8076" y="2.8076" width="12.3848" height="11.3848" filterUnits="userSpaceOnUse" color-interpolation-filters="sRGB">
<feFlood flood-opacity="0" result="BackgroundImageFix"/>
<feBlend mode="normal" in="SourceGraphic" in2="BackgroundImageFix" result="shape"/>
<feGaussianBlur stdDeviation="2.0962" result="effect1_foregroundBlur_711_24964"/>
</filter>
<linearGradient id="paint0_linear_711_24964" x1="27" y1="2" x2="27" y2="32" gradientUnits="userSpaceOnUse">
<stop stop-color="white"/>
<stop offset="1" stop-color="#808080"/>
</linearGradient>
<linearGradient id="paint1_linear_711_24964" x1="27.4524" y1="-14.6111" x2="27.4524" y2="30.3214" gradientUnits="userSpaceOnUse">
<stop stop-color="white" stop-opacity="0.94"/>
<stop offset="1" stop-color="white" stop-opacity="0"/>
</linearGradient>
<linearGradient id="paint2_linear_711_24964" x1="46.5" y1="8.92857" x2="46.5" y2="14.5" gradientUnits="userSpaceOnUse">
<stop stop-color="white"/>
<stop offset="1" stop-color="white" stop-opacity="0"/>
</linearGradient>
<clipPath id="clip0_711_24964">
<rect x="2" y="2" width="50" height="30" rx="15" fill="white"/>
</clipPath>
</defs>
</svg>
