<svg width="16" height="15" viewBox="0 0 16 15" fill="" xmlns="http://www.w3.org/2000/svg">
<g clip-path="url(#clip0_634_8194)">
<path d="M0.334961 7.71951C0.334961 7.57306 0.334961 7.42694 0.334961 7.28049C0.340262 7.26359 0.348214 7.24669 0.350202 7.22946C0.429061 6.45082 0.771664 5.81134 1.37735 5.31897C1.96746 4.83919 2.64936 4.63575 3.4058 4.70566C4.01878 4.76232 4.55587 5.0085 5.02107 5.40909C5.09032 5.46873 5.14102 5.47834 5.2265 5.43527C6.69831 4.69473 8.17177 3.9575 9.64622 3.22259C9.72077 3.18548 9.74131 3.14473 9.73866 3.06322C9.7317 2.85978 9.71183 2.6517 9.7443 2.45323C9.93448 1.28725 10.5889 0.503302 11.7121 0.123589C11.8837 0.0656049 12.0663 0.0404232 12.2436 0C12.3837 0 12.5242 0 12.6644 0C12.7784 0.0139162 12.893 0.0241877 13.0063 0.0417486C14.1256 0.216364 15.1203 1.13318 15.3131 2.40087C15.321 2.45422 15.3277 2.50757 15.335 2.56091V3.09138C15.3187 3.1931 15.3094 3.29648 15.2856 3.39655C14.8158 5.3478 12.7287 6.18111 11.1051 5.22321C10.9225 5.11553 10.7552 4.98167 10.574 4.8551C10.0508 5.11685 9.517 5.38391 8.98321 5.65064C7.99748 6.14334 7.01175 6.6367 6.0247 7.12741C5.96704 7.15591 5.94518 7.18805 5.94716 7.25199C5.95147 7.39215 5.95975 7.53363 5.94319 7.67213C5.92695 7.80964 5.98692 7.86629 6.10123 7.92295C7.56475 8.64991 9.02596 9.3815 10.4862 10.1151C10.5604 10.1522 10.6044 10.1476 10.6687 10.0935C11.4185 9.46401 12.2734 9.24234 13.2277 9.47792C14.4327 9.77546 15.1776 10.7927 15.3098 11.7658C15.3181 11.8255 15.3263 11.8854 15.3346 11.9451V12.4938C15.33 12.508 15.3217 12.5219 15.3207 12.5365C15.2972 12.8741 15.1852 13.1859 15.0265 13.4792C14.5769 14.3102 13.8943 14.8237 12.953 14.9755C12.8933 14.9851 12.8334 14.9917 12.7737 14.9997H12.2982C12.2747 14.9944 12.2512 14.9854 12.2277 14.9844C11.9749 14.9745 11.7333 14.9129 11.5027 14.8135C10.6757 14.4583 10.1068 13.8619 9.83376 12.9977C9.72673 12.6588 9.7264 12.3066 9.73701 11.956C9.73999 11.8609 9.70586 11.8182 9.62435 11.7777C8.14393 11.0402 6.66484 10.3 5.18674 9.55744C5.11716 9.52232 5.08071 9.54154 5.02969 9.58594C4.19405 10.3136 3.23516 10.5057 2.20006 10.1452C1.27232 9.82218 0.685848 9.14228 0.424754 8.192C0.382674 8.03826 0.36445 7.87723 0.334961 7.71951Z" fill="#8E8E8E"/>
</g>
<defs>
<clipPath id="clip0_634_8194">
<rect width="15" height="15" fill="" transform="translate(0.334961)"/>
</clipPath>
</defs>
</svg>
