<svg width="114" height="34" viewBox="0 0 114 34" fill="none" xmlns="http://www.w3.org/2000/svg">
<g clip-path="url(#clip0_711_25019)">
<rect x="2" y="2" width="110" height="30" rx="15" fill="url(#paint0_linear_711_25019)"/>
<rect x="9" y="1.78906" width="96" height="13" rx="6.5" fill="url(#paint1_linear_711_25019)"/>
<g filter="url(#filter0_f_711_25019)">
<rect x="12" y="6.78906" width="8" height="3" rx="1.5" fill="white"/>
</g>
<rect x="98" y="4.78906" width="6" height="5" rx="2.5" fill="white"/>
<rect x="97" y="9.78906" width="3" height="3" rx="1.5" fill="url(#paint2_linear_711_25019)"/>
<path d="M35.3249 21.7108C33.8049 21.7108 32.3649 21.2788 31.4689 20.3348L31.9649 19.4708C32.8769 20.3508 34.0129 20.7028 35.2449 20.7028C37.1329 20.7028 38.3329 19.8708 38.3329 18.5908C38.3329 17.2468 37.0529 16.6388 35.2609 16.1108L34.4609 15.8708C32.7969 15.4068 31.3889 14.6548 31.3889 12.7988C31.3889 10.8468 33.0049 9.55078 35.4369 9.55078C37.0369 9.55078 38.2049 10.0468 39.1169 10.9108L38.5409 11.7588C37.7089 10.9748 36.7009 10.5588 35.4209 10.5588C33.7569 10.5588 32.6529 11.3908 32.6529 12.6228C32.6529 13.9348 33.7729 14.4148 35.0689 14.7828L35.8849 15.0228C37.5969 15.5348 39.5969 16.3668 39.5969 18.4628C39.5969 20.4148 37.8849 21.7108 35.3249 21.7108ZM53.2837 13.0868H54.5637L51.2677 21.5508H50.0997L47.4917 14.4148L44.8677 21.5508H43.6997L40.4037 13.0868H41.6677L44.3397 20.2228L46.9797 13.0868H47.9877L50.6117 20.2228L53.2837 13.0868ZM56.6931 10.9588C56.2451 10.9588 55.9091 10.6228 55.9091 10.1908C55.9091 9.74278 56.2451 9.40678 56.6931 9.40678C57.1251 9.40678 57.4611 9.74278 57.4611 10.1908C57.4611 10.6228 57.1251 10.9588 56.6931 10.9588ZM56.1171 21.5508V13.0868H57.2691V21.5508H56.1171ZM62.9856 20.7188C63.5776 20.7188 64.1376 20.6228 64.6816 20.4148V21.3588C64.1216 21.5988 63.4336 21.7108 62.6336 21.7108C61.2736 21.7108 60.3456 20.7668 60.3456 19.3748V14.0468H58.8736V13.0868H60.3456V10.6068H61.4976V13.0868H64.5536V14.0468H61.4976V19.1508C61.4976 20.0788 62.1056 20.7188 62.9856 20.7188ZM69.8291 21.7108C67.2691 21.7108 65.5411 19.9508 65.5411 17.3108C65.5411 14.6868 67.2851 12.9268 69.8931 12.9268C70.9811 12.9268 71.8611 13.2468 72.6291 13.8548L71.9731 14.6548C71.3651 14.1588 70.7091 13.9348 69.8931 13.9348C68.0051 13.9348 66.7571 15.2788 66.7571 17.3268C66.7571 19.3588 68.0211 20.7188 69.9091 20.7188C70.7891 20.7188 71.6211 20.4148 72.2131 19.8068L72.8851 20.5908C72.1171 21.3268 71.0451 21.7108 69.8291 21.7108ZM78.8712 12.9268C80.9512 12.9268 82.3432 14.2388 82.3432 16.2228V21.5508H81.1912V16.4468C81.1912 14.9268 80.1192 13.9348 78.5192 13.9348C76.9032 13.9348 75.8312 14.9268 75.8312 16.4468V21.5508H74.6792V9.07078H75.8312V14.4948C76.3752 13.5028 77.4152 12.9268 78.8712 12.9268Z" fill="#1C1C1C"/>
</g>
<rect x="1" y="1" width="112" height="32" rx="16" stroke="#CF47FF" stroke-width="2"/>
<defs>
<filter id="filter0_f_711_25019" x="7.8076" y="2.59666" width="16.3848" height="11.3848" filterUnits="userSpaceOnUse" color-interpolation-filters="sRGB">
<feFlood flood-opacity="0" result="BackgroundImageFix"/>
<feBlend mode="normal" in="SourceGraphic" in2="BackgroundImageFix" result="shape"/>
<feGaussianBlur stdDeviation="2.0962" result="effect1_foregroundBlur_711_25019"/>
</filter>
<linearGradient id="paint0_linear_711_25019" x1="57" y1="2" x2="57" y2="32" gradientUnits="userSpaceOnUse">
<stop stop-color="white"/>
<stop offset="1" stop-color="#808080"/>
</linearGradient>
<linearGradient id="paint1_linear_711_25019" x1="53.2857" y1="-14.822" x2="53.2857" y2="30.1105" gradientUnits="userSpaceOnUse">
<stop stop-color="white" stop-opacity="0.94"/>
<stop offset="1" stop-color="white" stop-opacity="0"/>
</linearGradient>
<linearGradient id="paint2_linear_711_25019" x1="98.5" y1="8.71763" x2="98.5" y2="14.2891" gradientUnits="userSpaceOnUse">
<stop stop-color="white"/>
<stop offset="1" stop-color="white" stop-opacity="0"/>
</linearGradient>
<clipPath id="clip0_711_25019">
<rect x="2" y="2" width="110" height="30" rx="15" fill="white"/>
</clipPath>
</defs>
</svg>
