<svg width="19" height="17" viewBox="0 0 19 17" fill="none" xmlns="http://www.w3.org/2000/svg">
<path d="M13.7518 9.54102C14.2581 9.54102 14.6685 10.0074 14.6685 10.5827C14.6685 11.1169 14.3146 11.5572 13.8587 11.6173L13.7518 11.6243H3.13225L6.15002 15.0544C6.48046 15.43 6.50588 16.0208 6.22628 16.4295L6.15002 16.5276C5.81958 16.9031 5.29961 16.932 4.94001 16.6142L4.85366 16.5276L0.270323 11.3193C-0.282037 10.6916 0.0681423 9.6377 0.814343 9.54725L0.918504 9.54102H13.7518ZM13.3952 0.384458L13.4815 0.471113L18.0648 5.67945C18.6172 6.30713 18.267 7.361 17.5208 7.45145L17.4167 7.45768H4.58333C4.07707 7.45768 3.66667 6.99131 3.66667 6.41602C3.66667 5.88181 4.02054 5.44153 4.47643 5.38136L4.58333 5.37435H15.2029L12.1852 1.94425C11.8547 1.56875 11.8293 0.977882 12.1089 0.569246L12.1852 0.471113C12.5156 0.0956088 13.0356 0.0667235 13.3952 0.384458Z" fill="#8E8E8E"/>
</svg>
