<svg width="63" height="40" viewBox="0 0 63 40" fill="none" xmlns="http://www.w3.org/2000/svg">
<path d="M12.6052 31.7712C12.4768 31.9446 12.355 32.1213 12.22 32.2882C11.7064 32.9274 11.089 33.4543 10.4107 33.9069C9.19741 34.7163 7.89191 35.3043 6.458 35.6049C4.58782 35.9981 3.01068 35.453 1.66402 34.1497C0.900142 33.4114 0.335467 32.5409 0.137913 31.4788C-0.109029 30.1508 0.263031 29.0176 1.30842 28.1472C1.6492 27.8631 2.04102 27.6384 2.4246 27.4105C2.57112 27.3229 2.75386 27.2783 2.92507 27.2602C3.17201 27.2321 3.29219 27.3906 3.22799 27.6335C3.18848 27.7838 3.11439 27.9258 3.07159 28.0745C3.0008 28.3239 2.9366 28.5766 2.88556 28.831C2.86581 28.9301 2.87239 29.0391 2.88721 29.1415C2.9333 29.462 3.11604 29.6305 3.43871 29.6156C3.98363 29.5892 4.55983 29.3761 4.77056 28.5981C4.92366 28.0299 4.85781 27.4584 4.75245 26.8918C4.70635 26.6457 4.6619 26.3979 4.58288 26.1617C4.32441 25.3837 4.29807 24.5843 4.35075 23.7799C4.44295 22.3725 4.74916 21.0164 5.34346 19.7347C5.68424 19.0013 6.12215 18.3339 6.69506 17.7575C7.57418 16.8721 8.64755 16.3981 9.87403 16.2527C10.1012 16.2263 10.3301 16.2114 10.5589 16.1999C10.8388 16.1866 11.1137 16.2032 11.3903 16.2841C11.573 16.337 11.7788 16.3336 11.973 16.327C12.1179 16.3221 12.22 16.2279 12.2644 16.0826C12.3105 15.9323 11.7129 14.966 11.6158 14.8735C10.9063 14.2012 12.6102 11.892 13.5782 11.9366C14.1774 11.963 14.7816 11.9069 15.3841 11.8871C15.4319 11.8854 15.478 11.8689 15.5768 11.8491C16.9778 9.83226 17.9211 10.1411 18.6356 9.97101C19.3155 9.98917 20.1946 9.89668 20.4415 9.68194C20.4251 9.61918 20.4086 9.55145 20.3921 9.48373C20.3131 9.15998 20.2094 8.84119 20.1617 8.51248C20.1287 8.29115 20.1436 8.05329 20.1864 7.83195C20.2522 7.48673 20.4596 7.29182 20.8119 7.28356C21.1182 7.2786 21.4375 7.31495 21.7289 7.40414C22.394 7.60731 23.0443 7.85508 23.7012 8.08302C23.8362 8.12927 23.9745 8.16396 24.1111 8.20526C24.1243 8.18543 25.5269 7.6007 25.7179 7.53298C26.9559 7.15307 28.0408 6.53696 28.9018 5.54259C29.2969 5.0867 31.0535 3.82309 31.9573 3.43988C32.8891 3.00216 34.1222 3.06658 36.7233 3.14091C37.6073 3.20202 39.0429 3.42006 39.8776 3.61166C40.1755 3.74215 40.8801 3.54559 41.1172 3.68599C41.5617 3.20037 42.1198 3.18881 42.6845 3.32921C43.6492 3.56872 43.5027 3.47291 43.9587 4.30706C44.1447 4.64898 44.2781 5.01898 44.4493 5.4121C44.5234 5.29813 44.5843 5.20563 44.6436 5.11147C44.9102 4.68862 45.1687 4.26081 45.4486 3.84621C45.5754 3.65791 45.7301 3.48117 45.898 3.33086C46.1433 3.10952 46.3853 3.11283 46.6175 3.35233C46.7804 3.52081 46.9385 3.71903 47.029 3.93376C47.2727 4.50692 47.4933 5.09166 47.6925 5.68299C47.8341 6.10585 47.9328 6.54522 48.0349 6.98129C48.0761 7.15803 48.16 7.26869 48.3148 7.36119C48.9996 7.77249 49.7437 8.02686 50.5076 8.23499C51.0394 8.38034 51.5695 8.52405 52.0963 8.68427C52.2823 8.74043 52.4667 8.82797 52.6313 8.93204C52.8536 9.07079 52.8602 9.22935 52.6692 9.41601C52.5721 9.50851 52.4552 9.58119 52.3482 9.66212C52.2856 9.70837 52.223 9.75627 52.1292 9.82565C52.3169 9.91815 52.4683 9.86859 52.6116 9.84051C53.0906 9.74471 53.5664 9.63404 54.0471 9.5432C54.5706 9.44409 57.0121 9.05096 57.5109 9.0394C57.8105 9.03279 59.4864 8.74373 60.5137 8.67931C61.2035 8.6628 61.6431 8.75364 61.9625 9.04601C62.3098 9.36315 62.3164 9.77775 61.9476 10.0668C61.7221 10.2435 61.4587 10.3823 61.192 10.493C60.5664 10.7506 59.9211 10.9571 59.2444 11.0199C58.3571 11.1025 57.5191 11.3783 56.6746 11.631C56.5445 11.669 56.4178 11.7219 56.2861 11.7417C55.7823 11.816 55.3428 12.0374 54.9048 12.2835C54.2447 12.6551 53.5681 12.9987 52.8881 13.3604C52.9326 13.5141 53.0017 13.6776 53.0215 13.8477C53.0412 14.0096 53.033 14.1847 52.9952 14.3449C52.8091 15.1312 52.5556 15.891 52.0485 16.5352C51.8477 16.7895 51.7769 17.0654 51.7983 17.3792C51.8197 17.6848 51.7703 17.7641 51.4592 17.8318C51.1859 17.8913 50.906 17.9161 50.6113 17.9573C50.5652 18.2415 50.5422 18.5437 50.4648 18.8311C50.2755 19.5447 50.0516 20.25 49.8606 20.9652C49.6351 21.8126 49.4984 22.6765 49.4227 23.5519C49.3997 23.8129 49.4491 24.0425 49.6087 24.2572C50.0071 24.7908 50.0253 25.3738 49.7997 25.9784C49.4573 26.8968 48.7741 27.422 47.8456 27.645C46.8381 27.8862 45.8634 27.7177 44.9119 27.3675C44.3028 27.1429 43.7365 26.8389 43.2541 26.3963C42.8326 26.0081 42.4935 25.572 42.4326 24.9675C42.4227 24.875 42.319 24.7808 42.2383 24.7098C41.6951 24.2242 41.132 23.7617 40.6052 23.2595C39.8924 22.5807 39.2865 21.8142 38.8421 20.9272C38.7548 20.7538 38.6494 20.5919 38.5177 20.364C38.4799 20.4416 38.47 20.4714 38.4535 20.4961C37.6748 21.7564 37.1464 23.0993 37.0937 24.6024C37.0855 24.8618 37.0525 25.1228 37.0064 25.3788C36.934 25.7736 36.7332 26.1023 36.4023 26.3319C36.0269 26.5928 35.6417 26.8406 35.2515 27.0785C34.8169 27.3444 34.379 27.6054 33.9295 27.8449C33.6908 27.9721 33.6102 28.162 33.6102 28.4032C33.6085 29.0077 33.5789 29.6156 33.6266 30.2168C33.7682 32.0156 33.9378 33.8111 34.1024 35.6082C34.1386 36.003 34.1897 36.3961 34.2489 36.7876C34.3378 37.374 34.2292 37.9273 34.0086 38.4675C33.9394 38.6343 33.8324 38.7499 33.6579 38.7912C33.3254 38.8722 32.9944 38.9779 32.657 39.0159C31.2263 39.181 29.7941 39.2025 28.3667 38.9795C27.7412 38.8821 27.4843 38.6046 27.4201 37.9719C27.402 37.7869 27.402 37.5953 27.4168 37.4103C27.5057 36.2673 27.6062 35.1243 27.6951 33.9812C27.8202 32.3476 27.9239 30.7124 27.7938 29.0738C27.7856 28.9631 27.7675 28.8541 27.7527 28.722C26.2793 29.0755 24.8206 29.2572 23.3406 29.2093C22.9472 29.7494 22.7908 30.3556 22.8303 30.9899C22.8698 31.6225 22.9702 32.2535 23.0805 32.8779C23.2929 34.0688 23.5365 35.2531 23.7555 36.4407C23.8526 36.9726 23.7358 37.4847 23.4888 37.9521C23.3933 38.1321 23.2073 38.2973 23.0213 38.3898C22.748 38.5286 22.4451 38.6326 22.1421 38.6855C21.4902 38.8028 20.8399 38.7747 20.2061 38.55C19.7089 38.3733 19.3665 38.0644 19.1706 37.5507C18.7113 36.3449 18.4594 35.0896 18.2553 33.8243C18.1565 33.2082 18.1153 32.5822 18.0577 31.9595C18.0083 31.4292 18.1417 30.9238 18.2865 30.4216C18.4281 29.9311 18.5697 29.4422 18.7064 28.9499C18.7343 28.8508 18.7475 28.7435 18.7442 28.641C18.7376 28.4247 18.5812 28.3487 18.4051 28.4775C18.3409 28.5238 18.2915 28.5997 18.2536 28.6724C17.9853 29.1894 17.7169 29.7081 17.4634 30.2317C17.4074 30.349 17.386 30.4927 17.3827 30.6248C17.3333 32.1279 17.3646 33.6278 17.4716 35.1276C17.5293 35.9386 17.526 36.7529 17.5589 37.5656C17.5819 38.1586 17.3004 38.5567 16.7884 38.811C15.9735 39.2141 15.1207 39.3132 14.2433 39.0852C13.6506 38.9316 13.2588 38.5732 13.0843 37.9455C12.8489 37.1047 12.7221 36.2541 12.7056 35.3853C12.6875 34.3843 12.6892 33.3816 12.6826 32.3807C12.681 32.1841 12.6826 31.9875 12.6826 31.7926C12.6596 31.7827 12.6316 31.7778 12.6052 31.7712ZM49.7931 13.4843C49.7849 13.3885 49.7783 13.2944 49.7668 13.1672C49.3519 13.2713 49.0655 13.0697 48.7757 12.822C48.6704 13.1077 48.7856 13.3026 48.8729 13.5009C48.9832 13.6726 49.0688 13.8659 49.2071 14.0079C49.398 14.2029 49.6499 14.1318 49.7437 13.8725C49.7882 13.7552 49.7783 13.6148 49.7931 13.4843ZM55.621 11.3089C55.7938 11.1619 55.965 11.0149 56.1379 10.8679C56.3552 10.6945 56.5742 10.521 56.7882 10.3443C56.8112 10.3245 56.8096 10.2766 56.8211 10.2419L56.8162 10.2452C56.8392 10.2469 56.8639 10.2469 56.887 10.2485C57.1537 10.0288 57.4187 9.81078 57.6854 9.59109C57.5998 9.53493 57.5274 9.51842 57.4665 9.53824C57.2393 9.60761 57.0055 9.66542 56.7931 9.76618C56.2136 10.0404 55.6424 10.3327 55.0678 10.6202C55.0333 10.6367 55.0102 10.6747 54.9822 10.7027C54.7633 10.8035 54.5427 10.9043 54.3237 11.005C54.1887 11.0843 54.0554 11.1619 53.9204 11.2412C53.8117 11.2577 53.8265 11.342 53.8249 11.418C53.3524 11.4791 53.0281 11.7665 52.7466 12.12C52.6 12.2472 52.4436 12.3677 52.3959 12.6238C52.5194 12.6271 52.6297 12.6518 52.7285 12.6287C53.1417 12.5329 53.5549 12.4371 53.9615 12.3165C54.3336 12.2059 54.6546 11.9977 54.9361 11.7301L54.9411 11.7285C54.9658 11.7136 54.9921 11.6971 55.0168 11.6822C55.1238 11.6046 55.295 11.6063 55.3197 11.4295C55.4168 11.3882 55.5189 11.3486 55.621 11.3089ZM57.2936 10.2782C56.9676 10.4401 56.645 10.6069 56.4408 10.9274C56.3322 11.0067 56.2235 11.0876 56.2943 11.3139C57.1207 11.0992 57.985 11.0331 58.6929 10.4781C58.772 10.5062 58.9086 10.5177 58.9218 10.564C58.9596 10.6961 59.0601 10.7143 59.1506 10.7391C59.4288 10.8134 59.7038 10.7721 59.9705 10.6813C60.0166 10.6647 60.0511 10.6036 60.084 10.559C60.1055 10.5293 60.1071 10.4682 60.1334 10.4583C60.3359 10.3724 60.5401 10.2964 60.7459 10.2171C60.7277 10.2782 60.7113 10.3377 60.6817 10.4418C61.0801 10.3625 61.3616 10.194 61.5657 9.90163C61.6052 9.84547 61.6332 9.76618 61.6283 9.70011C61.625 9.63734 61.5838 9.55971 61.5344 9.52502C61.5015 9.50025 61.4142 9.52172 61.3681 9.55145C61.299 9.5944 61.2414 9.65551 61.1854 9.71663C61.034 9.88511 60.8858 10.0569 60.736 10.2287C60.7508 10.123 60.764 10.0189 60.7821 9.89172C60.7063 9.88346 60.6388 9.85703 60.5911 9.87685C60.2651 10.0057 59.9392 10.1362 59.6214 10.2832C59.4815 10.3476 59.3597 10.3922 59.2099 10.2931C59.3103 10.0998 59.5935 10.0552 59.5902 9.75792C59.3119 9.77775 59.0436 9.7827 58.7785 9.81739C58.3587 9.8719 57.9307 9.89502 57.5488 10.1131C57.4632 10.1676 57.3776 10.2221 57.2936 10.2782ZM51.7555 12.6733C51.7736 12.6535 51.7917 12.632 51.8098 12.6122C51.9053 12.3909 51.8905 12.3479 51.6979 12.3215C51.5876 12.3066 51.474 12.3099 51.3637 12.305C51.5629 12.2785 51.7621 12.2356 51.9596 12.2339C52.093 12.2339 52.2016 12.2174 52.2905 12.115C52.363 12.0291 52.4354 11.9432 52.5079 11.8573C52.7762 11.6806 53.0445 11.5072 53.3096 11.3255C53.6257 11.1091 53.9368 10.8877 54.2513 10.6697C54.485 10.5128 54.7238 10.3592 54.8587 10.0833C54.7468 10.0668 54.6447 10.0668 54.5525 10.0965C53.8743 10.3179 53.1911 10.5277 52.5243 10.7787C52.088 10.9422 51.6946 11.1983 51.3538 11.522C51.1694 11.631 50.962 11.712 50.8747 11.935C50.7496 12.0506 50.6245 12.1662 50.4977 12.2818C50.2327 12.414 50.1389 12.6403 50.1454 12.9227C50.124 13.045 50.0862 13.1655 50.0845 13.2878C50.0796 13.6297 50.315 13.8329 50.6311 13.7172C51.1431 13.5322 51.5415 13.1953 51.7555 12.6733ZM49.0688 12.8814C49.3667 13.1903 49.6466 13.1672 49.8343 12.7939C50.0845 12.2967 50.4006 11.8491 50.7694 11.4361C51.0361 11.2016 51.3028 10.9687 51.5695 10.7341C51.5563 10.716 51.5448 10.6961 51.5316 10.678C50.8237 10.9092 50.0944 11.0827 49.4375 11.4526C49.268 11.5485 49.1083 11.6773 48.9799 11.8226C48.6638 12.1728 48.7049 12.5626 49.0688 12.8814ZM42.0046 6.16035C41.8547 6.347 41.7049 6.53366 41.5551 6.71866C41.244 7.10517 41.104 7.5528 41.0843 8.04338C40.974 8.30601 40.9444 8.58351 41.0053 8.85606C41.1123 9.33837 41.2473 9.81409 41.3691 10.2915C41.2786 10.265 41.1864 10.2402 41.0991 10.2089C41.0283 10.1824 40.9608 10.1477 40.8917 10.1147C40.8555 10.0685 40.8209 10.0206 40.7847 9.97431C40.7616 9.93632 40.7369 9.89832 40.7139 9.86033C40.513 9.58449 40.3072 9.31194 40.1146 9.02949C39.9286 8.7586 39.8199 8.46293 39.8463 8.12267C39.8677 7.84186 39.8529 7.83691 39.5351 7.79231C39.466 7.77579 39.3969 7.74441 39.3277 7.74441C38.7894 7.7378 38.2494 7.73615 37.7111 7.73945C37.632 7.73945 37.5514 7.77249 37.4723 7.78901C36.9554 7.82204 36.4763 7.97896 36.0187 8.21517C35.0786 8.69914 34.2209 9.30038 33.4472 10.0222C31.9902 11.3816 30.688 12.8847 29.4698 14.4605C29.1849 14.8289 28.9397 15.2303 28.6779 15.6168C28.64 15.6647 28.5956 15.7093 28.5627 15.7605C28.0935 16.4988 27.4778 17.1001 26.8291 17.6765C26.5015 17.9673 26.1558 18.035 25.7376 17.9689C24.7103 17.8054 23.7012 17.5675 22.7035 17.2752C21.0803 16.7995 19.4587 16.3138 17.8338 15.8398C16.823 15.5441 15.8188 15.4962 14.8047 15.8695C13.3016 16.4245 12.2891 17.4156 11.9023 19.0013C11.6932 19.8618 11.6701 20.7356 11.7294 21.6127C11.7788 22.3428 11.9187 23.058 12.1393 23.7551C12.1558 23.8459 12.169 23.9384 12.192 24.0293C12.7468 26.1931 13.3279 28.352 13.6062 30.5769C13.6984 31.5828 13.7757 32.5888 13.7593 33.5997C13.7527 33.9945 13.7659 34.3909 13.7757 34.7873C13.779 34.9062 13.8037 35.0252 13.8202 35.1441C14.6894 35.1441 15.5257 35.1441 16.3242 35.1441C16.3242 34.822 16.3209 34.5214 16.3242 34.2207C16.3373 33.2842 16.3538 32.346 16.3703 31.4094C16.3736 31.1963 16.3769 30.9833 16.3011 30.7553C16.1019 30.8561 15.9307 30.9436 15.72 31.051C15.7529 30.9337 15.771 30.8693 15.7891 30.8032C15.8945 30.6628 16.013 30.529 16.1036 30.3787C16.5086 29.6998 16.9037 29.0143 17.3021 28.3305C17.3646 28.2231 17.4272 28.1141 17.4782 28.0002C17.5589 27.8168 17.5391 27.7474 17.3794 27.6268C17.3218 27.5839 17.256 27.5509 17.1934 27.5129C17.2313 27.4171 17.2642 27.318 17.3103 27.2271C17.5638 26.725 17.8289 26.2294 18.0725 25.7224C18.224 25.4069 18.3458 25.0765 18.4808 24.7528C18.4956 24.7561 18.5104 24.7594 18.5253 24.7627C18.4446 25.2186 18.3656 25.6744 18.2849 26.132C18.2273 26.3104 18.1713 26.4888 18.112 26.6655C18.0659 26.8043 18.1055 26.91 18.2372 26.9777C18.3014 27.0107 18.3656 27.0454 18.4314 27.0768C20.2308 27.9572 22.1553 28.1918 24.1259 28.167C24.6132 28.1604 25.1038 28.1356 25.5845 28.0695C26.3649 27.9638 27.1403 27.8168 27.9173 27.6863C28.0309 27.6665 28.1 27.6054 28.1182 27.4831C28.1955 26.9694 28.2762 26.4557 28.3569 25.942C28.4491 25.8165 28.4952 25.6381 28.7306 25.6315C29.1421 28.8244 28.9956 32.0008 28.6993 35.1969C29.5521 35.1969 30.3983 35.1969 31.2626 35.1969C31.2708 35.1077 31.2823 35.0268 31.2856 34.9475C31.3334 34.1266 31.3531 33.3024 31.4354 32.4847C31.4996 31.8438 31.6396 31.2129 31.7466 30.5769C32.0725 30.6083 32.1614 30.7256 32.0923 31.0411C32.0511 31.2327 32.0198 31.4276 31.9589 31.6126C31.9128 31.753 31.9458 31.8537 32.038 31.9512C32.0199 32.1891 32.0001 32.4269 31.982 32.6648C31.9474 33.0992 31.9046 33.5336 31.8832 33.9697C31.8667 34.3017 31.87 34.6353 31.875 34.969C31.8766 35.0929 31.898 35.2481 32.0544 35.2564C32.3376 35.2729 32.629 35.3109 32.9335 35.1821C32.9105 34.9294 32.8907 34.6816 32.8677 34.4355C32.7985 33.7021 32.7409 32.9654 32.6586 32.2337C32.5631 31.3946 32.517 30.5571 32.5434 29.713C32.5499 29.4735 32.5368 29.2324 32.5681 28.9978C32.6092 28.6889 32.5977 28.6443 32.2997 28.5122C32.3557 28.3024 32.41 28.091 32.4709 27.8812C32.6323 27.3279 32.8249 26.791 33.2249 26.3566C33.243 26.3368 33.2414 26.2972 33.2496 26.2674C33.327 26.2493 33.4027 26.2311 33.4801 26.2113C33.4093 26.5152 33.2496 26.7993 33.243 27.1363C33.2957 27.1214 33.3303 27.1181 33.3533 27.1032C33.9625 26.6919 34.5749 26.2823 35.1791 25.8644C35.7322 25.4812 36.0236 24.9411 36.1125 24.277C36.2393 23.3273 36.4286 22.3924 36.7941 21.5021C36.8089 21.4641 36.8122 21.4211 36.8204 21.3798C37.1546 20.7753 37.4937 20.1724 37.8181 19.5629C37.8526 19.4985 37.8428 19.3713 37.8 19.3085C37.474 18.8212 37.1842 18.3191 37.0394 17.7459C37.0394 17.6947 37.046 17.6402 37.0361 17.5906C36.9653 17.1909 36.934 16.7928 36.9669 16.3816C37.0229 15.6994 37.2698 15.0882 37.5859 14.4985C37.6205 14.4325 37.6946 14.3879 37.7506 14.3333C37.7654 14.738 37.7357 15.151 37.8049 15.5474C37.879 15.9736 38.0304 16.3882 38.1753 16.7978C38.5177 17.7723 39.061 18.6511 39.5203 19.5695C39.8529 20.402 40.2381 21.2064 40.8011 21.9117C41.1633 22.3643 41.537 22.807 41.9058 23.2546C41.9766 23.3421 42.0391 23.4396 42.1215 23.5156C42.5231 23.8905 42.9314 24.2572 43.3315 24.6355C43.45 24.7478 43.5455 24.8832 43.6525 25.0071C43.5175 25.2929 43.6146 25.5572 43.7496 25.8049C43.9274 26.132 44.204 26.3698 44.5168 26.5648C45.3465 27.0801 46.2503 27.2981 47.22 27.1924C47.4291 27.1693 47.6299 27.0719 47.834 27.0091C48.4333 26.8125 48.8498 26.4144 49.0885 25.8347C49.2153 25.5291 49.2087 25.2285 49.0062 24.9444C48.7872 24.6371 48.6983 24.287 48.7016 23.912C48.7033 23.651 48.7066 23.3917 48.7082 23.1307C48.7082 23.0679 48.7082 23.0052 48.7082 22.9424C48.9371 21.9629 49.156 20.9834 49.3964 20.0072C49.5544 19.363 49.7437 18.7254 49.803 18.0614C49.8096 17.9838 49.8047 17.9061 49.8047 17.7641C49.6334 17.8549 49.5116 17.921 49.3898 17.9871C48.3082 18.0086 47.7007 17.6121 47.3319 16.5864C47.1558 16.0991 47.0405 15.587 46.9237 15.0816C46.8693 14.852 46.8496 14.6059 46.9665 14.3779C47.0751 14.3614 47.1871 14.3201 47.2924 14.3333C47.5394 14.3631 47.5558 14.373 47.6019 14.1252C47.6381 13.932 47.6332 13.7321 47.6546 13.5355C47.6777 13.3274 47.6019 13.1837 47.4258 13.0648C46.7771 12.6304 46.5006 11.9961 46.4528 11.2346C46.4215 10.7292 46.5022 10.2386 46.5977 9.74636C46.7031 9.38793 46.8068 9.02784 46.9121 8.6694C47.1525 7.84186 47.1805 7.00441 47.0175 6.16201C46.9533 5.8333 46.8957 5.5013 46.7541 5.19242C46.5746 5.3609 46.4182 5.51286 46.2569 5.65821C46.0643 5.8333 45.8684 6.00344 45.6692 6.17192C45.4897 6.32553 45.4865 6.51053 45.5622 6.71205C45.6346 6.91026 45.7466 6.96642 45.9211 6.8541C46.0775 6.755 46.2092 6.61789 46.3475 6.49401C46.4182 6.43124 46.4825 6.35857 46.5499 6.29085C46.5697 6.30241 46.5878 6.31397 46.6076 6.32388C46.3952 7.14977 46.4874 7.98227 46.5088 8.81476C46.5154 9.05262 46.466 9.29047 46.4429 9.52998C46.4347 9.55806 46.4265 9.58614 46.4182 9.61422C46.4133 9.65386 46.4084 9.69351 46.4034 9.73315C46.1318 9.96935 45.8816 10.232 45.5243 10.3443C45.4008 10.3212 45.251 10.4021 45.1572 10.2435C45.1704 10.2188 45.1819 10.1907 45.1983 10.1659C45.4815 9.70342 45.6659 9.21945 45.5342 8.66445C45.5079 8.197 45.1243 7.28521 44.9102 7.13986C44.9102 7.51481 44.9102 7.90463 44.9102 8.29445C44.8444 8.4811 44.7785 8.6694 44.7127 8.85606C44.6946 8.88909 44.6765 8.92213 44.6584 8.95516L44.6617 8.97994C44.5579 8.98489 44.5086 9.04105 44.4625 9.13685C44.334 9.40279 44.2698 9.40775 44.0377 9.21119C43.985 9.16659 43.9175 9.14181 43.8583 9.10712C43.911 8.9948 43.9636 8.88413 44.0163 8.77181C44.1628 8.46128 44.2847 8.14579 44.283 7.79396C44.288 7.69981 44.2995 7.60731 44.2962 7.51316C44.2583 6.44446 43.8072 5.54589 43.1537 4.73157C43.1125 4.67871 43.0532 4.64072 42.9907 4.58291C42.5857 5.01567 42.3388 5.51947 42.0869 6.02161C42.0704 6.04638 42.0556 6.07116 42.0391 6.09759C42.0243 6.12236 42.0144 6.14218 42.0046 6.16035ZM22.7694 8.6628C22.6591 8.64628 22.5471 8.62976 22.4368 8.61324C22.2821 8.61655 22.1224 8.59838 21.9726 8.62646C21.7767 8.66445 21.589 8.74043 21.5544 8.98324C21.5429 9.16659 21.5166 9.34994 21.5248 9.53163C21.5314 9.6869 21.5791 9.83886 21.6038 9.99248C21.6911 10.5111 21.538 10.7358 21.0276 10.8349C20.9371 10.8531 20.8416 10.8679 20.7494 10.8613C20.4185 10.8349 20.0777 10.8415 19.7616 10.7556C19.0109 10.5541 16.5975 11.0694 17.1753 11.4659C17.5852 11.8623 17.9886 12.2653 18.4084 12.6485C18.4874 12.7212 18.6372 12.7278 18.7557 12.7443C19.0735 12.7856 19.3978 12.7906 19.7106 12.8517C20.6045 13.0268 21.4919 13.2333 22.3858 13.4034C23.0196 13.524 23.6617 13.5537 24.3021 13.4315C25.0692 13.2845 25.6504 12.9112 25.9006 12.1266C25.9484 11.9779 26.0126 11.8342 26.0587 11.6856C26.1574 11.3701 26.3171 11.0909 26.5674 10.8778C26.8357 10.6499 27.1205 10.4418 27.3954 10.2221C27.4992 10.1395 27.5963 10.0503 27.6967 9.9644C27.7165 9.95614 27.7362 9.94788 27.756 9.93962C27.7757 9.92641 27.7938 9.91484 27.8136 9.90163C27.9124 9.84712 28.0128 9.79096 28.1116 9.73645C28.3289 9.61587 28.5462 9.49364 28.7651 9.37802C29.5504 8.96342 30.2122 8.40842 30.7193 7.67173C31.0074 7.25053 31.3054 6.83759 31.6066 6.42629C31.9787 5.9192 32.3936 5.45505 32.9566 5.15112C33.5246 4.84554 34.1024 4.56309 34.7346 4.40782C35.4079 4.24264 36.0829 4.14188 36.7595 4.35661C37.5003 4.59282 38.2329 4.8571 38.9688 5.10983C39.1252 5.16434 39.2783 5.24032 39.4397 5.27005C40.0027 5.37246 40.2052 5.24692 40.3533 4.905C40.4406 4.70349 40.434 4.65889 40.2513 4.54657C40.1196 4.46563 39.9401 4.52675 39.8134 4.44085C38.8667 3.79996 38.0255 4.07912 36.9225 3.84291C36.6904 3.79336 36.18 3.69095 35.9479 3.6513C35.5445 3.66782 34.9008 3.7405 34.5041 3.79996C33.5377 3.94697 32.9994 3.70912 32.1137 4.14023C31.5441 4.41773 31.2198 4.69027 30.8395 5.19572C30.7325 5.33942 30.3884 5.3675 30.3752 5.53928C30.362 5.71602 30.3028 5.82835 30.1842 5.93902C29.9241 6.17852 29.6624 6.41803 29.4138 6.66745C28.859 7.2241 28.2647 7.72128 27.5337 8.03182C27.43 8.07641 27.3329 8.14084 27.239 8.20526C26.8225 8.49432 26.378 8.53726 25.9056 8.37539C25.8167 8.34566 25.7245 8.32749 25.5993 8.29445C25.8134 8.70079 26.0899 8.93865 26.546 9.13025C26.485 9.14677 26.4241 9.16329 26.3632 9.18146C25.5845 9.08235 24.8058 8.98985 24.0288 8.88248C23.6205 8.82632 23.2172 8.74208 22.8105 8.67106C22.799 8.65454 22.7858 8.65288 22.7694 8.6628ZM50.6986 15.0568C50.7035 14.8338 50.7414 14.6075 50.6426 14.3499C50.5224 14.444 50.4237 14.5134 50.3331 14.5927C49.9792 14.9049 49.5742 15.0271 49.1214 14.8784C48.8778 14.7991 48.649 14.672 48.4185 14.5563C48.2934 14.4936 48.1814 14.406 48.0629 14.33C48.0431 14.3449 48.025 14.3598 48.0053 14.3746C48.0662 14.5002 48.1254 14.6257 48.1896 14.7496C48.3181 14.999 48.4481 15.2451 48.5765 15.4945C48.2934 15.4615 48.0102 15.4285 47.6793 15.3888C47.7995 15.8431 47.9542 16.2312 48.2259 16.5665C48.6769 17.1248 49.2976 17.2173 49.8754 16.7862C50.4467 16.3601 50.7002 15.7654 50.6986 15.0568ZM30.9086 8.72722L30.902 8.72061C30.6798 8.86266 30.4575 9.00472 30.2353 9.14512C29.9011 9.34829 29.5603 9.54154 29.2343 9.75627C28.8129 10.0338 28.3898 10.3129 27.9947 10.6268C27.7922 10.7886 27.6523 11.0281 27.4827 11.233C27.295 11.4642 27.2868 11.7516 27.239 12.0242C27.1617 12.4718 27.0234 12.8897 26.7122 13.2333C26.3072 13.5388 25.8446 13.666 25.3458 13.6875C24.8997 13.7057 24.4535 13.7205 24.0074 13.7486C23.5201 13.7783 23.0278 13.8097 22.5801 14.0311C22.4023 14.1186 22.2557 14.112 22.0812 14.0476C21.4326 13.8081 20.7593 13.6908 20.0695 13.6726C19.6546 13.6627 19.2381 13.6479 18.8232 13.6578C18.3968 13.666 18.0034 13.5768 17.6313 13.3638C17.3334 13.1936 17.0238 13.0466 16.7127 12.9029C16.3587 12.7394 15.985 12.6551 15.5932 12.6832C15.1685 12.713 14.7421 12.7328 14.319 12.779C13.3773 12.8814 13.4629 14.0443 13.3642 14.0212C13.3889 14.155 12.6694 14.2574 13.1781 14.8124C13.4185 15.075 13.6473 15.1477 13.9963 15.0238C14.8228 14.7298 15.6706 14.5266 16.5612 14.6885C17.1292 14.8504 17.6988 14.999 18.2619 15.1758C18.9352 15.3855 19.597 15.6349 20.2736 15.8365C21.5528 16.218 22.8484 16.2857 24.1424 15.924C24.6955 15.7687 25.2421 15.7423 25.8002 15.8497C26.5048 15.9851 27.0826 15.7506 27.5782 15.2534C28.2021 14.6274 28.6055 13.8725 28.8672 13.035C28.9215 12.8583 28.9413 12.6717 28.9775 12.4883C29.0516 12.0159 29.3282 11.6509 29.6064 11.2875C29.6196 11.5204 29.6344 11.7533 29.6459 11.9878C29.6525 12.1249 29.6525 12.2637 29.6558 12.447C31.1901 10.8778 32.6142 9.28882 34.3131 7.93271C33.8489 7.76919 33.4192 7.79892 32.9895 7.86334C32.8759 7.87159 32.7623 7.87325 32.6504 7.88976C32.0182 7.98226 31.5062 8.3374 30.9843 8.67106C30.958 8.68758 30.9333 8.7074 30.9086 8.72722ZM10.6478 28.5155C10.4947 28.57 10.3449 28.6278 10.1901 28.6757C10.1556 28.6856 10.1095 28.6526 10.0683 28.6394C10.1588 28.456 10.2494 28.271 10.3399 28.0877C10.3531 28.0646 10.3663 28.0398 10.3794 28.0167C10.4091 27.9555 10.4404 27.8944 10.47 27.8333C10.7927 27.3477 11.0347 26.8241 11.1466 26.2509C11.2931 25.5126 11.1071 24.794 10.9672 24.0755C10.9211 23.7832 10.875 23.4925 10.8272 23.2001C10.7976 22.8929 10.763 22.584 10.7383 22.2767C10.6889 21.6557 10.605 21.0346 10.6132 20.4135C10.6198 19.8453 10.7301 19.2804 10.7943 18.7139C10.8453 18.4942 10.8947 18.2728 10.9458 18.0532C11.0577 17.85 11.2487 17.6881 11.2553 17.4337C11.2421 17.3842 11.2421 17.3049 11.2108 17.2884C11.1614 17.262 11.0906 17.2752 11.0281 17.2752C9.2929 17.2933 7.92648 18.0086 6.94694 19.4539C6.34934 20.3376 5.98387 21.3171 5.77973 22.3593C5.63156 23.1175 5.52126 23.8839 5.65132 24.6553C5.74186 25.1872 5.87027 25.7141 6.00033 26.2394C6.21435 27.1049 6.28514 27.9638 5.9493 28.8178C5.88344 28.9466 5.82089 29.0755 5.75174 29.201C5.46364 29.7263 5.03725 30.1062 4.51374 30.387C4.42484 30.4084 4.33429 30.4299 4.24539 30.4547C3.88486 30.5554 3.51773 30.61 3.14403 30.5769C2.81642 30.5472 2.49045 30.4993 2.21223 30.3011C2.10193 30.1805 1.99328 30.0599 1.88297 29.9393C1.81712 29.7494 1.75127 29.5611 1.66566 29.3166C1.59323 29.4157 1.53396 29.4636 1.52079 29.5214C1.43683 29.8832 1.31007 30.2449 1.2936 30.6116C1.24092 31.7959 1.90273 32.6103 2.76209 33.3073C2.93166 33.4708 3.0897 33.6509 3.27408 33.7979C4.11369 34.4702 5.0636 34.7163 6.13039 34.5544C6.77079 34.4569 7.37992 34.2653 7.97916 34.0308C9.05254 33.6112 10.0535 33.0744 10.8552 32.2237C11.9418 31.0692 12.3764 29.723 12.0027 28.1538C11.9632 27.9902 11.95 27.797 11.764 27.7028C11.7755 27.6434 11.7952 27.5856 11.7952 27.5261C11.7969 27.4633 11.7788 27.4022 11.7706 27.3394C11.759 27.3064 11.7475 27.2734 11.7228 27.199C11.6224 27.3642 11.545 27.4964 11.4627 27.6235C11.2437 27.9671 11.0413 28.3289 10.6478 28.5155ZM37.3028 5.41375C36.855 5.20728 36.3792 5.11478 35.8919 5.0867C35.1264 5.0421 34.4218 5.27996 33.7221 5.55911C32.8545 5.90433 32.2207 6.50888 31.7268 7.28026C31.6527 7.39588 31.605 7.53133 31.5391 7.67008C31.6182 7.70146 31.6593 7.7345 31.6906 7.72789C32.3705 7.58584 33.0488 7.43883 33.727 7.29182C34.0695 7.29182 34.4135 7.27861 34.7543 7.29512C35.1363 7.31329 35.482 7.25218 35.8261 7.06057C36.3331 6.77647 36.9093 6.71866 37.4789 6.66745C37.902 6.62946 38.3251 6.58981 38.7482 6.54522C38.8816 6.53035 39.0133 6.50062 39.0956 6.32223C38.6066 5.80192 37.9547 5.60536 37.3028 5.41375ZM51.1842 10.0371C51.2731 9.824 51.1809 9.67203 51.0097 9.55641C50.9159 9.49199 50.8155 9.43253 50.7118 9.38793C49.9956 9.07574 49.2383 8.95516 48.4646 8.94195C47.9789 8.93369 47.6398 9.17485 47.4225 9.60596C47.0537 10.336 46.9335 11.1074 47.0356 11.9151C47.057 12.0787 47.1097 12.2405 47.1722 12.3942C47.2118 12.4883 47.2974 12.5626 47.4044 12.6997C47.4587 12.5296 47.4883 12.4355 47.518 12.3397C47.5871 12.1216 47.6414 11.897 47.7303 11.6872C47.8242 11.4659 47.9625 11.2676 48.2045 11.1735C48.188 11.2231 48.16 11.271 48.1567 11.3205C48.104 12.0622 48.0991 12.7988 48.3888 13.5042C48.4086 13.5504 48.4465 13.5884 48.5189 13.6908C48.5189 13.2812 48.5074 12.9492 48.5206 12.6155C48.5551 11.8342 48.8613 11.2065 49.5791 10.8316C49.8639 10.6829 50.1603 10.5557 50.4483 10.4137C50.6953 10.2931 50.9389 10.1626 51.1842 10.0371ZM22.1635 29.2291C21.4013 29.0936 20.6819 28.9664 19.9674 28.8393C19.3319 29.9377 19.164 31.1038 19.2727 32.308C19.3533 33.2082 19.513 34.1018 19.6332 34.9987C19.6563 35.1722 19.7435 35.2647 19.9131 35.2762C20.6226 35.3307 21.3256 35.2845 22.0055 35.0598C22.3315 34.9525 22.3529 34.893 22.2788 34.5511C22.1158 33.8094 21.938 33.0695 21.7915 32.3245C21.612 31.4078 21.6483 30.5009 22.0022 29.6222C22.05 29.5082 22.0961 29.3959 22.1635 29.2291ZM51.2715 17.105C51.2912 16.9398 51.3061 16.8292 51.3192 16.7185C51.3505 16.446 51.4493 16.1999 51.5876 15.962C51.7292 15.7208 51.8707 15.4731 51.9563 15.2104C52.0337 14.9792 52.0584 14.7232 52.0617 14.4771C52.065 14.2557 51.8987 14.1219 51.6781 14.1054C51.4822 14.0905 51.3834 14.1715 51.3373 14.4242C51.2978 14.6389 51.2814 14.857 51.2616 15.075C51.2205 15.5127 51.1381 15.9389 50.9653 16.3452C50.8978 16.5054 50.8221 16.6624 50.743 16.8391C50.9142 16.925 51.069 17.0026 51.2715 17.105Z" fill="#131618"/>
<path d="M33.4761 26.2164C33.3987 26.2346 33.323 26.2527 33.2456 26.2725C33.0645 26.2461 32.9098 26.3304 32.7913 26.441C32.5328 26.6805 32.2727 26.9266 32.0537 27.2025C31.6537 27.7063 31.2833 28.2332 30.8964 28.7469C30.8454 28.8146 30.7746 28.8675 30.6955 28.9435C30.6593 28.8212 30.6215 28.7436 30.6149 28.6627C30.5688 28.1143 30.5144 27.5675 30.4914 27.0175C30.47 26.5286 30.5062 26.0363 30.4782 25.5474C30.4453 24.9726 30.1473 24.5844 29.4625 24.8223C29.3555 24.8603 29.2452 24.8933 29.1414 24.9396C28.7151 25.1295 28.287 25.3178 27.8639 25.516C26.7247 26.0529 25.5065 26.3023 24.2717 26.4344C23.5013 26.517 22.716 26.479 21.9488 26.3205C20.9232 26.109 19.9996 25.6845 19.2555 24.9214C19.0596 24.7199 18.8621 24.5184 18.6612 24.3234C18.4949 24.1616 18.4307 24.1632 18.2809 24.3383C17.9089 24.7711 17.5319 25.1989 17.1746 25.6449C16.6659 26.2792 16.093 26.8523 15.5119 27.4172C15.423 27.5031 15.3143 27.5692 15.2089 27.6353C15.1003 27.7013 14.9834 27.7426 14.8303 27.6435C14.8369 27.5163 14.8303 27.3726 14.8517 27.2322C14.9307 26.7301 14.9274 26.2395 14.7068 25.7671C14.4813 25.2864 14.2541 24.8074 14.05 24.3185C13.915 23.9948 13.8178 23.6545 13.7042 23.3225C13.6631 23.078 13.6318 22.8319 13.5808 22.5907C13.5149 22.2802 13.5725 21.973 13.5857 21.6657C13.6071 21.1587 13.6236 20.6466 13.7174 20.1494C13.8886 19.2492 14.208 18.4101 14.9044 17.7626C15.6041 17.1118 16.4239 16.7501 17.3738 16.76C17.8348 16.7649 18.2941 16.8657 18.7534 16.9334C19.5897 17.0589 20.4326 17.1547 21.259 17.3315C22.8247 17.6668 24.3804 18.0484 25.9411 18.4117C26.6852 18.5852 27.4244 18.7884 28.2014 18.7553C28.6755 18.7338 29.0921 18.5588 29.446 18.2581C29.9876 17.7973 30.4074 17.2406 30.6264 16.5502C30.6379 16.5122 30.6774 16.4841 30.6955 16.4478C30.8536 16.1257 31.0215 15.8069 31.0528 15.4385L31.0511 15.4369C31.0709 15.3939 31.0906 15.3527 31.1104 15.3097C31.2767 14.9116 31.438 14.5102 31.6125 14.1171C31.7508 13.8049 31.8924 13.4928 32.062 13.1987C32.4982 12.4406 33.0991 11.8245 33.784 11.2959C34.026 11.1092 34.3075 10.954 34.5939 10.8499C34.9709 10.7128 35.2541 10.7954 35.3545 11.2629C35.3628 11.3008 35.394 11.3322 35.4138 11.3669C35.3973 11.7551 35.4319 12.1399 35.3018 12.5298C35.1866 12.8733 35.1948 13.2582 35.1306 13.6216C35.0516 14.061 35.1175 14.4904 35.1932 14.9182C35.3331 15.7078 35.6377 16.4494 35.911 17.1993C35.9291 17.2472 35.99 17.277 36.0328 17.3166C36.0377 17.462 36.0443 17.6073 36.0493 17.7527C36.0262 18.5009 36.0032 19.2475 35.9801 19.9958C35.9752 20.1411 35.9801 20.2882 35.9653 20.4319C35.911 20.9687 35.8632 21.5055 35.7908 22.039C35.6986 22.7064 35.5982 23.372 35.4747 24.0327C35.394 24.4605 35.1652 24.814 34.8541 25.1246C34.5495 25.4285 34.2038 25.668 33.8465 25.9025C33.7115 25.9851 33.5996 26.109 33.4761 26.2164Z" fill="#C6D6CE"/>
<path d="M13.7007 23.3208C13.8143 23.6528 13.9115 23.9931 14.0465 24.3168C14.2506 24.8058 14.4794 25.2864 14.7033 25.7654C14.9256 26.2378 14.9272 26.7284 14.8482 27.2306C14.8268 27.371 14.8317 27.5163 14.8268 27.6419C14.9799 27.7393 15.0968 27.6997 15.2054 27.6336C15.3108 27.5692 15.4195 27.5015 15.5084 27.4156C16.0895 26.8507 16.6624 26.2775 17.1711 25.6432C17.5284 25.1989 17.9054 24.7694 18.2774 24.3366C18.4289 24.1616 18.4914 24.1599 18.6577 24.3218C18.8602 24.5167 19.0561 24.7182 19.252 24.9197C19.9978 25.6828 20.9197 26.1074 21.9453 26.3188C22.7109 26.4774 23.4961 26.5153 24.2682 26.4328C25.5046 26.299 26.7212 26.0495 27.8604 25.5144C28.2835 25.3162 28.7099 25.1279 29.1379 24.9379C29.2417 24.8916 29.352 24.8586 29.459 24.8206C30.1438 24.5828 30.4435 24.9709 30.4747 25.5457C30.5027 26.0347 30.4665 26.5269 30.4879 27.0158C30.511 27.5642 30.5653 28.1126 30.6114 28.661C30.618 28.7419 30.6558 28.8196 30.692 28.9418C30.7711 28.8642 30.8419 28.8113 30.8929 28.7452C31.2798 28.2299 31.6502 27.703 32.0502 27.2008C32.2692 26.925 32.5293 26.6805 32.7878 26.4394C32.9063 26.3287 33.061 26.2445 33.2421 26.2709C33.2339 26.3006 33.2355 26.3403 33.2174 26.3601C32.8174 26.7945 32.6248 27.333 32.4634 27.8847C32.4025 28.0944 32.3498 28.3059 32.2922 28.5156C32.0453 29.1863 31.851 29.8717 31.7407 30.5804C31.6337 31.2163 31.4938 31.8489 31.4296 32.4882C31.3473 33.3058 31.3275 34.13 31.2798 34.951C31.2748 35.0319 31.265 35.1112 31.2567 35.2004C30.3924 35.2004 29.5446 35.2004 28.6935 35.2004C28.9881 32.0042 29.1363 28.8278 28.7247 25.6349C28.4893 25.6415 28.4416 25.8199 28.351 25.9455C28.2967 25.9736 28.2341 25.9917 28.1913 26.0314C27.6217 26.5566 26.9484 26.8886 26.2043 27.0786C25.8536 27.1678 25.503 27.257 25.1474 27.3164C24.7819 27.3792 24.4115 27.4337 24.0411 27.4436C23.2443 27.4635 22.4475 27.4651 21.6556 27.3313C21.1749 27.2504 20.6958 27.1761 20.2464 26.9795C19.6965 26.7383 19.1483 26.4889 18.5968 26.2478C18.4931 26.2032 18.3844 26.1718 18.2774 26.1354C18.3581 25.6795 18.4371 25.2236 18.5178 24.7661C18.503 24.7628 18.4881 24.7595 18.4733 24.7562C18.3383 25.0799 18.2165 25.4103 18.065 25.7258C17.8214 26.2329 17.5563 26.7284 17.3028 27.2306C17.2567 27.3214 17.2254 27.4205 17.1859 27.5163C17.1415 27.5708 17.0855 27.6187 17.0526 27.6782C16.8731 28.0019 16.6887 28.324 16.5241 28.656C16.3019 29.1053 16.0944 29.5629 15.8804 30.0171C15.4178 30.1426 14.9569 30.2698 14.4943 30.3954C14.1996 30.4746 13.9148 30.6084 13.5987 30.5804C13.3205 28.3554 12.7393 26.1965 12.1845 24.0327C12.1615 23.9435 12.1499 23.851 12.1318 23.7585C12.4232 23.9369 12.7163 23.8791 13.011 23.7684C13.1064 23.7321 13.2102 23.7172 13.3073 23.6892C13.4094 23.6594 13.5015 23.6231 13.5114 23.4926C13.5262 23.3819 13.5921 23.3274 13.7007 23.3208Z" fill="#9FADA7"/>
<path d="M13.7001 23.3206C13.5914 23.3256 13.5239 23.3818 13.5174 23.4908C13.5075 23.6213 13.4153 23.6593 13.3132 23.6873C13.2144 23.7154 13.1124 23.7319 13.0169 23.7666C12.7206 23.8773 12.4292 23.9351 12.1378 23.7567C11.9172 23.058 11.7772 22.3444 11.7279 21.6144C11.6686 20.7373 11.69 19.8618 11.9007 19.0029C12.2876 17.4172 13.2984 16.4261 14.8031 15.8711C15.8172 15.4962 16.8215 15.5457 17.8323 15.8414C19.4572 16.3155 21.0787 16.8011 22.702 17.2768C23.6996 17.5692 24.7088 17.8054 25.7361 17.9705C26.1526 18.0366 26.4983 17.9689 26.8276 17.6782C27.4778 17.1017 28.0936 16.5005 28.5611 15.7621C28.594 15.7109 28.6385 15.6663 28.6763 15.6184C28.7142 15.6597 28.7488 15.7307 28.7916 15.7357C28.9019 15.7489 29.0204 15.7505 29.1291 15.7291C29.5917 15.6382 30.051 15.5292 30.5136 15.4417C30.6898 15.4086 30.8725 15.3426 31.0536 15.4367C31.0223 15.8051 30.8544 16.1238 30.6963 16.4459C30.6782 16.4823 30.6404 16.5104 30.6272 16.5484C30.4066 17.2388 29.9884 17.7955 29.4468 18.2563C29.0945 18.5569 28.678 18.732 28.2022 18.7535C27.4252 18.7882 26.686 18.5833 25.9419 18.4099C24.3812 18.0465 22.8255 17.665 21.2598 17.3297C20.4334 17.1529 19.5905 17.0571 18.7542 16.9316C18.2949 16.8622 17.8356 16.7614 17.3746 16.7581C16.4231 16.7499 15.6049 17.1116 14.9052 17.7608C14.2072 18.4083 13.8894 19.2474 13.7182 20.1476C13.6244 20.6431 13.6079 21.1568 13.5865 21.6639C13.5733 21.9711 13.5157 22.2784 13.5816 22.5889C13.6277 22.8301 13.6606 23.0762 13.7001 23.3206Z" fill="#A5B7AE"/>
<path d="M22.8112 8.66965C23.2162 8.74068 23.6212 8.82492 24.0295 8.88108C24.8065 8.98845 25.1341 8.06841 25.9112 8.16751C26.0379 8.21046 27.5789 7.98582 27.7007 8.03867C28.0645 8.19724 30.1635 7.09882 30.5586 7.14341C30.6426 7.15332 28.0365 9.69376 28.1172 9.7334C28.0184 9.78791 27.918 9.84407 27.8192 9.89858C27.7995 9.91014 27.7814 9.92335 27.7616 9.93657C27.7419 9.94483 27.7221 9.95309 27.7023 9.96134C27.4109 10.0918 27.1196 10.2207 26.8298 10.3545C26.1927 10.6468 25.6659 11.0746 25.2675 11.6528C24.9119 12.1681 24.4114 12.4803 23.8138 12.5976C23.0137 12.7545 22.2037 12.7413 21.4037 12.5678C20.7764 12.4324 19.8397 12.1499 19.8315 12.1615C19.6076 12.107 19.1614 12.2325 19.1812 12.3746C19.0495 12.3465 18.9375 12.3399 18.8404 12.297C18.6313 12.2045 18.4321 12.0921 18.228 11.9897C17.879 11.8146 17.5283 11.6396 17.1793 11.4645C16.6014 11.0664 19.0149 10.551 19.7656 10.7542C20.0817 10.8401 20.4225 10.8318 20.7534 10.8599C20.8456 10.8665 20.9411 10.8517 21.0316 10.8335C21.5419 10.7344 21.695 10.5097 21.6078 9.99108C21.5815 9.83746 21.5354 9.68384 21.5288 9.53023C21.5205 9.34853 21.5469 9.16518 21.5584 8.98184C21.6259 9.07268 21.7 9.15858 21.7609 9.25438C22.0128 9.64751 22.2548 10.0472 22.5133 10.4371C22.6005 10.5692 22.6911 10.7195 22.9051 10.7327C22.961 10.5708 23.0121 10.4156 23.0664 10.2603C23.1619 9.98942 23.3446 9.7846 23.6113 9.69706C23.8533 9.61777 24.1167 9.59795 24.3686 9.54675C24.4229 9.53518 24.4723 9.50545 24.5514 9.47241C24.4888 9.43112 24.4575 9.40304 24.4213 9.38818C23.9389 9.20483 23.4533 9.02644 22.9726 8.83648C22.9051 8.81171 22.8639 8.72581 22.8112 8.66965Z" fill="#AE6CAD"/>
<path d="M10.8269 23.1989C10.873 23.4912 10.9191 23.782 10.9669 24.0743C10.9043 24.3849 10.8203 24.6921 10.7825 25.0043C10.7216 25.518 10.715 26.0383 10.6392 26.5503C10.5931 26.8642 10.6195 27.1912 10.4746 27.4952C10.4351 27.5794 10.3232 27.7181 10.468 27.8305C10.4384 27.8916 10.4071 27.9527 10.3775 28.0138C10.3643 28.0369 10.3511 28.0617 10.338 28.0848C10.2474 28.2682 10.1569 28.4532 10.0663 28.6365C10.0038 28.7538 9.95274 28.8777 9.87537 28.9851C9.40288 29.6507 8.84479 30.2354 8.20768 30.7425C7.63313 31.1984 7.01248 31.5701 6.28976 31.7353C5.47814 31.9219 4.68628 31.9137 3.94051 31.4809C3.62607 31.2992 3.3034 31.1307 2.99061 30.9474C2.84244 30.8598 2.69757 30.7921 2.52141 30.8466C2.41935 30.6633 2.31563 30.4799 2.21191 30.2982C2.49014 30.4964 2.8161 30.5443 3.14371 30.5741C3.51742 30.6088 3.88454 30.5526 4.24508 30.4518C4.33398 30.4271 4.42452 30.4072 4.51342 30.3841C4.57268 30.4089 4.63031 30.432 4.68957 30.4568C4.7011 30.4617 4.71262 30.4667 4.72414 30.475C4.9431 30.4766 5.1637 30.4766 5.38266 30.4783C5.51271 30.4502 5.64112 30.4238 5.77118 30.3957C6.05105 30.4155 6.29964 30.2999 6.54493 30.1925C7.37631 29.8225 7.90476 29.1535 8.28176 28.3541C8.78553 27.2821 8.91887 26.1473 8.75754 24.9795C8.6423 24.1371 8.5106 23.298 8.38054 22.4589C8.2867 21.8477 8.38548 21.2564 8.58633 20.6849C8.91394 19.7516 9.5494 19.0463 10.3149 18.45C10.5092 18.2981 10.7314 18.1824 10.9405 18.0503C10.8895 18.27 10.8401 18.4913 10.7891 18.711C10.6606 18.6119 10.5421 18.5954 10.4647 18.7688C10.3758 18.967 10.2804 19.1636 10.2079 19.3684C9.8375 20.4206 9.76177 21.5223 9.71732 22.6208C9.67946 23.5458 9.68769 24.4724 9.58233 25.3941C9.52306 25.9094 9.4391 26.4215 9.34362 26.9302C9.27776 27.2755 9.1724 27.6124 9.08515 27.9527C9.07856 27.9775 9.07033 28.0039 9.06375 28.0287C9.07033 28.0022 9.07692 27.9758 9.08186 27.9494C9.1296 27.8982 9.19051 27.8536 9.22344 27.7941C9.46544 27.3465 9.71732 26.9022 9.93628 26.443C10.3446 25.584 10.603 24.6805 10.7084 23.7324C10.7281 23.554 10.7858 23.3773 10.8269 23.1989Z" fill="#EBBF91"/>
<path d="M16.5593 14.6888C15.6686 14.5269 14.8208 14.7301 13.9944 15.0241C13.6454 15.148 13.4165 15.0753 13.1762 14.8127C12.8535 14.4609 12.572 14.2907 12.6296 14.0215C12.7893 13.2732 13.6141 12.857 14.3187 12.7794C14.7418 12.7331 15.1682 12.7133 15.5929 12.6836C15.9864 12.6555 16.3584 12.7397 16.7124 12.9032C17.0235 13.0469 17.3347 13.194 17.631 13.3641C18.0047 13.5772 18.3965 13.6664 18.8229 13.6581C19.2378 13.6498 19.6543 13.6631 20.0692 13.673C20.759 13.6895 21.4422 13.8183 22.0924 14.0512C22.2637 14.1123 22.4069 14.1173 22.5814 14.0314C23.0967 13.777 23.6729 13.7737 24.2326 13.7357C24.5652 13.7126 24.8994 13.6961 25.2336 13.6928C25.7752 13.6862 26.2773 13.564 26.7119 13.2352C26.8041 13.2633 26.8683 13.3129 26.8041 13.4153C26.7547 13.4929 26.6955 13.5673 26.6263 13.6284C26.2839 13.9356 25.8641 14.0975 25.4245 14.1735C24.4615 14.3403 23.4901 14.4675 22.5254 14.6244C22.2966 14.6607 22.0513 14.6723 21.829 14.8094C21.9328 14.8854 21.8735 14.9002 22.0743 14.6987C22.3987 14.37 22.9222 14.4741 23.1559 14.8738C23.2004 14.9498 23.2481 14.9283 23.2959 14.925C23.5017 14.9068 23.7075 14.8722 23.9116 14.8755C24.6689 14.8903 25.4163 14.811 26.1621 14.6839C26.3135 14.6574 26.4683 14.6442 26.6214 14.6244C26.5769 14.6657 26.5391 14.7252 26.4847 14.745C26.1242 14.8755 25.7686 15.0225 25.3982 15.1166C24.9685 15.2273 24.5322 15.3198 24.0828 15.3231C23.6169 15.3264 23.1494 15.3892 22.6868 15.3578C22.0332 15.3148 21.3829 15.2256 20.7343 15.1398C20.079 15.0539 19.4238 14.9647 18.7752 14.8441C18.0409 14.707 17.3051 14.6541 16.5593 14.6888Z" fill="#EBAF58"/>
<path d="M31.0501 15.4366C30.869 15.3441 30.6863 15.4085 30.5101 15.4416C30.0475 15.5291 29.5882 15.6365 29.1256 15.729C29.0169 15.7504 28.8984 15.7504 28.7881 15.7356C28.7453 15.7306 28.7107 15.6596 28.6729 15.6183C28.9363 15.2318 29.1799 14.8304 29.4647 14.4621C30.683 12.8863 31.9852 11.3831 33.4421 10.0237C34.2159 9.30191 35.072 8.70066 36.0136 8.21669C36.4729 7.98048 36.952 7.82356 37.4673 7.79053C37.8426 7.79218 38.2197 7.79383 38.595 7.79548C38.5687 7.92267 38.5506 8.03829 38.5752 8.1787C38.6065 8.35709 38.73 8.54704 38.5934 8.73534C37.9793 8.76342 37.5348 9.10699 37.1463 9.53976C36.9257 9.78587 36.7084 10.0353 36.5125 10.2996C36.3445 10.5275 36.1042 10.7092 36.0696 11.0297C36.0515 11.1915 35.9132 11.3006 35.7535 11.3402C35.6449 11.3666 35.528 11.3567 35.4144 11.3633C35.3946 11.3286 35.3633 11.2956 35.3551 11.2593C35.2547 10.7902 34.9715 10.7092 34.5945 10.8463C34.3081 10.9504 34.0266 11.1056 33.7846 11.2923C33.0981 11.8209 32.4972 12.437 32.0625 13.1951C31.893 13.4908 31.7514 13.803 31.6131 14.1135C31.437 14.5067 31.2773 14.908 31.111 15.3061C31.0896 15.3507 31.0682 15.392 31.0501 15.4366Z" fill="#A8BEB4"/>
<path d="M22.1638 29.229C22.0963 29.3942 22.0485 29.5081 22.0024 29.6238C21.6468 30.5025 21.6106 31.4093 21.7917 32.3261C21.9382 33.071 22.116 33.811 22.279 34.5527C22.3531 34.8946 22.3317 34.954 22.0057 35.0614C21.3258 35.286 20.6245 35.3323 19.9133 35.2778C19.7454 35.2646 19.6565 35.1721 19.6334 35.0003C19.5132 34.1034 19.3552 33.2098 19.2729 32.3096C19.1642 31.1054 19.3322 29.9393 19.9676 28.8408C20.6821 28.9664 21.4015 29.0935 22.1638 29.229Z" fill="#7A8682"/>
<path d="M5.94942 28.8164C6.28526 27.9625 6.21282 27.1035 6.00045 26.238C5.8704 25.7127 5.74199 25.1858 5.65144 24.6539C5.52138 23.8826 5.63169 23.1161 5.77985 22.358C5.98399 21.3157 6.34782 20.3362 6.94707 19.4525C7.92496 18.0072 9.29138 17.292 11.0282 17.2738C11.0908 17.2738 11.1616 17.2606 11.2109 17.287C11.2422 17.3035 11.2422 17.3812 11.2554 17.4324C10.5919 17.662 10.0059 18.0221 9.456 18.4581C8.66085 19.0891 8.11263 19.8902 7.76527 20.8367C7.60064 21.286 7.49528 21.7485 7.45083 22.2275C7.40967 22.6916 7.32736 23.1508 7.28126 23.6133C7.22858 24.1601 7.19072 24.7085 7.15614 25.2552C7.11169 25.9721 6.96518 26.6691 6.77091 27.3579C6.63098 27.8518 6.42684 28.3143 6.13051 28.7338C6.09265 28.7883 6.06301 28.9073 5.94942 28.8164Z" fill="#E5ABCE"/>
<path d="M48.7038 23.1324C48.7022 23.3934 48.6989 23.6527 48.6972 23.9137C48.6939 24.2887 48.7828 24.6388 49.0018 24.9461C49.2059 25.2302 49.2109 25.5308 49.0841 25.8364C48.8437 26.4162 48.4289 26.8142 47.8296 27.0108C47.6485 26.991 47.4675 26.9497 47.288 26.9546C46.725 26.9711 46.1768 26.9249 45.6467 26.7118C45.133 26.5053 44.649 26.2658 44.3247 25.7868C44.1732 25.5655 44.007 25.3541 43.8374 25.1443C43.7897 25.0865 43.7123 25.0534 43.6481 25.0088C43.5411 24.885 43.4456 24.7495 43.327 24.6372C42.927 24.2606 42.5187 23.8939 42.117 23.5173C42.0347 23.4413 41.9722 23.3438 41.9014 23.2563C42.2767 23.1506 42.6504 23.0465 43.0258 22.9408C43.1723 22.921 43.3172 22.9012 43.4637 22.8813C43.6958 23.4413 44.0613 23.8741 44.6474 24.0706C44.868 24.145 45.1149 24.1995 45.3437 24.1796C45.6483 24.1549 45.966 24.0937 46.2459 23.9732C47.0378 23.6346 47.9169 23.5602 48.6742 23.1324C48.6824 23.1308 48.6939 23.1341 48.7038 23.1324ZM46.129 25.957C46.4138 26.1436 46.7908 26.0693 47.0806 25.8C47.4757 25.4317 47.6634 24.8618 47.474 24.51C47.0016 24.9758 46.5126 25.4135 46.129 25.957ZM48.6857 25.1757C48.4256 25.7802 48.0058 26.1899 47.5564 26.6259C48.2758 26.621 48.8503 25.9371 48.6857 25.1757Z" fill="#887FA5"/>
<path d="M38.5956 8.73546C38.7339 8.54715 38.6088 8.3572 38.5775 8.17881C38.5528 8.04006 38.5726 7.92278 38.5973 7.79559C38.9101 7.79559 39.2212 7.79395 39.534 7.79395C39.8518 7.8402 39.8682 7.84515 39.8452 8.1243C39.8188 8.46457 39.9275 8.76023 40.1135 9.03112C40.3061 9.31193 40.5119 9.58447 40.7128 9.86197C40.7358 9.89996 40.7605 9.93795 40.7836 9.97594C40.8198 10.0222 40.8543 10.0701 40.8906 10.1163C41.3235 10.7655 42.1286 11.2148 43.062 10.815C43.8917 10.4583 44.3132 9.75791 44.6573 8.98488L44.654 8.9601C44.6721 8.92706 44.6902 8.89403 44.7083 8.86099C44.7741 8.67434 44.84 8.48604 44.9058 8.29939C44.9635 8.34729 45.0458 8.38528 45.0754 8.44805C45.1199 8.5389 45.1264 8.64791 45.1495 8.74867C45.1923 8.93037 45.2861 9.07572 45.4244 9.18969C45.4623 9.00469 45.4952 8.83621 45.5281 8.66939C45.6598 9.22438 45.4755 9.70835 45.1923 10.1708C45.1775 10.1956 45.1643 10.2237 45.1511 10.2485C45.245 10.4071 45.3964 10.3261 45.5183 10.3492C45.4969 10.706 45.673 11.0166 45.78 11.3337C46.0648 12.1695 46.3431 13.0086 46.7563 13.7932C46.8518 13.9732 46.8929 14.1814 46.9588 14.3779C46.8419 14.6059 46.8616 14.852 46.916 15.0816C47.0345 15.587 47.1497 16.0991 47.3242 16.5864C47.693 17.6121 48.3021 18.0085 49.3821 17.9871C49.364 18.0333 49.3442 18.0779 49.3261 18.1242C49.1022 18.2431 48.8652 18.3306 48.6116 18.2976C48.0601 18.2266 47.5843 17.9937 47.1909 17.589C47.0016 17.3924 46.8995 17.1595 46.8419 16.9035C46.8073 16.7416 46.7958 16.5748 46.7711 16.4096C46.613 15.3772 46.3134 14.3829 45.9957 13.3918C45.9035 13.1028 45.8558 13.0912 45.5627 13.1523C45.3701 13.1919 45.2977 13.1589 45.2367 12.9673C45.1939 12.8302 45.1627 12.6849 45.1495 12.5412C45.1001 12.0555 45.0655 11.5683 45.0161 11.0826C45.0013 10.929 44.9618 10.7787 44.9272 10.5921C44.8137 10.6251 44.7149 10.6449 44.6243 10.6829C44.1749 10.8729 43.737 11.0909 43.2777 11.2528C42.9484 11.3684 42.5978 11.451 42.2504 11.4758C41.6824 11.5137 41.182 11.266 40.6963 10.9967C40.5613 10.9224 40.4181 10.8613 40.2798 10.7936C39.8847 10.4649 39.4896 10.1345 39.0945 9.80415C38.8656 10.042 38.6467 10.27 38.4277 10.4996C38.3619 10.4764 38.296 10.4533 38.2285 10.4302C38.2861 10.1675 38.3454 9.90656 38.403 9.64393C38.4705 9.34166 38.5314 9.03773 38.5956 8.73546Z" fill="#879991"/>
<path d="M2.76422 33.3058C1.90651 32.6087 1.2447 31.7927 1.29573 30.6101C1.3122 30.2434 1.43731 29.8816 1.52292 29.5199C1.53609 29.4621 1.59536 29.4142 1.66779 29.3151C1.7534 29.5579 1.81925 29.7478 1.8851 29.9378C1.89333 30.1856 1.88016 30.435 1.91638 30.6778C2.109 31.9943 3.1939 32.8383 4.53891 32.8813C5.1217 32.987 5.6979 32.9192 6.26751 32.797C7.66685 32.4947 8.85876 31.801 9.87123 30.7984C10.6071 30.0683 11.1455 29.216 11.4171 28.1985C11.4961 27.9012 11.6525 27.6236 11.7727 27.3379C11.7826 27.4007 11.799 27.4618 11.7974 27.5245C11.7974 27.584 11.7776 27.6418 11.7661 27.7013C11.7266 27.9226 11.6756 28.1423 11.6509 28.3653C11.5653 29.1136 11.4105 29.842 11.1306 30.5423C10.7619 31.4607 10.212 32.2354 9.40039 32.8201C8.67932 33.3388 7.87758 33.6708 7.02974 33.8921C6.65109 33.9896 6.25763 34.0507 5.86746 34.0838C5.0295 34.1515 4.24423 33.9252 3.48364 33.5948C3.24493 33.4924 3.00293 33.4016 2.76422 33.3058Z" fill="#AE6CAD"/>
<path d="M5.95015 28.8162C6.06375 28.9054 6.09338 28.7881 6.13124 28.7336C6.42758 28.314 6.63172 27.8515 6.77165 27.3577C6.96591 26.6689 7.11078 25.9718 7.15688 25.2549C7.19145 24.7066 7.22767 24.1582 7.282 23.6131C7.32645 23.1506 7.40876 22.6897 7.45156 22.2272C7.49437 21.7482 7.60138 21.2857 7.766 20.8364C8.11337 19.89 8.66158 19.0889 9.45674 18.4579C10.0066 18.0218 10.5927 17.6617 11.2561 17.4321C11.2495 17.6865 11.0569 17.85 10.9466 18.0515C10.7375 18.1837 10.5153 18.2993 10.321 18.4513C9.55552 19.0476 8.92005 19.7512 8.59244 20.6861C8.39159 21.2576 8.29282 21.849 8.38665 22.4601C8.51506 23.2992 8.64677 24.14 8.76365 24.9807C8.92499 26.1502 8.79164 27.2833 8.28788 28.3553C7.91252 29.1548 7.38242 29.8254 6.55105 30.1938C6.30575 30.3028 6.05716 30.4167 5.77729 30.3969C5.84479 30.3193 5.909 30.2383 5.98143 30.1657C6.26624 29.8783 6.55763 29.5958 6.8375 29.3034C7.63595 28.4743 8.02118 27.4667 8.08209 26.3269C8.11502 25.7042 8.12654 25.0815 8.14794 24.4588C8.15288 24.3547 8.13971 24.2457 8.1644 24.1482C8.29611 23.6412 8.28129 23.1258 8.2747 22.6104C8.27306 22.4783 8.24837 22.3396 8.20392 22.2157C8.17593 22.138 8.09691 22.0406 8.02776 22.0274C7.96026 22.0158 7.83515 22.0819 7.80552 22.1479C7.73308 22.3016 7.66064 22.4767 7.66229 22.6418C7.66558 23.2844 7.69686 23.9269 7.71661 24.5695C7.69686 24.994 7.68698 25.4201 7.6557 25.8446C7.63759 26.1023 7.60467 26.36 7.54705 26.6111C7.34785 27.4749 6.91488 28.2314 6.42593 28.9566C5.98472 29.6123 5.46121 30.1772 4.69568 30.4564C4.63642 30.4316 4.5788 30.4085 4.51953 30.3837C5.0414 30.1046 5.46944 29.7246 5.75589 29.1977C5.82174 29.0738 5.8843 28.945 5.95015 28.8162Z" fill="#AE6CAD"/>
<path d="M13.6016 30.5803C13.9176 30.6084 14.2025 30.4746 14.4971 30.3953C14.9597 30.2698 15.4207 30.1426 15.8833 30.0171C15.8619 30.0716 15.8389 30.1261 15.8191 30.1823C15.745 30.3871 15.6314 30.5886 15.7845 30.8066C15.7664 30.8711 15.7483 30.9371 15.7154 31.0544C15.9261 30.947 16.0973 30.8611 16.2965 30.7587C16.3723 30.9867 16.3706 31.1998 16.3657 31.4128C16.3492 32.3494 16.3327 33.2876 16.3196 34.2242C16.3146 34.5248 16.3196 34.8254 16.3196 35.1475C15.5211 35.1475 14.6848 35.1475 13.8156 35.1475C13.8008 35.0286 13.7744 34.9096 13.7711 34.7907C13.7613 34.3959 13.7481 33.9995 13.7547 33.6031C13.7711 32.5922 13.6938 31.5863 13.6016 30.5803Z" fill="#97A59F"/>
<path d="M28.1157 9.73501C28.035 9.69537 29.4261 8.29466 30.0896 7.42583C30.455 6.94681 30.8156 6.46284 31.2024 6.002C31.5366 5.60392 31.8939 5.21906 32.3647 4.97459C33.8316 4.21312 34.7337 3.80844 35.0004 3.82826C33.6307 3.90094 34.9 3.60362 33.4134 3.77045C34.2991 3.42688 38.8972 3.68456 39.8438 4.32545C39.9706 4.41134 40.1237 4.45924 40.2554 4.54183C40.4381 4.65415 40.4447 4.7004 40.3574 4.90026C40.2093 5.24218 40.0068 5.36771 39.4437 5.2653C39.2824 5.23557 39.1293 5.15959 38.9729 5.10508C38.237 4.85236 37.5044 4.58807 36.7636 4.35187C36.0886 4.13549 35.412 4.23625 34.7387 4.40308C34.1065 4.55835 33.5286 4.8408 32.9607 5.14638C32.3977 5.45031 31.9828 5.91445 31.6107 6.42155C31.3095 6.83284 31.0115 7.24578 30.7234 7.66699C30.218 8.40533 29.5545 8.95868 28.7692 9.37328C28.5503 9.4922 28.333 9.61609 28.1157 9.73501Z" fill="#58396F"/>
<path d="M35.2847 3.60847C35.018 3.58699 35.8807 3.90414 35.614 3.88431C34.129 4.22128 33.8294 4.21467 32.3626 4.97614C31.8934 5.2206 31.5345 5.60546 31.2003 6.00354C30.8134 6.46439 30.4529 6.94836 30.0874 7.42738C29.4239 8.29456 25.8136 8.7009 25.5996 8.29456C25.7231 8.3276 25.8169 8.34576 25.9058 8.3755C26.3783 8.53737 25.1321 8.48616 25.5469 8.1971C25.6408 8.13268 27.2739 7.67844 27.3776 7.6355C28.1086 7.32331 30.5731 5.22556 30.6801 5.08351C31.0604 4.57806 31.5559 4.32204 32.1239 4.04454C33.0112 3.61177 33.0589 3.72574 35.2847 3.60847Z" fill="#AC6BAC"/>
<path d="M16.5596 14.6886C17.307 14.6539 18.0478 14.7067 18.7853 14.8455C19.3846 14.9578 19.9888 15.042 20.593 15.1213C21.2893 15.2122 21.9857 15.3096 22.687 15.3575C23.1496 15.3889 23.6172 15.3262 24.0831 15.3228C24.5325 15.3195 24.9688 15.227 25.3985 15.1164C25.7689 15.0206 26.1245 14.8752 26.485 14.7447C26.5377 14.7249 26.5756 14.6654 26.6217 14.6241C27.1732 14.3863 27.588 13.9767 27.9667 13.529C28.0901 13.3837 28.1889 13.2152 28.2992 13.0583C28.3585 12.9905 28.4128 12.9179 28.4787 12.8584C28.6318 12.7196 28.724 12.495 28.9758 12.4917C28.9396 12.6734 28.9199 12.8617 28.8655 13.0384C28.6054 13.8759 28.2021 14.6291 27.5765 15.2568C27.081 15.7556 26.5031 15.9885 25.7985 15.8531C25.2404 15.7457 24.6955 15.7738 24.1407 15.9274C22.8467 16.2875 21.5511 16.2214 20.2719 15.8399C19.597 15.6383 18.9352 15.3889 18.2602 15.1791C17.6988 14.9991 17.1275 14.8488 16.5596 14.6886Z" fill="#C56F4A"/>
<path d="M18.2798 26.1353C18.3868 26.1733 18.4955 26.203 18.5992 26.2476C19.1491 26.4904 19.6973 26.7382 20.2488 26.9793C20.6982 27.1775 21.1773 27.2502 21.658 27.3312C22.4499 27.4649 23.2467 27.4633 24.0435 27.4435C24.4122 27.4336 24.7843 27.3791 25.1498 27.3163C25.5054 27.2552 25.856 27.1676 26.2067 27.0784C26.9508 26.8885 27.6225 26.5581 28.1937 26.0312C28.2365 25.9916 28.2991 25.9734 28.3534 25.9453C28.2728 26.459 28.1921 26.9711 28.1147 27.4864C28.0966 27.6087 28.0291 27.6714 27.9139 27.6896C27.1368 27.8201 26.3614 27.9671 25.5811 28.0728C25.0987 28.1389 24.6081 28.1637 24.1225 28.1703C22.1519 28.1967 20.2274 27.9605 18.428 27.0801C18.3621 27.0487 18.2979 27.014 18.2337 26.981C18.102 26.9133 18.0642 26.8075 18.1086 26.6688C18.1646 26.4921 18.2222 26.3137 18.2798 26.1353Z" fill="#879991"/>
<path d="M17.1758 11.4641C17.5264 11.6391 17.8755 11.8142 18.2245 11.9893C18.4286 12.0917 18.6278 12.204 18.8369 12.2965C18.934 12.3395 19.0476 12.3461 19.1777 12.3742C19.1579 12.2321 19.6041 12.1066 19.8279 12.1611C19.8378 12.1495 20.7729 12.432 21.4001 12.5674C22.2002 12.7392 23.0102 12.7541 23.8103 12.5972C24.4079 12.4799 24.9084 12.1677 25.264 11.6524C25.664 11.0726 26.1892 10.6448 26.8263 10.3541C27.116 10.2203 27.4074 10.0914 27.6988 9.96094C27.5984 10.0468 27.5013 10.1377 27.3976 10.2186C27.1226 10.4383 26.8378 10.6464 26.5695 10.8744C26.3192 11.0874 26.1595 11.3666 26.0608 11.6821C26.0147 11.8307 25.9505 11.9745 25.9027 12.1231C25.6525 12.9077 25.0714 13.2827 24.3042 13.428C23.6638 13.5502 23.0217 13.5189 22.3879 13.3999C21.494 13.2298 20.605 13.0233 19.7127 12.8482C19.3999 12.7871 19.0756 12.7822 18.7579 12.7409C18.6377 12.726 18.4895 12.7178 18.4105 12.6451C17.9874 12.2635 17.5841 11.8605 17.1758 11.4641Z" fill="#58396F"/>
<path d="M28.2993 13.0548C28.189 13.2133 28.0902 13.3802 27.9668 13.5255C27.5865 13.9748 27.1732 14.3828 26.6217 14.6207C26.4686 14.6405 26.3155 14.6553 26.1641 14.6801C25.42 14.8073 24.6709 14.8866 23.9136 14.8717C23.7095 14.8684 23.5037 14.9031 23.2979 14.9213C23.2765 14.9229 23.2567 14.9279 23.2353 14.9279C22.7908 14.9064 22.348 14.8833 21.9035 14.8602C21.887 14.8585 21.8722 14.8387 21.8311 14.809C22.0533 14.6702 22.2986 14.6603 22.5274 14.624C23.4938 14.467 24.4635 14.3399 25.4265 14.173C25.8661 14.0971 26.2859 13.9352 26.6283 13.6279C26.6958 13.5668 26.7567 13.4925 26.8061 13.4149C26.8703 13.3141 26.8045 13.2646 26.7139 13.2348C27.0267 12.8912 27.1634 12.4734 27.2407 12.0257C27.2885 11.7532 27.2967 11.4658 27.4844 11.2345C27.7231 11.2643 27.919 11.2015 28.1116 11.038C28.645 10.5804 29.2031 10.151 29.7382 9.69506C29.9242 9.53649 30.0707 9.33002 30.2353 9.14667C30.4576 9.00462 30.6798 8.86257 30.9021 8.72217C30.9399 8.86587 30.8231 8.92699 30.7457 9.00297C30.1333 9.62073 29.5225 10.2385 28.9035 10.8497C28.724 11.028 28.5874 11.2263 28.4705 11.4509C28.2812 11.8159 28.1874 12.2074 28.138 12.6055C28.1232 12.7475 28.0919 12.9606 28.2993 13.0548Z" fill="#F2C369"/>
<path d="M9.08733 27.9541C9.17459 27.6138 9.2816 27.2769 9.3458 26.9316C9.44129 26.4229 9.52525 25.9092 9.58451 25.3955C9.69152 24.4754 9.68164 23.5471 9.71951 22.6221C9.7656 21.5237 9.83969 20.422 10.2101 19.3698C10.2825 19.165 10.378 18.9684 10.4669 18.7702C10.5459 18.5968 10.6628 18.6149 10.7912 18.7124C10.727 19.2789 10.6184 19.8455 10.6101 20.4121C10.6019 21.0331 10.6859 21.6542 10.7353 22.2753C10.76 22.5842 10.7945 22.8914 10.8242 23.1986C10.7847 23.377 10.727 23.5537 10.7056 23.7354C10.6003 24.6836 10.3418 25.5871 9.93352 26.446C9.71457 26.9052 9.46269 27.3495 9.22068 27.7972C9.18776 27.8566 9.12684 27.9012 9.0791 27.9524C9.08404 27.9508 9.08733 27.9541 9.08733 27.9541Z" fill="#A98063"/>
<path d="M2.76465 33.3061C3.00336 33.4019 3.24536 33.4928 3.48078 33.5952C4.24136 33.9256 5.02829 34.1519 5.8646 34.0841C6.25477 34.0527 6.64823 33.9916 7.02688 33.8925C7.87636 33.6728 8.6781 33.3408 9.39753 32.8205C10.2091 32.2358 10.759 31.4611 11.1278 30.5427C11.4076 29.8424 11.5624 29.1123 11.648 28.3657C11.6727 28.1427 11.7237 27.923 11.7632 27.7017C11.9493 27.7942 11.9624 27.9891 12.0019 28.1526C12.3757 29.7218 11.9427 31.068 10.8545 32.2226C10.0527 33.0749 9.05181 33.6117 7.97843 34.0296C7.37918 34.2642 6.77006 34.4558 6.12965 34.5532C5.06451 34.7151 4.11295 34.4706 3.27335 33.7967C3.09226 33.6497 2.93422 33.4713 2.76465 33.3061Z" fill="#58396F"/>
<path d="M33.475 26.2162C33.5985 26.1089 33.7105 25.9866 33.8455 25.8974C34.201 25.6629 34.5484 25.4234 34.853 25.1194C35.1625 24.8089 35.393 24.4554 35.4736 24.0276C35.5971 23.3669 35.6975 22.6996 35.7897 22.0339C35.8638 21.5004 35.9099 20.9636 35.9642 20.4267C35.979 20.2814 35.9741 20.136 35.979 19.9907C36.0021 19.2424 36.0251 18.4958 36.0482 17.7476C36.254 17.7855 36.2968 17.9739 36.3297 18.1209C36.4005 18.4413 36.4466 18.7717 36.4696 19.0987C36.5141 19.7479 36.4235 20.397 36.4713 21.0478C36.4943 21.36 36.4877 21.3616 36.8137 21.3848C36.8055 21.4261 36.8038 21.469 36.7874 21.507C36.4219 22.3973 36.2326 23.3322 36.1058 24.282C36.0169 24.946 35.7255 25.4861 35.1724 25.8693C34.5682 26.2872 33.9558 26.6969 33.3466 27.1082C33.3219 27.1247 33.289 27.1263 33.2363 27.1412C33.2462 26.8043 33.4059 26.5201 33.475 26.2162Z" fill="#879991"/>
<path d="M48.2047 11.1737C47.9627 11.2662 47.826 11.4644 47.7306 11.6874C47.6417 11.8971 47.5873 12.1218 47.5182 12.3398C47.4886 12.4356 47.4573 12.5298 47.4046 12.6999C47.2976 12.5628 47.212 12.4885 47.1725 12.3943C47.1099 12.2423 47.0556 12.0788 47.0358 11.9153C46.9338 11.1092 47.0539 10.3362 47.4227 9.60612C47.64 9.175 47.9791 8.93384 48.4648 8.9421C49.2386 8.95531 49.9958 9.07424 50.712 9.38808C50.8157 9.43433 50.9161 9.49214 51.01 9.55656C51.1795 9.67219 51.2734 9.82415 51.1845 10.0372C50.8947 10.0537 50.6033 10.0521 50.3169 10.0884C49.6715 10.171 49.0822 10.4237 48.4977 10.7012C48.2755 10.8053 48.1619 10.9275 48.2047 11.1737Z" fill="#AC6BAC"/>
<path d="M39.5158 19.5725C39.0582 18.6541 38.5149 17.7754 38.1708 16.8008C38.026 16.3912 37.8745 15.9749 37.8004 15.5504C37.7313 15.1556 37.7609 14.7427 37.7461 14.3364C37.756 14.2967 37.7724 14.2571 37.7757 14.2174C37.8004 13.8507 37.8136 13.4824 37.8482 13.1157C37.8679 12.9043 37.9222 12.6961 37.9601 12.488C38.0819 12.4996 38.161 12.4649 38.1593 12.3212C38.1577 12.2436 38.1379 12.1461 38.2597 12.1279C38.2778 12.1378 38.3042 12.1428 38.3108 12.1577C38.3272 12.194 38.342 12.2353 38.342 12.2749C38.3569 12.7738 38.3635 13.2743 38.2564 13.7632C38.2219 13.9218 38.2285 14.0506 38.3124 14.1761C38.6417 14.67 38.7865 15.23 38.9166 15.7982C39.0236 16.2623 39.1191 16.7331 39.2854 17.1758C39.5422 17.8546 39.8665 18.5071 40.1431 19.1777C40.3127 19.589 40.4444 20.0152 40.5925 20.4347C40.339 20.367 40.176 20.1903 40.018 19.992C39.8846 19.8219 39.771 19.6072 39.5158 19.5725Z" fill="#9FADA7"/>
<path d="M33.727 7.29354C33.0487 7.43889 32.3704 7.58755 31.6905 7.7296C31.6576 7.73621 31.6181 7.70317 31.5391 7.67179C31.6049 7.53304 31.651 7.3976 31.7267 7.28197C32.2206 6.50894 32.8528 5.90604 33.722 5.56082C34.4234 5.28167 35.1263 5.04382 35.8918 5.08841C36.3808 5.11649 36.8549 5.20899 37.3027 5.41546C37.171 5.43859 37.0377 5.45346 36.9076 5.48484C36.4236 5.60046 35.9412 5.73261 35.5247 6.01837C34.9189 6.43461 34.3246 6.86738 33.727 7.29354Z" fill="#EBAF58"/>
<path d="M37.9603 12.4883C37.9225 12.6981 37.8682 12.9045 37.8484 13.116C37.8138 13.4827 37.8007 13.851 37.776 14.2177C37.7727 14.2573 37.7579 14.297 37.7463 14.3366C37.6904 14.3911 37.6163 14.4357 37.5817 14.5018C37.2656 15.0931 37.0187 15.7026 36.9627 16.3848C36.9298 16.7945 36.9594 17.1925 37.0318 17.5939C37.0401 17.6451 37.0351 17.698 37.0351 17.7492C36.989 17.7145 36.9281 17.6897 36.9001 17.6451C36.8392 17.551 36.803 17.442 36.7421 17.3478C36.589 17.11 36.4655 16.8424 36.1659 16.7466C36.161 16.4972 36.1824 16.2444 36.1478 16C36.0556 15.3442 36.1428 14.6951 36.1675 14.0426C36.1692 13.9865 36.2136 13.9303 36.2383 13.8741C36.268 13.8659 36.3042 13.8659 36.3272 13.8477C36.8162 13.4447 37.1948 12.9409 37.4516 12.3727C37.715 11.7896 37.8896 11.1652 38.1036 10.559C38.1464 10.5161 38.1892 10.4731 38.232 10.4302C38.2978 10.4533 38.3637 10.4764 38.4295 10.4995C38.1266 11.1289 37.9966 11.7978 37.9603 12.4883Z" fill="#5D7A6B"/>
<path d="M2.52148 30.8481C2.69764 30.7936 2.84251 30.863 2.99068 30.9489C3.30347 31.1322 3.62614 31.3007 3.94058 31.4824C4.68799 31.9152 5.47986 31.9234 6.28983 31.7368C7.01255 31.5716 7.63484 31.1999 8.20775 30.7441C8.84486 30.237 9.40295 29.6522 9.87544 28.9866C9.95117 28.8792 10.0022 28.7553 10.0664 28.638C10.1076 28.6513 10.1553 28.6843 10.1882 28.6744C10.343 28.6281 10.4944 28.5687 10.6459 28.5142C10.6146 28.6116 10.6031 28.7206 10.5504 28.8049C10.2919 29.2195 10.0516 29.6489 9.75361 30.0321C9.02101 30.977 8.11391 31.7087 6.99608 32.158C6.2355 32.4619 5.44858 32.5643 4.64684 32.3859C4.2649 32.3017 3.90107 32.1398 3.52901 32.0126C3.12567 31.6823 2.7816 31.3024 2.52148 30.8481Z" fill="#A98063"/>
<path d="M48.7037 23.1327C48.6938 23.1344 48.6806 23.131 48.6724 23.136C47.9151 23.5655 47.0343 23.6398 46.2441 23.9768C45.9643 24.0973 45.6465 24.1585 45.342 24.1832C45.1131 24.2014 44.8662 24.1485 44.6456 24.0742C44.0595 23.8776 43.694 23.4449 43.4619 22.8849C43.6397 22.8436 43.8175 22.7974 43.997 22.7594C44.2126 22.7132 44.4299 22.6719 44.6472 22.6289C45.2037 22.7214 45.7601 22.7264 46.3182 22.6405C46.4697 22.6173 46.6294 22.6355 46.7841 22.6504C47.2978 22.6999 47.8114 22.7578 48.325 22.8123C48.4518 22.8569 48.5769 22.9015 48.7037 22.9461C48.7037 23.0072 48.7037 23.0699 48.7037 23.1327Z" fill="#9693B7"/>
<path d="M32.9866 7.86054C33.418 7.79612 33.846 7.76638 34.3102 7.92991C32.6113 9.28602 31.1872 10.8767 29.6529 12.4442C29.6496 12.2609 29.6496 12.1221 29.643 11.985C29.6331 11.7521 29.6167 11.5176 29.6035 11.2847C29.6134 11.2549 29.6167 11.2219 29.6348 11.1988C30.2801 10.3762 31.0802 9.71053 31.8326 8.99696C32.226 8.62696 32.603 8.24044 32.9866 7.86054Z" fill="#C56F4A"/>
<path d="M33.7275 7.2933C34.3251 6.86714 34.9194 6.43437 35.5236 6.01647C35.9401 5.72906 36.4225 5.59857 36.9065 5.48295C37.0366 5.45156 37.1699 5.4367 37.3016 5.41357C37.9552 5.60518 38.6055 5.80009 39.0961 6.32205C39.0138 6.50044 38.8821 6.53182 38.7487 6.54504C38.3256 6.58964 37.9025 6.62928 37.4794 6.66727C36.9082 6.72013 36.3336 6.77629 35.8266 7.0604C35.4825 7.252 35.1368 7.31312 34.7548 7.29495C34.4124 7.28008 34.07 7.2933 33.7275 7.2933Z" fill="#C56F4A"/>
<path d="M3.5293 32.0122C3.90136 32.1394 4.26518 32.3013 4.64712 32.3855C5.44886 32.5639 6.23743 32.4631 6.99637 32.1575C8.1142 31.7099 9.0213 30.9765 9.7539 30.0317C10.0519 29.6485 10.2939 29.219 10.5507 28.8044C10.6034 28.7202 10.6149 28.6112 10.6462 28.5137C11.0396 28.3287 11.2421 27.967 11.4611 27.6218C11.5434 27.4946 11.6191 27.3624 11.7212 27.1973C11.7459 27.2716 11.7574 27.3046 11.7689 27.3377C11.6488 27.6234 11.4924 27.9009 11.4134 28.1982C11.1417 29.2141 10.6034 30.0681 9.86749 30.7981C8.85503 31.8024 7.66476 32.4962 6.26377 32.7968C5.69416 32.919 5.11796 32.9867 4.53518 32.881C4.44628 32.8017 4.36232 32.7158 4.26848 32.6432C4.01166 32.4483 3.71368 32.2979 3.5293 32.0122Z" fill="#261D3C"/>
<path d="M32.986 7.86035C32.6024 8.24026 32.2254 8.62513 31.8352 8.99677C31.0829 9.71199 30.2828 10.3777 29.6374 11.1986C29.6193 11.2217 29.616 11.2564 29.6061 11.2845C29.3279 11.6495 29.0513 12.0146 28.9773 12.4853C28.7254 12.4886 28.6332 12.7133 28.4801 12.852C28.4142 12.9115 28.3599 12.9858 28.3006 13.0519C28.0932 12.9594 28.1245 12.7447 28.141 12.6026C28.1887 12.2045 28.2825 11.8131 28.4735 11.448C28.5904 11.2234 28.7254 11.0252 28.9065 10.8468C29.5255 10.2356 30.1363 9.61784 30.7487 9.00008C30.8244 8.92244 30.9429 8.86298 30.9051 8.71927L30.9116 8.72588C30.9363 8.70606 30.961 8.68624 30.9841 8.66642C31.5043 8.33276 32.0163 7.97763 32.6501 7.88513C32.7588 7.87026 32.8724 7.86861 32.986 7.86035Z" fill="#EBAF58"/>
<path d="M41.3676 10.2928C41.2441 9.81544 41.1091 9.33973 41.0038 8.85741C40.9429 8.58487 40.9725 8.30737 41.0828 8.04474C41.1272 8.22974 41.1717 8.41473 41.2178 8.59973C41.2524 8.73848 41.2639 8.89375 41.4516 8.91853C41.5224 9.16795 41.5685 9.42727 41.6705 9.66348C41.873 10.1392 42.1644 10.2069 42.5743 9.90464C42.5908 9.89308 42.6073 9.87986 42.6237 9.86665C43.1917 9.39754 43.5078 8.79464 43.5275 8.05795C43.5374 7.6863 43.4781 7.313 43.4502 6.94135C43.4304 6.81251 43.4123 6.68202 43.3925 6.55318C43.353 6.30046 43.2394 6.09564 43.0089 5.9668C43.0106 5.76859 43.1143 5.6414 43.2872 5.54395C43.7448 5.89743 43.9704 6.37809 44.0807 6.91823C44.1251 7.13956 44.1268 7.37081 44.1465 7.59876C44.1548 7.69291 44.1432 7.79367 44.2782 7.80358C44.2799 8.15376 44.1581 8.4709 44.0115 8.78143C43.9589 8.89375 43.9062 9.00442 43.8535 9.11674C43.7959 9.20263 43.7448 9.29348 43.679 9.37277C43.4419 9.65687 43.223 9.9641 42.953 10.2119C42.4673 10.6479 41.924 10.6595 41.3676 10.2928Z" fill="#7A8682"/>
<path d="M36.1639 16.7466C36.4636 16.8424 36.587 17.11 36.7401 17.3478C36.801 17.442 36.8373 17.5526 36.8982 17.6451C36.9278 17.6897 36.9871 17.7162 37.0332 17.7492C37.178 18.324 37.4678 18.8262 37.7938 19.3118C37.8349 19.3746 37.8464 19.5001 37.8119 19.5662C37.4859 20.1757 37.1484 20.7786 36.8142 21.3831C36.4882 21.3583 36.4948 21.3583 36.4718 21.0462C36.424 20.3954 36.5146 19.7462 36.4701 19.0971C36.4471 18.7684 36.401 18.4397 36.3302 18.1192C36.2973 17.9722 36.2545 17.7839 36.0487 17.7459C36.0438 17.6005 36.0388 17.4552 36.0322 17.3098C36.0553 17.2173 36.08 17.1232 36.1014 17.0307C36.1244 16.9365 36.1442 16.8424 36.1639 16.7466Z" fill="#7A8682"/>
<path d="M50.699 15.0571C50.7023 15.7674 50.4471 16.3604 49.8758 16.7865C49.298 17.216 48.6773 17.1252 48.2263 16.5669C47.9546 16.2315 47.7999 15.8417 47.6797 15.3891C48.0106 15.4271 48.2938 15.4618 48.5769 15.4948C48.8963 15.4833 49.2173 15.4882 49.5351 15.4569C49.9499 15.4123 50.3269 15.2388 50.699 15.0571Z" fill="#AC6BAC"/>
<path d="M32.5411 29.7183C32.5131 30.5607 32.5592 31.3998 32.6564 32.2389C32.7403 32.9706 32.7979 33.7056 32.8654 34.4407C32.8885 34.6868 32.9099 34.9329 32.9313 35.1873C32.6267 35.3178 32.3353 35.2781 32.0522 35.2616C31.8958 35.2534 31.8744 35.0981 31.8727 34.9742C31.8678 34.6422 31.8629 34.3085 31.881 33.9749C31.904 33.5388 31.9468 33.1061 31.9797 32.67C31.9979 32.4321 32.0176 32.1943 32.0357 31.9564C32.1575 31.3205 32.2761 30.6845 32.4061 30.0503C32.4292 29.9346 32.495 29.8289 32.5411 29.7183Z" fill="#5D7A6B"/>
<path d="M46.9618 14.3781C46.896 14.1832 46.8548 13.9734 46.7593 13.7934C46.3461 13.0071 46.0679 12.168 45.7831 11.3339C45.6744 11.0168 45.4999 10.7062 45.5213 10.3494C45.8769 10.2371 46.1288 9.97283 46.4004 9.73828C46.4647 9.74158 46.5305 9.74654 46.5947 9.74984C46.4976 10.2404 46.4169 10.7326 46.4498 11.2381C46.4976 11.9996 46.7742 12.6338 47.4228 13.0683C47.5989 13.1872 47.6747 13.3309 47.6516 13.539C47.6302 13.7356 47.6352 13.9354 47.5989 14.1287C47.5528 14.3748 47.5364 14.3666 47.2894 14.3368C47.1824 14.3203 47.0705 14.3616 46.9618 14.3781Z" fill="#7A8682"/>
<path d="M39.5156 19.5728C39.7708 19.6074 39.8844 19.8222 40.021 19.994C40.1791 20.1922 40.3437 20.3689 40.5956 20.4366C40.7009 20.5754 40.8014 20.7174 40.9117 20.8529C41.5455 21.6226 42.2682 22.2998 43.0239 22.944C42.6485 23.0497 42.2748 23.1538 41.8994 23.2595C41.5307 22.8119 41.157 22.3692 40.7948 21.9166C40.2334 21.2113 39.8482 20.4052 39.5156 19.5728Z" fill="#879991"/>
<path d="M46.5928 9.7481C46.5286 9.74479 46.4628 9.73984 46.3986 9.73653C46.4035 9.69689 46.4085 9.65725 46.4134 9.61761C46.4216 9.58953 46.4299 9.56145 46.4381 9.53337C46.4611 9.29551 46.5105 9.056 46.5039 8.81815C46.4809 7.98565 46.3904 7.15151 46.6027 6.32727C46.583 6.31571 46.5649 6.30414 46.5451 6.29423C46.4776 6.36195 46.415 6.43463 46.3426 6.4974C46.2027 6.62129 46.071 6.75838 45.9162 6.85749C45.7417 6.96816 45.6298 6.91365 45.5573 6.71544C45.4833 6.51392 45.4865 6.32892 45.6643 6.1753C45.8619 6.00682 46.0578 5.83504 46.2521 5.6616C46.4134 5.51625 46.5698 5.36428 46.7492 5.1958C46.8908 5.50303 46.9484 5.83669 47.0126 6.16539C47.1756 7.00945 47.1476 7.84525 46.9073 8.67279C46.8019 9.02957 46.6982 9.38801 46.5928 9.7481Z" fill="#BCCCC4"/>
<path d="M22.8108 8.66947C22.8635 8.72728 22.903 8.81152 22.9688 8.8363C23.4496 9.02625 23.9352 9.20464 24.4176 9.38799C24.4538 9.40121 24.4851 9.43094 24.5476 9.47223C24.4686 9.50526 24.4192 9.53665 24.3649 9.54656C24.113 9.59777 23.8496 9.61594 23.6076 9.69687C23.3409 9.78442 23.1582 9.98924 23.0627 10.2601C23.0084 10.4154 22.9557 10.5707 22.9013 10.7325C22.6873 10.7193 22.5968 10.569 22.5095 10.4369C22.2511 10.0471 22.0091 9.64732 21.7572 9.2542C21.6963 9.1584 21.6222 9.0725 21.5547 8.98165C21.5893 8.73884 21.7753 8.66286 21.9728 8.62487C22.1227 8.59679 22.2823 8.61496 22.4371 8.61166C22.5474 8.62817 22.6593 8.64469 22.7696 8.66121C22.7861 8.65295 22.7993 8.6546 22.8108 8.66947Z" fill="#C27EB5"/>
<path d="M48.2046 11.1737C48.1618 10.9276 48.2754 10.8054 48.4976 10.6997C49.0821 10.4222 49.6714 10.1694 50.3168 10.0868C50.6032 10.0505 50.8946 10.0522 51.1844 10.0356C50.9391 10.1612 50.6971 10.2917 50.4501 10.4139C50.162 10.556 49.8657 10.6831 49.5809 10.8318C48.8647 11.2068 48.5585 11.8344 48.5223 12.6157C48.5075 12.9477 48.5207 13.2814 48.5207 13.691C48.4482 13.5903 48.4104 13.5506 48.3906 13.5044C48.1009 12.7991 48.1042 12.0624 48.1585 11.3207C48.1601 11.2712 48.1881 11.2233 48.2046 11.1737Z" fill="#58396F"/>
<path d="M41.3677 10.2933C41.9225 10.6616 42.4658 10.65 42.9515 10.2057C43.2231 9.95795 43.4404 9.65072 43.6775 9.36661C43.7433 9.28733 43.7944 9.19648 43.852 9.11059C43.9129 9.14528 43.9804 9.17005 44.0314 9.21465C44.2636 9.41121 44.3278 9.40626 44.4562 9.14032C44.5023 9.04452 44.5517 8.98835 44.6554 8.9834C44.3097 9.75643 43.8882 10.4568 43.0601 10.8136C42.1283 11.215 41.3233 10.7657 40.8887 10.1149C40.9578 10.1463 41.0253 10.1826 41.0961 10.209C41.1867 10.2421 41.2788 10.2652 41.3677 10.2933Z" fill="#0F2416"/>
<path d="M48.7038 22.9438C48.5771 22.8992 48.452 22.8546 48.3252 22.81C48.4157 22.3657 48.4915 21.9164 48.6018 21.4771C48.7944 20.7057 49.0117 19.9392 49.2142 19.1695C49.2751 18.9399 49.3409 18.7103 49.3772 18.4758C49.3936 18.3635 49.3459 18.2412 49.3278 18.1223C49.3459 18.076 49.3656 18.0314 49.3838 17.9852C49.5056 17.9191 49.6274 17.8547 49.7986 17.7622C49.7986 17.9043 49.8052 17.9835 49.797 18.0595C49.7377 18.7235 49.5484 19.3611 49.3903 20.0053C49.1516 20.9848 48.9327 21.966 48.7038 22.9438Z" fill="#B9BDBB"/>
<path d="M3.5291 32.0126C3.71348 32.2984 4.00981 32.4487 4.26992 32.6453C4.36541 32.7163 4.44772 32.8022 4.53662 32.8831C3.19161 32.8385 2.10671 31.9945 1.91409 30.678C1.87787 30.4352 1.89269 30.1841 1.88281 29.938C1.99311 30.0586 2.10177 30.1791 2.21207 30.2997C2.31414 30.4831 2.41785 30.6664 2.52157 30.8481C2.78168 31.3024 3.12576 31.6823 3.5291 32.0126Z" fill="#58396F"/>
<path d="M51.2716 17.1052C51.0691 17.0028 50.9127 16.9251 50.7432 16.8392C50.8222 16.6625 50.8979 16.5056 50.9654 16.3454C51.1383 15.939 51.2206 15.5129 51.2617 15.0751C51.2815 14.8571 51.2996 14.6391 51.3375 14.4243C51.3836 14.1716 51.484 14.089 51.6783 14.1055C51.8989 14.1221 52.0668 14.2575 52.0618 14.4772C52.0585 14.7233 52.0322 14.9793 51.9565 15.2106C51.8692 15.4732 51.7276 15.721 51.5877 15.9621C51.4478 16.2 51.3506 16.4461 51.3194 16.7187C51.3078 16.8293 51.293 16.9416 51.2716 17.1052Z" fill="#BCCCC4"/>
<path d="M44.2784 7.79895C44.1434 7.79069 44.1533 7.68827 44.1467 7.59412C44.1286 7.36783 44.1269 7.13658 44.0808 6.91359C43.9722 6.37346 43.7467 5.89279 43.2873 5.53931C43.1128 5.63677 43.0108 5.76395 43.0091 5.96217C42.8428 6.11248 42.6782 6.26444 42.5119 6.41476C42.293 6.42797 42.1827 6.22645 42.0049 6.15873C42.0148 6.13891 42.0263 6.12074 42.0362 6.10257C42.0526 6.07779 42.0674 6.05302 42.0839 6.02659C42.3341 5.52445 42.5827 5.02066 42.9877 4.58789C43.0503 4.64405 43.1079 4.68369 43.1507 4.73655C43.8043 5.55088 44.2554 6.44944 44.2932 7.51814C44.2949 7.61229 44.2833 7.70645 44.2784 7.79895Z" fill="#BCCCC4"/>
<path d="M60.7452 10.2169C60.5411 10.2962 60.1065 10.5291 60.0851 10.5589C60.0522 10.6035 60.0192 10.6662 59.9715 10.6811C59.7048 10.7719 59.4299 10.8132 59.1516 10.7389C59.0594 10.7141 58.959 10.696 58.9228 10.5638C58.9096 10.5176 58.7746 10.5044 58.694 10.4779C58.312 10.3557 57.9301 10.2335 57.5498 10.1112C57.9317 9.8932 58.4355 9.49512 58.8553 9.44062C59.1204 9.40593 59.5319 9.30021 59.8118 9.28039C59.8134 9.57771 59.8365 9.75775 59.522 9.97579C59.6735 10.0765 60.9461 9.11191 61.0218 9.12017C61.0037 9.24736 60.7452 10.2169 60.7452 10.2169Z" fill="#F2C369"/>
<path d="M43.6478 25.0103C43.712 25.0549 43.7911 25.0862 43.8372 25.1457C44.0051 25.3538 44.173 25.5652 44.3245 25.7882C44.6488 26.2672 45.1328 26.5068 45.6464 26.7132C46.1765 26.928 46.7247 26.9726 47.2878 26.956C47.4672 26.9511 47.6483 26.9924 47.8294 27.0122C47.6253 27.075 47.4244 27.1724 47.2153 27.1956C46.244 27.3029 45.3419 27.0832 44.5121 26.5679C44.1993 26.3746 43.9244 26.1351 43.745 25.8081C43.61 25.5603 43.5128 25.296 43.6478 25.0103Z" fill="#6E658E"/>
<path d="M15.7849 30.8045C15.6318 30.5881 15.7454 30.385 15.8195 30.1801C15.8393 30.1256 15.8623 30.0711 15.8837 30.015C16.0977 29.5607 16.3035 29.1032 16.5274 28.6539C16.692 28.3219 16.8764 27.9998 17.0559 27.676C17.0888 27.6166 17.1448 27.567 17.1892 27.5142C17.2518 27.5522 17.316 27.5835 17.3752 27.6281C17.5349 27.7487 17.5547 27.8181 17.474 28.0014C17.423 28.1154 17.3604 28.2244 17.2979 28.3318C16.8995 29.0156 16.5027 29.6995 16.0994 30.38C16.0088 30.5303 15.8903 30.6641 15.7849 30.8045Z" fill="#879991"/>
<path d="M50.6992 15.057C50.3271 15.2404 49.9501 15.4122 49.5353 15.4551C49.2175 15.4882 48.8965 15.4816 48.5771 15.4931C48.4487 15.2453 48.3187 14.9976 48.1902 14.7482C48.126 14.6243 48.0684 14.4971 48.0059 14.3732C48.0256 14.3583 48.0437 14.3435 48.0635 14.3286C48.182 14.4046 48.294 14.4921 48.4191 14.5549C48.6496 14.6722 48.8784 14.7977 49.122 14.877C49.5748 15.0257 49.9798 14.9034 50.3337 14.5912C50.4242 14.512 50.523 14.4426 50.6432 14.3484C50.742 14.6078 50.7025 14.8341 50.6992 15.057Z" fill="#6E658E"/>
<path d="M42.0052 6.16016C42.183 6.22788 42.295 6.42774 42.5123 6.41618C42.402 6.5764 42.2769 6.72837 42.1847 6.8985C42.0892 7.07524 42.0266 7.27015 41.9493 7.4568C41.8669 7.57243 41.7879 7.693 41.7007 7.80532C41.4422 8.13733 41.3401 8.50238 41.4537 8.91697C41.2661 8.8922 41.2529 8.73693 41.22 8.59818C41.1739 8.41318 41.1294 8.22818 41.085 8.04318C41.1064 7.5526 41.2463 7.10497 41.5558 6.71846C41.7056 6.53346 41.8554 6.34681 42.0052 6.16016Z" fill="#B9BDBB"/>
<path d="M50.769 11.4342C50.4002 11.8472 50.0841 12.2965 49.8339 12.792C49.6446 13.1653 49.3663 13.1901 49.0684 12.8795C49.0865 12.7986 49.1112 12.7193 49.121 12.6384C49.1918 12.0421 49.5672 11.682 50.0677 11.4342C50.2899 11.3252 50.5336 11.2988 50.769 11.4342Z" fill="#F2C369"/>
<path d="M51.3545 11.5238C51.6969 11.2 52.0904 10.944 52.525 10.7805C53.1934 10.5294 53.875 10.3196 54.5532 10.0983C54.6454 10.0686 55.4044 9.79768 55.5179 9.8142C55.3813 10.0884 54.4857 10.5129 54.252 10.6715C54.1779 10.6682 54.0939 10.6434 54.0281 10.6665C53.4535 10.8746 52.8822 11.0976 52.3077 11.3058C52.0015 11.4181 51.7002 11.5766 51.3545 11.5238Z" fill="#C59851"/>
<path d="M51.3541 11.5238C51.7014 11.575 52.0011 11.4181 52.3089 11.3057C52.8835 11.0976 53.4547 10.8746 54.0293 10.6665C54.0951 10.6434 54.1774 10.6682 54.2532 10.6715C53.9404 10.8911 53.6276 11.1125 53.3115 11.3272C53.0464 11.5073 52.7765 11.6823 52.5098 11.8591C51.9648 11.8855 51.4199 11.9119 50.875 11.9384C50.9606 11.7154 51.1697 11.6344 51.3541 11.5238Z" fill="#E3CE7B"/>
<path d="M10.4685 27.8299C10.3236 27.7175 10.4356 27.5772 10.4751 27.4946C10.6183 27.1906 10.5936 26.8636 10.6397 26.5497C10.7154 26.0393 10.722 25.5174 10.7829 25.0037C10.8192 24.6915 10.9031 24.3826 10.9673 24.0737C11.1073 24.7923 11.2933 25.5108 11.1468 26.2491C11.0315 26.8206 10.7912 27.3442 10.4685 27.8299Z" fill="#C59851"/>
<path d="M32.5409 29.7179C32.4948 29.8286 32.429 29.9343 32.4059 30.0499C32.2775 30.6842 32.1574 31.3202 32.0355 31.9561C31.945 31.8586 31.9104 31.7579 31.9565 31.6175C32.0174 31.4325 32.0471 31.2376 32.0899 31.046C32.159 30.7305 32.0701 30.6115 31.7441 30.5818C31.8544 29.8732 32.0487 29.1877 32.2956 28.5171C32.5936 28.6492 32.6051 28.6955 32.564 29.0027C32.5344 29.2373 32.5475 29.4784 32.5409 29.7179Z" fill="#0F2416"/>
<path d="M50.7697 11.4344C50.5359 11.2973 50.2906 11.3254 50.0683 11.4361C49.5679 11.6855 49.1925 12.0456 49.1217 12.6402C49.1118 12.7212 49.0872 12.8005 49.069 12.8814C48.7069 12.5609 48.6641 12.1728 48.9785 11.8209C49.1086 11.6756 49.2682 11.5468 49.4362 11.451C50.093 11.081 50.8223 10.9075 51.5302 10.6763C51.5434 10.6944 51.5549 10.7143 51.5681 10.7324C51.3014 10.967 51.0347 11.2015 50.7697 11.4344Z" fill="#C59851"/>
<path d="M52.7422 12.1184C53.0253 11.7649 53.3497 11.4775 53.8205 11.4164C53.9325 11.4114 54.0444 11.3999 54.1563 11.4015C54.5432 11.4081 54.9285 11.418 55.3137 11.428C55.289 11.6047 55.1178 11.603 55.0108 11.6807C54.9861 11.6955 54.9597 11.7121 54.935 11.7269L54.9301 11.7286C54.7885 11.7567 54.6453 11.7781 54.5054 11.8128C53.9259 11.9615 53.3595 12.1861 52.7422 12.1184Z" fill="#E3CE7B"/>
<path d="M51.756 12.6733C51.542 13.197 51.1436 13.5323 50.6316 13.7189C50.3139 13.8345 50.0801 13.6314 50.085 13.2895C50.0867 13.1672 50.1245 13.0466 50.1459 12.9244C50.5509 13.0202 50.9345 12.9277 51.3165 12.7989C51.4597 12.751 51.6078 12.7146 51.756 12.6733Z" fill="#C56F4A"/>
<path d="M30.2363 9.14697C30.0717 9.33032 29.9251 9.53679 29.7391 9.69536C29.2041 10.1513 28.646 10.5791 28.1126 11.0383C27.9216 11.2018 27.7241 11.2662 27.4854 11.2348C27.6533 11.03 27.7949 10.7905 27.9973 10.6286C28.3908 10.3148 28.8155 10.0373 29.237 9.75813C29.5613 9.54175 29.9021 9.35014 30.2363 9.14697Z" fill="#EBAF58"/>
<path d="M54.9795 10.7011C55.0075 10.673 55.0322 10.635 55.0651 10.6185C55.638 10.3311 56.2093 10.0387 56.7904 9.76454C57.0044 9.66378 57.2365 9.60432 57.4637 9.5366C57.5246 9.51843 57.9477 9.33178 58.035 9.38794C57.7683 9.60762 57.1526 10.0272 56.8859 10.2469C56.8628 10.2452 56.8382 10.2452 56.8151 10.2436L56.82 10.2403C56.7311 10.2617 56.6389 10.2749 56.5533 10.3063C56.3097 10.3939 56.0743 10.5062 55.824 10.5739C55.5508 10.6482 55.2775 10.7688 54.9795 10.7011Z" fill="#C56F4A"/>
<path d="M59.5991 9.13732C59.8131 9.03657 60.1292 9.00518 60.2148 9.06134C59.9596 9.37683 60.1539 9.21992 59.7637 9.75014C59.6748 9.77161 59.0196 9.41152 59.5991 9.13732Z" fill="#C56F4A"/>
<path d="M51.7566 12.6735C51.61 12.7148 51.4602 12.7511 51.3154 12.799C50.9334 12.9279 50.5498 13.0187 50.1449 12.9246C50.1383 12.6421 50.2321 12.4158 50.4972 12.2837C50.7869 12.292 51.075 12.2986 51.3647 12.3068C51.4767 12.3118 51.5886 12.3068 51.6989 12.3233C51.8916 12.3498 51.9047 12.3927 51.8109 12.614C51.7928 12.6339 51.7747 12.6537 51.7566 12.6735Z" fill="#E3CE7B"/>
<path d="M52.7423 12.1183C53.3596 12.1861 53.9259 11.9614 54.5071 11.8128C54.647 11.7764 54.7902 11.7566 54.9318 11.7285C54.6503 11.9978 54.3276 12.2059 53.9572 12.3149C53.5506 12.4355 53.1374 12.5313 52.7242 12.6271C52.6237 12.6502 52.5134 12.6254 52.3916 12.6221C52.4393 12.3661 52.5957 12.2455 52.7423 12.1183Z" fill="#C56F4A"/>
<path d="M57.5476 10.1118C57.9295 10.234 58.3098 10.3563 58.6917 10.4785C57.9838 11.0335 57.1212 11.0996 56.2931 11.3143C56.2223 11.088 56.3309 11.0071 56.4396 10.9278C57.1722 10.9261 57.9262 10.789 58.1995 10.5859C58.0991 10.5215 58.0184 10.4405 57.9213 10.4141C57.7155 10.3546 57.5015 10.3216 57.2924 10.2786C57.378 10.2225 57.4636 10.168 57.5476 10.1118Z" fill="#C56F4A"/>
<path d="M45.5276 8.66765C45.4946 8.83448 45.4601 9.00296 45.4239 9.18796C45.2856 9.07234 45.1901 8.92698 45.1489 8.74694C45.1259 8.64618 45.1193 8.53716 45.0748 8.44632C45.0452 8.38355 44.9629 8.34556 44.9053 8.29766C44.9053 7.90784 44.9053 7.51802 44.9053 7.14307C45.1176 7.28842 45.5012 8.2002 45.5276 8.66765Z" fill="#7A8682"/>
<path d="M57.2942 10.2783C57.5049 10.3229 57.7173 10.3543 57.9231 10.4138C58.0185 10.4418 58.0992 10.5211 58.2013 10.5856C57.928 10.7887 57.174 10.9258 56.4414 10.9275C56.6455 10.607 56.9682 10.4418 57.2942 10.2783Z" fill="#E3CE7B"/>
<path d="M54.9798 10.7011C55.2778 10.7688 55.5511 10.6482 55.826 10.5739C56.0746 10.5062 56.31 10.3938 56.5553 10.3063C56.6409 10.2749 56.7331 10.2617 56.822 10.2402C56.8121 10.2749 56.8121 10.3228 56.7891 10.3426C56.5751 10.521 56.3561 10.6928 56.1388 10.8663C55.6202 10.9158 55.1033 10.9687 54.5847 11.0149C54.4974 11.0232 54.4085 11.0083 54.3213 11.005C54.5402 10.9042 54.7608 10.8018 54.9798 10.7011Z" fill="#F2C369"/>
<path d="M51.3637 12.3051C51.0739 12.2968 50.7858 12.2902 50.4961 12.2819C50.6212 12.1663 50.748 12.0507 50.8731 11.9367C51.418 11.9103 51.9629 11.8839 52.5079 11.8574C52.4354 11.9433 52.363 12.0292 52.2905 12.1151C52.2033 12.2175 52.0946 12.234 51.9596 12.234C51.7621 12.2357 51.5629 12.2803 51.3637 12.3051Z" fill="#C56F4A"/>
<path d="M54.321 11.005C54.4083 11.0083 54.4972 11.0231 54.5844 11.0149C55.103 10.9686 55.6199 10.9174 56.1385 10.8662C55.9656 11.0132 55.7944 11.1602 55.6216 11.3072C55.559 11.3089 55.4948 11.3238 55.4355 11.3105C55.024 11.2164 54.614 11.2412 54.1992 11.2973C54.1086 11.3089 54.0099 11.2593 53.916 11.2379C54.0527 11.1619 54.186 11.0826 54.321 11.005Z" fill="#C56F4A"/>
<path d="M49.7943 13.4844C49.7795 13.6149 49.7877 13.7536 49.7449 13.8742C49.6527 14.1335 49.3992 14.2045 49.2082 14.0096C49.0699 13.8676 48.9827 13.6727 48.874 13.5025C49.1819 13.4959 49.4881 13.491 49.7943 13.4844Z" fill="#C56F4A"/>
<path d="M60.7347 10.2271C60.8845 10.057 61.0327 9.88352 61.1841 9.71503C61.6122 9.14352 61.9892 9.31531 61.5628 9.90004C61.3586 10.1924 61.0771 10.3609 60.6787 10.4402C60.7083 10.3378 60.7347 10.2271 60.7347 10.2271Z" fill="#E3CE7B"/>
<path d="M49.7935 13.4844C49.4873 13.491 49.1811 13.496 48.8749 13.5026C48.786 13.3044 48.6724 13.1095 48.7777 12.8237C49.0675 13.0698 49.3556 13.2714 49.7688 13.169C49.7787 13.2945 49.7852 13.3903 49.7935 13.4844Z" fill="#EBAF58"/>
<path d="M53.9178 11.2393C54.0116 11.2607 54.1104 11.3103 54.2009 11.2987C54.6141 11.2426 55.0257 11.2178 55.4373 11.3119C55.4965 11.3252 55.5607 11.3103 55.6233 11.3086C55.5212 11.3483 55.4175 11.3879 55.3154 11.4276C54.9302 11.4193 54.5433 11.4077 54.1581 11.4011C54.0462 11.3995 53.9342 11.411 53.8223 11.416C53.8239 11.34 53.8091 11.2558 53.9178 11.2393Z" fill="#261D3C"/>
<path d="M39.5342 7.79393C39.2214 7.79393 38.9102 7.79558 38.5974 7.79558C38.2221 7.79393 37.8451 7.79228 37.4697 7.79063C37.5487 7.77246 37.6294 7.74108 37.7084 7.74108C38.2468 7.73777 38.7868 7.74108 39.3251 7.74603C39.3959 7.74603 39.465 7.77742 39.5342 7.79393Z" fill="#7A8682"/>
<path d="M40.7827 9.97628C40.7597 9.93829 40.735 9.9003 40.7119 9.8623C40.7366 9.9003 40.7597 9.93829 40.7827 9.97628Z" fill="#0F2416"/>
<path d="M54.9355 11.7269C54.9602 11.712 54.9866 11.6955 55.0113 11.6807C54.9866 11.6955 54.9619 11.7104 54.9355 11.7269Z" fill="#C56F4A"/>
<path d="M51.7559 12.6734C51.774 12.6536 51.7921 12.6321 51.8102 12.6123C51.7921 12.6338 51.774 12.6536 51.7559 12.6734Z" fill="#C56F4A"/>
<path d="M56.8154 10.2437C56.8385 10.2453 56.8632 10.2453 56.8862 10.247C56.8632 10.2453 56.8401 10.2453 56.8154 10.2437Z" fill="#F2C369"/>
<path d="M27.7598 9.93789C27.7795 9.92468 27.7976 9.91312 27.8174 9.8999C27.7976 9.91312 27.7779 9.92468 27.7598 9.93789Z" fill="#58396F"/>
<path d="M42.0839 6.02832C42.0674 6.0531 42.0526 6.07787 42.0361 6.1043C42.0509 6.07787 42.0674 6.0531 42.0839 6.02832Z" fill="#B9BDBB"/>
<path d="M36.1644 16.7468C36.143 16.841 36.1249 16.9368 36.1018 17.031C36.0804 17.1251 36.0557 17.2176 36.0327 17.3101C35.9915 17.2721 35.929 17.2407 35.9108 17.1928C35.6376 16.4429 35.333 15.7029 35.1931 14.9117C35.1173 14.4856 35.0515 14.0544 35.1305 13.6151C35.1947 13.2517 35.1865 12.8685 35.3017 12.5232C35.4318 12.1334 35.3972 11.7502 35.4137 11.3604C35.5273 11.3538 35.6441 11.3637 35.7528 11.3373C35.9125 11.2976 36.0524 11.1886 36.0689 11.0267C36.1051 10.7063 36.3438 10.5229 36.5117 10.2967C36.7076 10.0324 36.925 9.7813 37.1456 9.53684C37.5357 9.10407 37.9786 8.7605 38.5926 8.73242C38.5301 9.03635 38.4675 9.33862 38.4017 9.64255C38.3457 9.90518 38.2864 10.1678 38.2272 10.4288C38.1844 10.4717 38.1416 10.5147 38.0988 10.5576C37.9391 10.4371 37.7909 10.5064 37.6822 10.6237C37.5077 10.812 37.3332 11.0086 37.2015 11.2283C36.9974 11.5652 36.8476 11.9352 36.6385 12.2672C36.3685 12.7016 36.2302 13.1674 36.1973 13.6712C36.1924 13.7373 36.2203 13.8067 36.2335 13.8744C36.2088 13.9306 36.166 13.9851 36.1627 14.0429C36.138 14.6953 36.0508 15.3461 36.143 16.0002C36.1825 16.2447 36.1611 16.4991 36.1644 16.7468Z" fill="#B9BDBB"/>
<path d="M31.0488 15.4353C31.0686 15.3923 31.0883 15.3511 31.1081 15.3081C31.09 15.3511 31.0686 15.3923 31.0488 15.4353Z" fill="#A5B7AE"/>
<path d="M4.69141 30.4581C5.45693 30.1789 5.98209 29.6123 6.42165 28.9582C6.90895 28.2331 7.34192 27.4766 7.54277 26.6127C7.60039 26.3616 7.63332 26.104 7.65142 25.8463C7.6827 25.4218 7.69258 24.9973 7.71234 24.5711C7.85557 24.5348 8.00044 24.4984 8.14366 24.4604C8.12226 25.0832 8.11074 25.7059 8.07781 26.3286C8.0169 27.4667 7.63167 28.4743 6.83322 29.3051C6.55171 29.5975 6.26031 29.8783 5.97715 30.1673C5.90472 30.24 5.84051 30.321 5.77302 30.3986C5.64296 30.4267 5.51455 30.4531 5.38449 30.4812C5.16554 30.4795 4.94494 30.4795 4.72598 30.4779C4.7161 30.4696 4.70458 30.463 4.69141 30.4581Z" fill="#58396F"/>
<path d="M4.72656 30.4766C4.94552 30.4782 5.16612 30.4782 5.38508 30.4799C5.16612 30.4799 4.94552 30.4782 4.72656 30.4766Z" fill="#AE6CAD"/>
<path d="M9.08452 27.9507C9.07793 27.9771 9.07135 28.0035 9.06641 28.03C9.07299 28.0052 9.08122 27.9788 9.08781 27.954L9.08452 27.9507Z" fill="#A98063"/>
<path d="M43.0255 22.9444C42.2699 22.3002 41.5455 21.623 40.9133 20.8532C40.803 20.7194 40.7026 20.5757 40.5973 20.437C40.4491 20.0174 40.3174 19.5913 40.1478 19.18C39.8712 18.5077 39.5469 17.8553 39.2901 17.178C39.1222 16.7354 39.0283 16.2646 38.9213 15.8005C38.7896 15.2322 38.6464 14.6723 38.3171 14.1784C38.2332 14.0529 38.2266 13.924 38.2612 13.7655C38.3665 13.2765 38.3599 12.776 38.3468 12.2772C38.3451 12.2376 38.3303 12.1963 38.3155 12.1599C38.3089 12.1451 38.2826 12.1401 38.2645 12.1302C38.1426 12.1467 38.1624 12.2458 38.164 12.3235C38.1657 12.4672 38.0867 12.5019 37.9648 12.4903C37.9994 11.7982 38.1295 11.1292 38.434 10.5015C38.6546 10.2736 38.8736 10.044 39.1008 9.80615C39.4975 10.1365 39.891 10.4652 40.2861 10.7956C40.2614 10.9062 40.2433 11.0202 40.2104 11.1276C40.0622 11.6049 39.9552 12.0889 39.9717 12.5944C39.9848 13.0073 39.9651 13.4219 39.9782 13.8348C39.9881 14.1239 40.0178 14.4146 40.0573 14.702C40.1034 15.0505 40.161 15.3974 40.2268 15.7426C40.3124 16.2002 40.3915 16.661 40.5083 17.112C40.6664 17.7248 40.8541 18.3293 41.0368 18.9339C41.1965 19.4624 41.3957 19.9712 41.7282 20.4221C42.0312 20.8334 42.3752 21.1968 42.7621 21.5305C43.1687 21.8806 43.5968 22.1747 44.089 22.3811C44.2783 22.4604 44.466 22.5463 44.6537 22.6289C44.4364 22.6718 44.2207 22.7131 44.0034 22.7594C43.824 22.7974 43.6462 22.842 43.4684 22.8849C43.3169 22.9031 43.172 22.9229 43.0255 22.9444Z" fill="#B9BDBB"/>
<path d="M46.1289 25.9572C46.5125 25.4138 46.9998 24.9761 47.4739 24.5103C47.6616 24.8621 47.4756 25.4319 47.0805 25.8003C46.7907 26.0695 46.4137 26.1439 46.1289 25.9572Z" fill="#131618"/>
<path d="M48.685 25.1758C48.8496 25.9389 48.2751 26.6211 47.5557 26.626C48.0067 26.19 48.4249 25.7787 48.685 25.1758Z" fill="#131618"/>
<path d="M44.6476 22.6286C44.4599 22.546 44.2722 22.4601 44.0829 22.3808C43.5907 22.1744 43.161 21.8803 42.756 21.5302C42.3675 21.1965 42.025 20.8315 41.7221 20.4218C41.3896 19.9709 41.1904 19.4621 41.0307 18.9336C40.8479 18.329 40.6603 17.7228 40.5022 17.1117C40.3853 16.6607 40.3063 16.2015 40.2207 15.7423C40.1549 15.3971 40.0972 15.0502 40.0511 14.7017C40.0133 14.4143 39.982 14.1252 39.9721 13.8345C39.9589 13.4216 39.9787 13.007 39.9655 12.5941C39.9491 12.087 40.0561 11.6046 40.2042 11.1273C40.2372 11.0183 40.2553 10.9059 40.28 10.7953C40.4199 10.863 40.5615 10.9225 40.6965 10.9984C41.1821 11.2677 41.6826 11.5154 42.2506 11.4775C42.5963 11.4543 42.9486 11.3701 43.2779 11.2545C43.7372 11.0926 44.1751 10.8746 44.6245 10.6846C44.7151 10.6466 44.8138 10.6268 44.9274 10.5938C44.962 10.7804 45.0015 10.9324 45.0163 11.0843C45.0641 11.57 45.1003 12.0572 45.1497 12.5428C45.1645 12.6866 45.1941 12.8319 45.2369 12.969C45.2979 13.1606 45.3703 13.1936 45.5629 13.154C45.8559 13.0929 45.9037 13.1045 45.9959 13.3935C46.3136 14.3829 46.6132 15.3789 46.7713 16.4113C46.796 16.5748 46.8075 16.7433 46.8421 16.9052C46.898 17.1629 47.0001 17.3958 47.1911 17.5907C47.5829 17.9954 48.0587 18.2283 48.6118 18.2993C48.8653 18.3323 49.1024 18.2448 49.3263 18.1258C49.3444 18.2431 49.3922 18.367 49.3757 18.4793C49.3395 18.7139 49.2736 18.9435 49.2127 19.1731C49.0086 19.9428 48.7929 20.7076 48.6003 21.4806C48.49 21.92 48.4143 22.3693 48.3237 22.8136C47.8101 22.7591 47.2964 22.7013 46.7828 22.6517C46.6281 22.6369 46.4684 22.6187 46.3169 22.6418C45.7605 22.7244 45.204 22.7211 44.6476 22.6286ZM43.1709 17.1794C42.2226 17.9045 42.3872 19.1615 43.2729 19.8074C43.4902 19.9659 43.7306 19.9874 43.9742 19.8388C44.1241 19.7479 44.2788 19.667 44.4319 19.5811C44.7908 19.3168 45.1876 19.0938 45.5003 18.7833C46.6412 17.6501 45.8741 16.2808 44.9357 15.8431C44.5949 15.6829 44.2706 15.7143 44.0319 16.005C43.724 16.3799 43.4557 16.7863 43.1709 17.1794ZM45.7539 13.6347C45.3324 13.8279 45.0954 13.6264 44.8945 13.3456C44.7793 13.1854 44.6789 13.0153 44.5653 12.8534C44.5093 12.7741 44.4401 12.7064 44.3447 12.5974C44.3134 12.7146 44.287 12.7708 44.2837 12.8286C44.2409 13.5686 44.6064 14.0939 45.176 14.5068C45.2007 14.525 45.2287 14.5398 45.2567 14.5531C45.5843 14.705 45.8247 14.5663 45.828 14.2078C45.8312 14.0328 45.7852 13.861 45.7539 13.6347Z" fill="#C5D5CD"/>
<path d="M8.14386 24.462C8.00063 24.4984 7.85576 24.5347 7.71253 24.5727C7.69113 23.9301 7.65985 23.2876 7.6582 22.6451C7.6582 22.4799 7.72899 22.3064 7.80143 22.1512C7.83106 22.0868 7.95618 22.019 8.02368 22.0306C8.09282 22.0422 8.17184 22.1413 8.19983 22.2189C8.24428 22.3428 8.26897 22.4815 8.27062 22.6137C8.27556 23.129 8.29038 23.646 8.16032 24.1515C8.13398 24.2489 8.14715 24.358 8.14386 24.462Z" fill="#AC6BAC"/>
<path d="M36.2377 13.8742C36.2245 13.8065 36.1982 13.7387 36.2015 13.671C36.2344 13.1672 36.3727 12.7014 36.6427 12.267C36.8501 11.9333 37.0015 11.5633 37.2057 11.228C37.339 11.01 37.5119 10.8118 37.6864 10.6235C37.7951 10.5062 37.9416 10.4385 38.1029 10.5574C37.8889 11.1636 37.7144 11.788 37.451 12.3711C37.1942 12.9393 36.8155 13.4431 36.3266 13.8461C36.3035 13.8659 36.2673 13.8659 36.2377 13.8742Z" fill="#879991"/>
<path d="M41.454 8.91731C41.3404 8.50271 41.4441 8.13767 41.7009 7.80566C41.7882 7.69334 41.8672 7.57276 41.9495 7.45714C42.1108 7.39932 42.2738 7.34481 42.4318 7.2804C42.7644 7.1466 43.0755 6.94674 43.4509 6.93848C43.4789 7.31013 43.5382 7.68343 43.5283 8.05508C43.5102 8.79177 43.1941 9.39467 42.6245 9.86378C42.608 9.87699 42.5915 9.8902 42.5751 9.90176C42.1652 10.2057 41.8738 10.1363 41.6713 9.66061C41.5725 9.42605 41.5247 9.16673 41.454 8.91731Z" fill="#0F2416"/>
<path d="M43.4506 6.93841C43.0753 6.94502 42.7658 7.14654 42.4316 7.28033C42.2735 7.34475 42.1106 7.39761 41.9492 7.45707C42.0266 7.27042 42.0892 7.07551 42.1846 6.89877C42.2768 6.72864 42.4019 6.57667 42.5123 6.41645C42.6785 6.26614 42.8432 6.11418 43.0094 5.96387C43.2399 6.09271 43.3535 6.29753 43.393 6.55025C43.4128 6.67909 43.4309 6.80958 43.4506 6.93841Z" fill="#5D7A6B"/>
<path d="M43.17 17.1797C43.4549 16.7865 43.7232 16.3785 44.0311 16.0052C44.2698 15.7162 44.5941 15.6848 44.9349 15.8434C45.8732 16.2811 46.6404 17.6504 45.4995 18.7835C45.1867 19.0941 44.79 19.3171 44.4311 19.5813C44.064 19.4674 43.8121 19.2097 43.608 18.9008C43.2655 18.3805 43.119 17.804 43.17 17.1797ZM45.1308 18.3062C45.2822 18.2979 45.4485 18.1228 45.4485 17.9709C45.4502 17.8321 45.2987 17.6884 45.162 17.6967C45.0205 17.7066 44.8443 17.8932 44.8427 18.0353C44.841 18.1757 44.9875 18.3144 45.1308 18.3062Z" fill="#131618"/>
<path d="M43.1706 17.1792C43.1196 17.8036 43.2661 18.3784 43.6085 18.9003C43.8126 19.2092 44.0645 19.4669 44.4316 19.5809C44.2785 19.6668 44.1221 19.7477 43.974 19.8386C43.7303 19.9872 43.49 19.9658 43.2727 19.8072C42.387 19.163 42.2223 17.906 43.1706 17.1792Z" fill="#C27EB5"/>
<path d="M45.7541 13.6347C45.7854 13.861 45.8315 14.0327 45.8299 14.2062C45.8266 14.5646 45.5862 14.7034 45.2586 14.5514C45.2306 14.5382 45.2026 14.5233 45.1779 14.5052C44.6067 14.0922 44.2428 13.567 44.2856 12.827C44.2889 12.7691 44.3153 12.7113 44.3465 12.5957C44.442 12.7047 44.5112 12.7724 44.5671 12.8517C44.6807 13.0136 44.7812 13.1837 44.8964 13.344C45.0956 13.6264 45.3327 13.8279 45.7541 13.6347Z" fill="#0F2416"/>
<path d="M45.1309 18.3059C44.9877 18.3142 44.8411 18.1771 44.8428 18.0367C44.8444 17.893 45.0206 17.7064 45.1622 17.6981C45.2988 17.6898 45.4503 17.8335 45.4486 17.9723C45.4486 18.1226 45.2823 18.296 45.1309 18.3059Z" fill="white"/>
</svg>
